{
.appVersion = "919";
DisplayStrings = (
"/shha-cy",
"/Imacron-cy"
);
copyright = "Copyright (c) 2012, Cody \"CodeMan38\" Boisclair (cody@zone38.net), with Reserved Font Name \"Press Start 2P\"";
customParameters = (
{
name = glyphOrder;
value = (
.notdef,
uni0000,
uni000D,
space,
exclam,
quotedbl,
numbersign,
dollar,
percent,
ampersand,
quotesingle,
parenleft,
parenright,
asterisk,
plus,
comma,
hyphen,
period,
slash,
zero,
one,
two,
three,
four,
five,
six,
seven,
eight,
nine,
colon,
semicolon,
less,
equal,
greater,
question,
at,
A,
B,
C,
D,
E,
F,
G,
H,
I,
J,
K,
L,
M,
N,
O,
P,
Q,
R,
S,
T,
U,
V,
W,
X,
Y,
Z,
bracketleft,
backslash,
bracketright,
asciicircum,
underscore,
grave,
a,
b,
c,
d,
e,
f,
g,
h,
i,
j,
k,
l,
m,
n,
o,
p,
q,
r,
s,
t,
u,
v,
w,
x,
y,
z,
braceleft,
bar,
braceright,
asciitilde,
uni007F,
uni00A0,
exclamdown,
cent,
sterling,
currency,
yen,
brokenbar,
section,
dieresis,
copyright,
ordfeminine,
guillemotleft,
logicalnot,
uni00AD,
registered,
macron,
degree,
plusminus,
uni00B2,
uni00B3,
acute,
uni00B5,
paragraph,
periodcentered,
cedilla,
uni00B9,
ordmasculine,
guillemotright,
onequarter,
onehalf,
threequarters,
questiondown,
Agrave,
Aacute,
Acircumflex,
Atilde,
Adieresis,
Aring,
AE,
Ccedilla,
Egrave,
Eacute,
Ecircumflex,
Edieresis,
Igrave,
Iacute,
Icircumflex,
Idieresis,
Eth,
Ntilde,
Ograve,
Oacute,
Ocircumflex,
Otilde,
Odieresis,
multiply,
Oslash,
Ugrave,
Uacute,
Ucircumflex,
Udieresis,
Yacute,
Thorn,
germandbls,
agrave,
aacute,
acircumflex,
atilde,
adieresis,
aring,
ae,
ccedilla,
egrave,
eacute,
ecircumflex,
edieresis,
igrave,
iacute,
icircumflex,
idieresis,
eth,
ntilde,
ograve,
oacute,
ocircumflex,
otilde,
odieresis,
divide,
oslash,
ugrave,
uacute,
ucircumflex,
udieresis,
yacute,
thorn,
ydieresis,
Amacron,
amacron,
Abreve,
abreve,
Aogonek,
aogonek,
Cacute,
cacute,
Ccircumflex,
ccircumflex,
Cdotaccent,
cdotaccent,
Ccaron,
ccaron,
Dcaron,
dcaron,
Dcroat,
dcroat,
Emacron,
emacron,
Ebreve,
ebreve,
Edotaccent,
edotaccent,
Eogonek,
eogonek,
Ecaron,
ecaron,

glyphs = (
{
glyphname = .notdef;
lastChange = "2016-07-05 20:04:11 +0000";
layers = (
{
layerId = "9D510E40-B89B-4DEE-9F00-CDF72199B32A";
paths = (
{
closed = 1;
nodes = (
"512 128 LINE",
"896 128 LINE",
"896 576 LINE",
"896 1024 LINE",
"512 1024 LINE",
"128 1024 LINE",
"128 576 LINE",
"128 128 LINE"
);
},
{
closed = 1;
nodes = (
"576 512 LINE",
"384 512 LINE",
"384 576 LINE",
"384 640 LINE",
"512 640 LINE",
"640 640 LINE",
"640 704 LINE",
"640 768 LINE",
"448 768 LINE",
"256 768 LINE",
"256 832 LINE",
"256 896 LINE",
"512 896 LINE",
"768 896 LINE",
"768 704 LINE",
"768 512 LINE"
);
},
{
closed = 1;
nodes = (
"448 256 LINE",
"384 256 LINE",
"384 320 LINE",
"384 384 LINE",
"448 384 LINE",
"512 384 LINE",
"512 320 LINE",
"512 256 LINE"
);
}
);
width = 1024;
}
);
note = "\012    .notdef\012  ";
},
{
glyphname = exclam;
lastChange = "2016-07-05 20:04:06 +0000";
layers = (
{
layerId = "9D510E40-B89B-4DEE-9F00-CDF72199B32A";
paths = (
{
closed = 1;
nodes = (
"384 128 LINE",
"512 128 LINE",
"512 192 LINE",
"512 256 LINE",
"384 256 LINE",
"256 256 LINE",
"256 192 LINE",
"256 128 LINE"
);
},
{
closed = 1;
nodes = (
"384 384 LINE",
"512 384 LINE",
"512 512 LINE",
"512 640 LINE",
"576 640 LINE",
"640 640 LINE",
"640 832 LINE",
"640 1024 LINE",
"448 1024 LINE",
"256 1024 LINE",
"256 704 LINE",
"256 384 LINE"
);
}
);
width = 1024;
}
);
note = "\012    exclam\012  ";
unicode = 0021;
},
{
glyphname = quotedbl;
lastChange = "2016-07-05 20:04:06 +0000";
layers = (
{
layerId = "9D510E40-B89B-4DEE-9F00-CDF72199B32A";
paths = (
{
closed = 1;
nodes = (
"640 640 LINE",
"768 640 LINE",
"768 832 LINE",
"768 1024 LINE",
"640 1024 LINE",
"512 1024 LINE",
"512 832 LINE",
"512 640 LINE"
);
},
{
closed = 1;
nodes = (
"256 640 LINE",
"384 640 LINE",
"384 832 LINE",
"384 1024 LINE",
"256 1024 LINE",
"128 1024 LINE",
"128 832 LINE",
"128 640 LINE"
);
}
);
width = 1024;
}
);
note = "\012    quotedbl\012  ";
unicode = 0022;
},
{
glyphname = numbersign;
lastChange = "2016-07-05 20:04:06 +0000";
layers = (
{
layerId = "9D510E40-B89B-4DEE-9F00-CDF72199B32A";
paths = (
{
closed = 1;
nodes = (
"64 896 LINE",
"0 896 LINE",
"0 832 LINE",
"0 768 LINE",
"64 768 LINE",
"128 768 LINE",
"128 576 LINE",
"128 384 LINE",
"64 384 LINE",
"0 384 LINE",
"0 320 LINE",
"0 256 LINE",
"64 256 LINE",
"128 256 LINE",
"128 192 LINE",
"128 128 LINE",
"256 128 LINE",
"384 128 LINE",
"384 192 LINE",
"384 256 LINE",
"448 256 LINE",
"512 256 LINE",
"512 192 LINE",
"512 128 LINE",
"640 128 LINE",
"768 128 LINE",
"768 192 LINE",
"768 256 LINE",
"832 256 LINE",
"896 256 LINE",
"896 320 LINE",
"896 384 LINE",
"832 384 LINE",
"768 384 LINE",
"768 576 LINE",
"768 768 LINE",
"832 768 LINE",
"896 768 LINE",
"896 832 LINE",
"896 896 LINE",
"832 896 LINE",
"768 896 LINE",
"768 960 LINE",
"768 1024 LINE",
"640 1024 LINE",
"512 1024 LINE",
"512 960 LINE",
"512 896 LINE",
"448 896 LINE",
"384 896 LINE",
"384 960 LINE",
"384 1024 LINE",
"256 1024 LINE",
"128 1024 LINE",
"128 960 LINE",
"128 896 LINE"
);
},
{
closed = 1;
nodes = (
"448 384 LINE",
"384 384 LINE",
"384 576 LINE",
"384 768 LINE",
"448 768 LINE",
"512 768 LINE",
"512 576 LINE",
"512 384 LINE"
);
}
);
width = 1024;
}
);
note = "\012    numbersign\012  ";
unicode = 0023;
},
{
glyphname = dollar;
lastChange = "2016-07-05 20:04:06 +0000";
layers = (
{
layerId = "9D510E40-B89B-4DEE-9F00-CDF72199B32A";
paths = (
{
closed = 1;
nodes = (
"256 896 LINE",
"128 896 LINE",
"128 832 LINE",
"128 768 LINE",
"64 768 LINE",
"0 768 LINE",
"0 704 LINE",
"0 640 LINE",
"64 640 LINE",
"128 640 LINE",
"128 576 LINE",
"128 512 LINE",
"256 512 LINE",
"384 512 LINE",
"384 448 LINE",
"384 384 LINE",
"192 384 LINE",
"0 384 LINE",
"0 320 LINE",
"0 256 LINE",
"192 256 LINE",
"384 256 LINE",
"384 192 LINE",
"384 128 LINE",
"448 128 LINE",
"512 128 LINE",
"512 192 LINE",
"512 256 LINE",
"640 256 LINE",
"768 256 LINE",
"768 320 LINE",
"768 384 LINE",
"832 384 LINE",
"896 384 LINE",
"896 448 LINE",
"896 512 LINE",
"832 512 LINE",
"768 512 LINE",
"768 576 LINE",
"768 640 LINE",
"640 640 LINE",
"512 640 LINE",
"512 704 LINE",
"512 768 LINE",
"640 768 LINE",
"768 768 LINE",
"768 832 LINE",
"768 896 LINE",
"640 896 LINE",
"512 896 LINE",
"512 960 LINE",
"512 1024 LINE",
"448 1024 LINE",
"384 1024 LINE",
"384 960 LINE",
"384 896 LINE"
);
},
{
closed = 1;
nodes = (
"320 640 LINE",
"256 640 LINE",
"256 704 LINE",
"256 768 LINE",
"320 768 LINE",
"384 768 LINE",
"384 704 LINE",
"384 640 LINE"
);
},
{
closed = 1;
nodes = (
"576 384 LINE",
"512 384 LINE",
"512 448 LINE",
"512 512 LINE",
"576 512 LINE",
"640 512 LINE",
"640 448 LINE",
"640 384 LINE"
);
}
);
width = 1024;
}
);
note = "\012    dollar\012  ";
unicode = 0024;
},
{
glyphname = percent;
lastChange = "2016-07-05 20:04:06 +0000";
layers = (
{
layerId = "9D510E40-B89B-4DEE-9F00-CDF72199B32A";
paths = (
{
closed = 1;
nodes = (
"576 384 LINE",
"512 384 LINE",
"512 256 LINE",
"512 128 LINE",
"640 128 LINE",
"768 128 LINE",
"768 192 LINE",
"768 256 LINE",
"832 256 LINE",
"896 256 LINE",
"896 384 LINE",
"896 512 LINE",
"768 512 LINE",
"640 512 LINE",
"640 448 LINE",
"640 384 LINE"
);
},
{
closed = 1;
nodes = (
"704 256 LINE",
"640 256 LINE",
"640 320 LINE",
"640 384 LINE",
"704 384 LINE",
"768 384 LINE",
"768 320 LINE",
"768 256 LINE"
);
},
{
closed = 1;
nodes = (
"704 896 LINE",
"640 896 LINE",
"640 832 LINE",
"640 768 LINE",
"576 768 LINE",
"512 768 LINE",
"512 704 LINE",
"512 640 LINE",
"448 640 LINE",
"384 640 LINE",
"384 576 LINE",
"384 512 LINE",
"320 512 LINE",
"256 512 LINE",
"256 448 LINE",
"256 384 LINE",
"192 384 LINE",
"128 384 LINE",
"128 320 LINE",
"128 256 LINE",
"64 256 LINE",
"0 256 LINE",
"0 192 LINE",
"0 128 LINE",
"64 128 LINE",
"128 128 LINE",
"128 192 LINE",
"128 256 LINE",
"192 256 LINE",
"256 256 LINE",
"256 320 LINE",
"256 384 LINE",
"320 384 LINE",
"384 384 LINE",
"384 448 LINE",
"384 512 LINE",
"448 512 LINE",
"512 512 LINE",
"512 576 LINE",
"512 640 LINE",
"576 640 LINE",
"640 640 LINE",
"640 704 LINE",
"640 768 LINE",
"704 768 LINE",
"768 768 LINE",
"768 832 LINE",
"768 896 LINE",
"832 896 LINE",
"896 896 LINE",
"896 960 LINE",
"896 1024 LINE",
"832 1024 LINE",
"768 1024 LINE",
"768 960 LINE",
"768 896 LINE"
);
},
{
closed = 1;
nodes = (
"64 896 LINE",
"0 896 LINE",
"0 768 LINE",
"0 640 LINE",
"128 640 LINE",
"256 640 LINE",
"256 704 LINE",
"256 768 LINE",
"320 768 LINE",
"384 768 LINE",
"384 896 LINE",
"384 1024 LINE",
"256 1024 LINE",
"128 1024 LINE",
"128 960 LINE",
"128 896 LINE"
);
},
{
closed = 1;
nodes = (
"192 768 LINE",
"128 768 LINE",
"128 832 LINE",
"128 896 LINE",
"192 896 LINE",
"256 896 LINE",
"256 832 LINE",
"256 768 LINE"
);
}
);
width = 1024;
}
);
note = "\012    percent\012  ";
unicode = 0025;
},
{
glyphname = ampersand;
lastChange = "2016-07-05 20:04:06 +0000";
layers = (
{
layerId = "9D510E40-B89B-4DEE-9F00-CDF72199B32A";
paths = (
{
closed = 1;
nodes = (
"64 896 LINE",
"0 896 LINE",
"0 768 LINE",
"0 640 LINE",
"64 640 LINE",
"128 640 LINE",
"128 576 LINE",
"128 512 LINE",
"64 512 LINE",
"0 512 LINE",
"0 384 LINE",
"0 256 LINE",
"64 256 LINE",
"128 256 LINE",
"128 192 LINE",
"128 128 LINE",
"512 128 LINE",
"896 128 LINE",
"896 192 LINE",
"896 256 LINE",
"832 256 LINE",
"768 256 LINE",
"768 320 LINE",
"768 384 LINE",
"832 384 LINE",
"896 384 LINE",
"896 448 LINE",
"896 512 LINE",
"832 512 LINE",
"768 512 LINE",
"768 448 LINE",
"768 384 LINE",
"704 384 LINE",
"640 384 LINE",
"640 448 LINE",
"640 512 LINE",
"576 512 LINE",
"512 512 LINE",
"512 576 LINE",
"512 640 LINE",
"576 640 LINE",
"640 640 LINE",
"640 768 LINE",
"640 896 LINE",
"576 896 LINE",
"512 896 LINE",
"512 960 LINE",
"512 1024 LINE",
"320 1024 LINE",
"128 1024 LINE",
"128 960 LINE",
"128 896 LINE"
);
},
{
closed = 1;
nodes = (
"320 640 LINE",
"256 640 LINE",
"256 768 LINE",
"256 896 LINE",
"320 896 LINE",
"384 896 LINE",
"384 768 LINE",
"384 640 LINE"
);
},
{
closed = 1;
nodes = (
"448 384 LINE",
"512 384 LINE",
"512 320 LINE",
"512 256 LINE",
"384 256 LINE",
"256 256 LINE",
"256 384 LINE",
"256 512 LINE",
"320 512 LINE",
"384 512 LINE",
"384 448 LINE",
"384 384 LINE"
);
}
);
width = 1024;
}
);
note = "\012    ampersand\012  ";
unicode = 0026;
},
{
glyphname = quotesingle;
lastChange = "2016-07-05 20:04:06 +0000";
layers = (
{
layerId = "9D510E40-B89B-4DEE-9F00-CDF72199B32A";
paths = (
{
closed = 1;
nodes = (
"384 640 LINE",
"512 640 LINE",
"512 832 LINE",
"512 1024 LINE",
"384 1024 LINE",
"256 1024 LINE",
"256 832 LINE",
"256 640 LINE"
);
}
);
width = 1024;
}
);
note = "\012    quotesingle\012  ";
unicode = 0027;
},
{
glyphname = parenleft;
lastChange = "2016-07-05 20:04:06 +0000";
layers = (
{
layerId = "9D510E40-B89B-4DEE-9F00-CDF72199B32A";
paths = (
{
closed = 1;
nodes = (
"448 896 LINE",
"384 896 LINE",
"384 832 LINE",
"384 768 LINE",
"320 768 LINE",
"256 768 LINE",
"256 576 LINE",
"256 384 LINE",
"320 384 LINE",
"384 384 LINE",
"384 320 LINE",
"384 256 LINE",
"448 256 LINE",
"512 256 LINE",
"512 192 LINE",
"512 128 LINE",
"640 128 LINE",
"768 128 LINE",
"768 192 LINE",
"768 256 LINE",
"704 256 LINE",
"640 256 LINE",
"640 320 LINE",
"640 384 LINE",
"576 384 LINE",
"512 384 LINE",
"512 576 LINE",
"512 768 LINE",
"576 768 LINE",
"640 768 LINE",
"640 832 LINE",
"640 896 LINE",
"704 896 LINE",
"768 896 LINE",
"768 960 LINE",
"768 1024 LINE",
"640 1024 LINE",
"512 1024 LINE",
"512 960 LINE",
"512 896 LINE"
);
}
);
width = 1024;
}
);
note = "\012    parenleft\012  ";
unicode = 0028;
},
{
glyphname = parenright;
lastChange = "2016-07-05 20:04:06 +0000";
layers = (
{
layerId = "9D510E40-B89B-4DEE-9F00-CDF72199B32A";
paths = (
{
closed = 1;
nodes = (
"192 896 LINE",
"256 896 LINE",
"256 832 LINE",
"256 768 LINE",
"320 768 LINE",
"384 768 LINE",
"384 576 LINE",
"384 384 LINE",
"320 384 LINE",
"256 384 LINE",
"256 320 LINE",
"256 256 LINE",
"192 256 LINE",
"128 256 LINE",
"128 192 LINE",
"128 128 LINE",
"256 128 LINE",
"384 128 LINE",
"384 192 LINE",
"384 256 LINE",
"448 256 LINE",
"512 256 LINE",
"512 320 LINE",
"512 384 LINE",
"576 384 LINE",
"640 384 LINE",
"640 576 LINE",
"640 768 LINE",
"576 768 LINE",
"512 768 LINE",
"512 832 LINE",
"512 896 LINE",
"448 896 LINE",
"384 896 LINE",
"384 960 LINE",
"384 1024 LINE",
"256 1024 LINE",
"128 1024 LINE",
"128 960 LINE",
"128 896 LINE"
);
}
);
width = 1024;
}
);
note = "\012    parenright\012  ";
unicode = 0029;
},
{
glyphname = asterisk;
lastChange = "2016-07-05 20:04:06 +0000";
layers = (
{
layerId = "9D510E40-B89B-4DEE-9F00-CDF72199B32A";
paths = (
{
closed = 1;
nodes = (
"192 768 LINE",
"256 768 LINE",
"256 704 LINE",
"256 640 LINE",
"128 640 LINE",
"0 640 LINE",
"0 576 LINE",
"0 512 LINE",
"128 512 LINE",
"256 512 LINE",
"256 448 LINE",
"256 384 LINE",
"192 384 LINE",
"128 384 LINE",
"128 320 LINE",
"128 256 LINE",
"256 256 LINE",
"384 256 LINE",
"384 320 LINE",
"384 384 LINE",
"448 384 LINE",
"512 384 LINE",
"512 320 LINE",
"512 256 LINE",
"640 256 LINE",
"768 256 LINE",
"768 320 LINE",
"768 384 LINE",
"704 384 LINE",
"640 384 LINE",
"640 448 LINE",
"640 512 LINE",
"768 512 LINE",
"896 512 LINE",
"896 576 LINE",
"896 640 LINE",
"768 640 LINE",
"640 640 LINE",
"640 704 LINE",
"640 768 LINE",
"704 768 LINE",
"768 768 LINE",
"768 832 LINE",
"768 896 LINE",
"640 896 LINE",
"512 896 LINE",
"512 832 LINE",
"512 768 LINE",
"448 768 LINE",
"384 768 LINE",
"384 832 LINE",
"384 896 LINE",
"256 896 LINE",
"128 896 LINE",
"128 832 LINE",
"128 768 LINE"
);
}
);
width = 1024;
}
);
note = "\012    asterisk\012  ";
unicode = 002A;
},
{
glyphname = plus;
lastChange = "2016-07-05 20:04:06 +0000";
layers = (
{
layerId = "9D510E40-B89B-4DEE-9F00-CDF72199B32A";
paths = (
{
closed = 1;
nodes = (
"256 640 LINE",
"128 640 LINE",
"128 576 LINE",
"128 512 LINE",
"256 512 LINE",
"384 512 LINE",
"384 384 LINE",
"384 256 LINE",
"512 256 LINE",
"640 256 LINE",
"640 384 LINE",
"640 512 LINE",
"768 512 LINE",
"896 512 LINE",
"896 576 LINE",
"896 640 LINE",
"768 640 LINE",
"640 640 LINE",
"640 768 LINE",
"640 896 LINE",
"512 896 LINE",
"384 896 LINE",
"384 768 LINE",
"384 640 LINE"
);
}
);
width = 1024;
}
);
note = "\012    plus\012  ";
unicode = 002B;
},
{
glyphname = comma;
lastChange = "2016-07-05 20:04:06 +0000";
layers = (
{
layerId = "9D510E40-B89B-4DEE-9F00-CDF72199B32A";
paths = (
{
closed = 1;
nodes = (
"192 128 LINE",
"128 128 LINE",
"128 64 LINE",
"128 0 LINE",
"256 0 LINE",
"384 0 LINE",
"384 64 LINE",
"384 128 LINE",
"448 128 LINE",
"512 128 LINE",
"512 256 LINE",
"512 384 LINE",
"384 384 LINE",
"256 384 LINE",
"256 256 LINE",
"256 128 LINE"
);
}
);
width = 1024;
}
);
note = "\012    comma\012  ";
unicode = 002C;
},
{
glyphname = hyphen;
lastChange = "2016-07-05 20:04:06 +0000";
layers = (
{
layerId = "9D510E40-B89B-4DEE-9F00-CDF72199B32A";
paths = (
{
closed = 1;
nodes = (
"512 512 LINE",
"896 512 LINE",
"896 576 LINE",
"896 640 LINE",
"512 640 LINE",
"128 640 LINE",
"128 576 LINE",
"128 512 LINE"
);
}
);
width = 1024;
}
);
note = "\012    hyphen\012  ";
unicode = 002D;
},
{
glyphname = period;
lastChange = "2016-07-05 20:04:06 +0000";
layers = (
{
layerId = "9D510E40-B89B-4DEE-9F00-CDF72199B32A";
paths = (
{
closed = 1;
nodes = (
"384 128 LINE",
"512 128 LINE",
"512 256 LINE",
"512 384 LINE",
"384 384 LINE",
"256 384 LINE",
"256 256 LINE",
"256 128 LINE"
);
}
);
width = 1024;
}
);
note = "\012    period\012  ";
unicode = 002E;
},
{
glyphname = slash;
lastChange = "2016-07-05 20:04:06 +0000";
layers = (
{
layerId = "9D510E40-B89B-4DEE-9F00-CDF72199B32A";
paths = (
{
closed = 1;
nodes = (
"704 896 LINE",
"640 896 LINE",
"640 832 LINE",
"640 768 LINE",
"576 768 LINE",
"512 768 LINE",
"512 704 LINE",
"512 640 LINE",
"448 640 LINE",
"384 640 LINE",
"384 576 LINE",
"384 512 LINE",
"320 512 LINE",
"256 512 LINE",
"256 448 LINE",
"256 384 LINE",
"192 384 LINE",
"128 384 LINE",
"128 320 LINE",
"128 256 LINE",
"64 256 LINE",
"0 256 LINE",
"0 192 LINE",
"0 128 LINE",
"64 128 LINE",
"128 128 LINE",
"128 192 LINE",
"128 256 LINE",
"192 256 LINE",
"256 256 LINE",
"256 320 LINE",
"256 384 LINE",
"320 384 LINE",
"384 384 LINE",
"384 448 LINE",
"384 512 LINE",
"448 512 LINE",
"512 512 LINE",
"512 576 LINE",
"512 640 LINE",
"576 640 LINE",
"640 640 LINE",
"640 704 LINE",
"640 768 LINE",
"704 768 LINE",
"768 768 LINE",
"768 832 LINE",
"768 896 LINE",
"832 896 LINE",
"896 896 LINE",
"896 960 LINE",
"896 1024 LINE",
"832 1024 LINE",
"768 1024 LINE",
"768 960 LINE",
"768 896 LINE"
);
}
);
width = 1024;
}
);
note = "\012    slash\012  ";
unicode = 002F;
},
{
glyphname = zero;
lastChange = "2016-07-05 20:04:06 +0000";
layers = (
{
layerId = "9D510E40-B89B-4DEE-9F00-CDF72199B32A";
paths = (
{
closed = 1;
nodes = (
"192 896 LINE",
"128 896 LINE",
"128 832 LINE",
"128 768 LINE",
"64 768 LINE",
"0 768 LINE",
"0 576 LINE",
"0 384 LINE",
"64 384 LINE",
"128 384 LINE",
"128 320 LINE",
"128 256 LINE",
"192 256 LINE",
"256 256 LINE",
"256 192 LINE",
"256 128 LINE",
"448 128 LINE",
"640 128 LINE",
"640 192 LINE",
"640 256 LINE",
"704 256 LINE",
"768 256 LINE",
"768 320 LINE",
"768 384 LINE",
"832 384 LINE",
"896 384 LINE",
"896 576 LINE",
"896 768 LINE",
"832 768 LINE",
"768 768 LINE",
"768 832 LINE",
"768 896 LINE",
"704 896 LINE",
"640 896 LINE",
"640 960 LINE",
"640 1024 LINE",
"448 1024 LINE",
"256 1024 LINE",
"256 960 LINE",
"256 896 LINE"
);
},
{
closed = 1;
nodes = (
"576 768 LINE",
"640 768 LINE",
"640 512 LINE",
"640 256 LINE",
"512 256 LINE",
"384 256 LINE",
"384 320 LINE",
"384 384 LINE",
"320 384 LINE",
"256 384 LINE",
"256 640 LINE",
"256 896 LINE",
"384 896 LINE",
"512 896 LINE",
"512 832 LINE",
"512 768 LINE"
);
}
);
width = 1024;
}
);
note = "\012    zero\012  ";
unicode = 0030;
},
{
glyphname = one;
lastChange = "2016-07-05 20:04:06 +0000";
layers = (
{
layerId = "9D510E40-B89B-4DEE-9F00-CDF72199B32A";
paths = (
{
closed = 1;
nodes = (
"320 896 LINE",
"256 896 LINE",
"256 832 LINE",
"256 768 LINE",
"320 768 LINE",
"384 768 LINE",
"384 512 LINE",
"384 256 LINE",
"256 256 LINE",
"128 256 LINE",
"128 192 LINE",
"128 128 LINE",
"512 128 LINE",
"896 128 LINE",
"896 192 LINE",
"896 256 LINE",
"768 256 LINE",
"640 256 LINE",
"640 640 LINE",
"640 1024 LINE",
"512 1024 LINE",
"384 1024 LINE",
"384 960 LINE",
"384 896 LINE"
);
}
);
width = 1024;
}
);
note = "\012    one\012  ";
unicode = 0031;
},
{
glyphname = two;
lastChange = "2016-07-05 20:04:06 +0000";
layers = (
{
layerId = "9D510E40-B89B-4DEE-9F00-CDF72199B32A";
paths = (
{
closed = 1;
nodes = (
"64 896 LINE",
"0 896 LINE",
"0 832 LINE",
"0 768 LINE",
"128 768 LINE",
"256 768 LINE",
"256 832 LINE",
"256 896 LINE",
"448 896 LINE",
"640 896 LINE",
"640 832 LINE",
"640 768 LINE",
"576 768 LINE",
"512 768 LINE",
"512 704 LINE",
"512 640 LINE",
"384 640 LINE",
"256 640 LINE",
"256 576 LINE",
"256 512 LINE",
"192 512 LINE",
"128 512 LINE",
"128 448 LINE",
"128 384 LINE",
"64 384 LINE",
"0 384 LINE",
"0 256 LINE",
"0 128 LINE",
"448 128 LINE",
"896 128 LINE",
"896 192 LINE",
"896 256 LINE",
"640 256 LINE",
"384 256 LINE",
"384 320 LINE",
"384 384 LINE",
"512 384 LINE",
"640 384 LINE",
"640 448 LINE",
"640 512 LINE",
"704 512 LINE",
"768 512 LINE",
"768 576 LINE",
"768 640 LINE",
"832 640 LINE",
"896 640 LINE",
"896 768 LINE",
"896 896 LINE",
"832 896 LINE",
"768 896 LINE",
"768 960 LINE",
"768 1024 LINE",
"448 1024 LINE",
"128 1024 LINE",
"128 960 LINE",
"128 896 LINE"
);
}
);
width = 1024;
}
);
note = "\012    two\012  ";
unicode = 0032;
},
{
glyphname = three;
lastChange = "2016-07-05 20:04:06 +0000";
layers = (
{
layerId = "9D510E40-B89B-4DEE-9F00-CDF72199B32A";
paths = (
{
closed = 1;
nodes = (
"320 896 LINE",
"512 896 LINE",
"512 832 LINE",
"512 768 LINE",
"448 768 LINE",
"384 768 LINE",
"384 704 LINE",
"384 640 LINE",
"320 640 LINE",
"256 640 LINE",
"256 576 LINE",
"256 512 LINE",
"448 512 LINE",
"640 512 LINE",
"640 384 LINE",
"640 256 LINE",
"448 256 LINE",
"256 256 LINE",
"256 320 LINE",
"256 384 LINE",
"128 384 LINE",
"0 384 LINE",
"0 320 LINE",
"0 256 LINE",
"64 256 LINE",
"128 256 LINE",
"128 192 LINE",
"128 128 LINE",
"448 128 LINE",
"768 128 LINE",
"768 192 LINE",
"768 256 LINE",
"832 256 LINE",
"896 256 LINE",
"896 384 LINE",
"896 512 LINE",
"832 512 LINE",
"768 512 LINE",
"768 576 LINE",
"768 640 LINE",
"704 640 LINE",
"640 640 LINE",
"640 704 LINE",
"640 768 LINE",
"704 768 LINE",
"768 768 LINE",
"768 832 LINE",
"768 896 LINE",
"832 896 LINE",
"896 896 LINE",
"896 960 LINE",
"896 1024 LINE",
"512 1024 LINE",
"128 1024 LINE",
"128 960 LINE",
"128 896 LINE"
);
}
);
width = 1024;
}
);
note = "\012    three\012  ";
unicode = 0033;
},
{
glyphname = four;
lastChange = "2016-07-05 20:04:06 +0000";
layers = (
{
layerId = "9D510E40-B89B-4DEE-9F00-CDF72199B32A";
paths = (
{
closed = 1;
nodes = (
"320 896 LINE",
"256 896 LINE",
"256 832 LINE",
"256 768 LINE",
"192 768 LINE",
"128 768 LINE",
"128 704 LINE",
"128 640 LINE",
"64 640 LINE",
"0 640 LINE",
"0 512 LINE",
"0 384 LINE",
"256 384 LINE",
"512 384 LINE",
"512 256 LINE",
"512 128 LINE",
"640 128 LINE",
"768 128 LINE",
"768 256 LINE",
"768 384 LINE",
"832 384 LINE",
"896 384 LINE",
"896 448 LINE",
"896 512 LINE",
"832 512 LINE",
"768 512 LINE",
"768 768 LINE",
"768 1024 LINE",
"576 1024 LINE",
"384 1024 LINE",
"384 960 LINE",
"384 896 LINE"
);
},
{
closed = 1;
nodes = (
"384 512 LINE",
"256 512 LINE",
"256 576 LINE",
"256 640 LINE",
"320 640 LINE",
"384 640 LINE",
"384 704 LINE",
"384 768 LINE",
"448 768 LINE",
"512 768 LINE",
"512 640 LINE",
"512 512 LINE"
);
}
);
width = 1024;
}
);
note = "\012    four\012  ";
unicode = 0034;
},
{
glyphname = five;
lastChange = "2016-07-05 20:04:06 +0000";
layers = (
{
layerId = "9D510E40-B89B-4DEE-9F00-CDF72199B32A";
paths = (
{
closed = 1;
nodes = (
"320 640 LINE",
"640 640 LINE",
"640 448 LINE",
"640 256 LINE",
"448 256 LINE",
"256 256 LINE",
"256 320 LINE",
"256 384 LINE",
"128 384 LINE",
"0 384 LINE",
"0 320 LINE",
"0 256 LINE",
"64 256 LINE",
"128 256 LINE",
"128 192 LINE",
"128 128 LINE",
"448 128 LINE",
"768 128 LINE",
"768 192 LINE",
"768 256 LINE",
"832 256 LINE",
"896 256 LINE",
"896 448 LINE",
"896 640 LINE",
"832 640 LINE",
"768 640 LINE",
"768 704 LINE",
"768 768 LINE",
"512 768 LINE",
"256 768 LINE",
"256 832 LINE",
"256 896 LINE",
"512 896 LINE",
"768 896 LINE",
"768 960 LINE",
"768 1024 LINE",
"384 1024 LINE",
"0 1024 LINE",
"0 832 LINE",
"0 640 LINE"
);
}
);
width = 1024;
}
);
note = "\012    five\012  ";
unicode = 0035;
},
{
glyphname = six;
lastChange = "2016-07-05 20:04:06 +0000";
layers = (
{
layerId = "9D510E40-B89B-4DEE-9F00-CDF72199B32A";
paths = (
{
closed = 1;
nodes = (
"192 896 LINE",
"128 896 LINE",
"128 832 LINE",
"128 768 LINE",
"64 768 LINE",
"0 768 LINE",
"0 512 LINE",
"0 256 LINE",
"64 256 LINE",
"128 256 LINE",
"128 192 LINE",
"128 128 LINE",
"448 128 LINE",
"768 128 LINE",
"768 192 LINE",
"768 256 LINE",
"832 256 LINE",
"896 256 LINE",
"896 384 LINE",
"896 512 LINE",
"832 512 LINE",
"768 512 LINE",
"768 576 LINE",
"768 640 LINE",
"512 640 LINE",
"256 640 LINE",
"256 704 LINE",
"256 768 LINE",
"320 768 LINE",
"384 768 LINE",
"384 832 LINE",
"384 896 LINE",
"576 896 LINE",
"768 896 LINE",
"768 960 LINE",
"768 1024 LINE",
"512 1024 LINE",
"256 1024 LINE",
"256 960 LINE",
"256 896 LINE"
);
},
{
closed = 1;
nodes = (
"448 256 LINE",
"256 256 LINE",
"256 384 LINE",
"256 512 LINE",
"448 512 LINE",
"640 512 LINE",
"640 384 LINE",
"640 256 LINE"
);
}
);
width = 1024;
}
);
note = "\012    six\012  ";
unicode = 0036;
},
{
glyphname = seven;
lastChange = "2016-07-05 20:04:06 +0000";
layers = (
{
layerId = "9D510E40-B89B-4DEE-9F00-CDF72199B32A";
paths = (
{
closed = 1;
nodes = (
"128 768 LINE",
"256 768 LINE",
"256 832 LINE",
"256 896 LINE",
"448 896 LINE",
"640 896 LINE",
"640 832 LINE",
"640 768 LINE",
"576 768 LINE",
"512 768 LINE",
"512 704 LINE",
"512 640 LINE",
"448 640 LINE",
"384 640 LINE",
"384 576 LINE",
"384 512 LINE",
"320 512 LINE",
"256 512 LINE",
"256 320 LINE",
"256 128 LINE",
"384 128 LINE",
"512 128 LINE",
"512 320 LINE",
"512 512 LINE",
"576 512 LINE",
"640 512 LINE",
"640 576 LINE",
"640 640 LINE",
"704 640 LINE",
"768 640 LINE",
"768 704 LINE",
"768 768 LINE",
"832 768 LINE",
"896 768 LINE",
"896 896 LINE",
"896 1024 LINE",
"448 1024 LINE",
"0 1024 LINE",
"0 896 LINE",
"0 768 LINE"
);
}
);
width = 1024;
}
);
note = "\012    seven\012  ";
unicode = 0037;
},
{
glyphname = eight;
lastChange = "2016-07-05 20:04:06 +0000";
layers = (
{
layerId = "9D510E40-B89B-4DEE-9F00-CDF72199B32A";
paths = (
{
closed = 1;
nodes = (
"64 896 LINE",
"0 896 LINE",
"0 768 LINE",
"0 640 LINE",
"64 640 LINE",
"128 640 LINE",
"128 576 LINE",
"128 512 LINE",
"64 512 LINE",
"0 512 LINE",
"0 384 LINE",
"0 256 LINE",
"64 256 LINE",
"128 256 LINE",
"128 192 LINE",
"128 128 LINE",
"448 128 LINE",
"768 128 LINE",
"768 192 LINE",
"768 256 LINE",
"832 256 LINE",
"896 256 LINE",
"896 384 LINE",
"896 512 LINE",
"768 512 LINE",
"640 512 LINE",
"640 576 LINE",
"640 640 LINE",
"704 640 LINE",
"768 640 LINE",
"768 768 LINE",
"768 896 LINE",
"704 896 LINE",
"640 896 LINE",
"640 960 LINE",
"640 1024 LINE",
"384 1024 LINE",
"128 1024 LINE",
"128 960 LINE",
"128 896 LINE"
);
},
{
closed = 1;
nodes = (
"512 640 LINE",
"384 640 LINE",
"384 704 LINE",
"384 768 LINE",
"320 768 LINE",
"256 768 LINE",
"256 832 LINE",
"256 896 LINE",
"448 896 LINE",
"640 896 LINE",
"640 768 LINE",
"640 640 LINE"
);
},
{
closed = 1;
nodes = (
"512 384 LINE",
"640 384 LINE",
"640 320 LINE",
"640 256 LINE",
"384 256 LINE",
"128 256 LINE",
"128 384 LINE",
"128 512 LINE",
"256 512 LINE",
"384 512 LINE",
"384 448 LINE",
"384 384 LINE"
);
}
);
width = 1024;
}
);
note = "\012    eight\012  ";
unicode = 0038;
},
{
glyphname = nine;
lastChange = "2016-07-05 20:04:06 +0000";
layers = (
{
layerId = "9D510E40-B89B-4DEE-9F00-CDF72199B32A";
paths = (
{
closed = 1;
nodes = (
"64 896 LINE",
"0 896 LINE",
"0 768 LINE",
"0 640 LINE",
"64 640 LINE",
"128 640 LINE",
"128 576 LINE",
"128 512 LINE",
"384 512 LINE",
"640 512 LINE",
"640 448 LINE",
"640 384 LINE",
"576 384 LINE",
"512 384 LINE",
"512 320 LINE",
"512 256 LINE",
"320 256 LINE",
"128 256 LINE",
"128 192 LINE",
"128 128 LINE",
"384 128 LINE",
"640 128 LINE",
"640 192 LINE",
"640 256 LINE",
"704 256 LINE",
"768 256 LINE",
"768 320 LINE",
"768 384 LINE",
"832 384 LINE",
"896 384 LINE",
"896 640 LINE",
"896 896 LINE",
"832 896 LINE",
"768 896 LINE",
"768 960 LINE",
"768 1024 LINE",
"448 1024 LINE",
"128 1024 LINE",
"128 960 LINE",
"128 896 LINE"
);
},
{
closed = 1;
nodes = (
"448 640 LINE",
"256 640 LINE",
"256 768 LINE",
"256 896 LINE",
"448 896 LINE",
"640 896 LINE",
"640 768 LINE",
"640 640 LINE"
);
}
);
width = 1024;
}
);
note = "\012    nine\012  ";
unicode = 0039;
},
{
glyphname = colon;
lastChange = "2016-07-05 20:04:06 +0000";
layers = (
{
layerId = "9D510E40-B89B-4DEE-9F00-CDF72199B32A";
paths = (
{
closed = 1;
nodes = (
"384 256 LINE",
"512 256 LINE",
"512 384 LINE",
"512 512 LINE",
"384 512 LINE",
"256 512 LINE",
"256 384 LINE",
"256 256 LINE"
);
},
{
closed = 1;
nodes = (
"384 640 LINE",
"512 640 LINE",
"512 768 LINE",
"512 896 LINE",
"384 896 LINE",
"256 896 LINE",
"256 768 LINE",
"256 640 LINE"
);
}
);
width = 1024;
}
);
note = "\012    colon\012  ";
unicode = 003A;
},
{
glyphname = semicolon;
lastChange = "2016-07-05 20:04:06 +0000";
layers = (
{
layerId = "9D510E40-B89B-4DEE-9F00-CDF72199B32A";
paths = (
{
closed = 1;
nodes = (
"192 256 LINE",
"128 256 LINE",
"128 192 LINE",
"128 128 LINE",
"256 128 LINE",
"384 128 LINE",
"384 192 LINE",
"384 256 LINE",
"448 256 LINE",
"512 256 LINE",
"512 384 LINE",
"512 512 LINE",
"384 512 LINE",
"256 512 LINE",
"256 384 LINE",
"256 256 LINE"
);
},
{
closed = 1;
nodes = (
"384 640 LINE",
"512 640 LINE",
"512 768 LINE",
"512 896 LINE",
"384 896 LINE",
"256 896 LINE",
"256 768 LINE",
"256 640 LINE"
);
}
);
width = 1024;
}
);
note = "\012    semicolon\012  ";
unicode = 003B;
},
{
glyphname = less;
lastChange = "2016-07-05 20:04:06 +0000";
layers = (
{
layerId = "9D510E40-B89B-4DEE-9F00-CDF72199B32A";
paths = (
{
closed = 1;
nodes = (
"448 896 LINE",
"384 896 LINE",
"384 832 LINE",
"384 768 LINE",
"320 768 LINE",
"256 768 LINE",
"256 704 LINE",
"256 640 LINE",
"192 640 LINE",
"128 640 LINE",
"128 576 LINE",
"128 512 LINE",
"192 512 LINE",
"256 512 LINE",
"256 448 LINE",
"256 384 LINE",
"320 384 LINE",
"384 384 LINE",
"384 320 LINE",
"384 256 LINE",
"448 256 LINE",
"512 256 LINE",
"512 192 LINE",
"512 128 LINE",
"640 128 LINE",
"768 128 LINE",
"768 192 LINE",
"768 256 LINE",
"704 256 LINE",
"640 256 LINE",
"640 320 LINE",
"640 384 LINE",
"576 384 LINE",
"512 384 LINE",
"512 448 LINE",
"512 512 LINE",
"448 512 LINE",
"384 512 LINE",
"384 576 LINE",
"384 640 LINE",
"448 640 LINE",
"512 640 LINE",
"512 704 LINE",
"512 768 LINE",
"576 768 LINE",
"640 768 LINE",
"640 832 LINE",
"640 896 LINE",
"704 896 LINE",
"768 896 LINE",
"768 960 LINE",
"768 1024 LINE",
"640 1024 LINE",
"512 1024 LINE",
"512 960 LINE",
"512 896 LINE"
);
}
);
width = 1024;
}
);
note = "\012    less\012  ";
unicode = 003C;
},
{
glyphname = equal;
lastChange = "2016-07-05 20:04:06 +0000";
layers = (
{
layerId = "9D510E40-B89B-4DEE-9F00-CDF72199B32A";
paths = (
{
closed = 1;
nodes = (
"448 384 LINE",
"896 384 LINE",
"896 448 LINE",
"896 512 LINE",
"448 512 LINE",
"0 512 LINE",
"0 448 LINE",
"0 384 LINE"
);
},
{
closed = 1;
nodes = (
"448 640 LINE",
"896 640 LINE",
"896 704 LINE",
"896 768 LINE",
"448 768 LINE",
"0 768 LINE",
"0 704 LINE",
"0 640 LINE"
);
}
);
width = 1024;
}
);
note = "\012    equal\012  ";
unicode = 003D;
},
{
glyphname = greater;
lastChange = "2016-07-05 20:04:06 +0000";
layers = (
{
layerId = "9D510E40-B89B-4DEE-9F00-CDF72199B32A";
paths = (
{
closed = 1;
nodes = (
"192 896 LINE",
"256 896 LINE",
"256 832 LINE",
"256 768 LINE",
"320 768 LINE",
"384 768 LINE",
"384 704 LINE",
"384 640 LINE",
"448 640 LINE",
"512 640 LINE",
"512 576 LINE",
"512 512 LINE",
"448 512 LINE",
"384 512 LINE",
"384 448 LINE",
"384 384 LINE",
"320 384 LINE",
"256 384 LINE",
"256 320 LINE",
"256 256 LINE",
"192 256 LINE",
"128 256 LINE",
"128 192 LINE",
"128 128 LINE",
"256 128 LINE",
"384 128 LINE",
"384 192 LINE",
"384 256 LINE",
"448 256 LINE",
"512 256 LINE",
"512 320 LINE",
"512 384 LINE",
"576 384 LINE",
"640 384 LINE",
"640 448 LINE",
"640 512 LINE",
"704 512 LINE",
"768 512 LINE",
"768 576 LINE",
"768 640 LINE",
"704 640 LINE",
"640 640 LINE",
"640 704 LINE",
"640 768 LINE",
"576 768 LINE",
"512 768 LINE",
"512 832 LINE",
"512 896 LINE",
"448 896 LINE",
"384 896 LINE",
"384 960 LINE",
"384 1024 LINE",
"256 1024 LINE",
"128 1024 LINE",
"128 960 LINE",
"128 896 LINE"
);
}
);
width = 1024;
}
);
note = "\012    greater\012  ";
unicode = 003E;
},
{
glyphname = question;
lastChange = "2016-07-05 20:04:06 +0000";
layers = (
{
layerId = "9D510E40-B89B-4DEE-9F00-CDF72199B32A";
paths = (
{
closed = 1;
nodes = (
"448 128 LINE",
"640 128 LINE",
"640 192 LINE",
"640 256 LINE",
"448 256 LINE",
"256 256 LINE",
"256 192 LINE",
"256 128 LINE"
);
},
{
closed = 1;
nodes = (
"64 896 LINE",
"0 896 LINE",
"0 768 LINE",
"0 640 LINE",
"128 640 LINE",
"256 640 LINE",
"256 704 LINE",
"256 768 LINE",
"448 768 LINE",
"640 768 LINE",
"640 704 LINE",
"640 640 LINE",
"576 640 LINE",
"512 640 LINE",
"512 576 LINE",
"512 512 LINE",
"384 512 LINE",
"256 512 LINE",
"256 448 LINE",
"256 384 LINE",
"448 384 LINE",
"640 384 LINE",
"640 448 LINE",
"640 512 LINE",
"704 512 LINE",
"768 512 LINE",
"768 576 LINE",
"768 640 LINE",
"832 640 LINE",
"896 640 LINE",
"896 768 LINE",
"896 896 LINE",
"832 896 LINE",
"768 896 LINE",
"768 960 LINE",
"768 1024 LINE",
"448 1024 LINE",
"128 1024 LINE",
"128 960 LINE",
"128 896 LINE"
);
}
);
width = 1024;
}
);
note = "\012    question\012  ";
unicode = 003F;
},
{
glyphname = at;
lastChange = "2016-07-05 20:04:06 +0000";
layers = (
{
layerId = "9D510E40-B89B-4DEE-9F00-CDF72199B32A";
paths = (
{
closed = 1;
nodes = (
"64 896 LINE",
"0 896 LINE",
"0 576 LINE",
"0 256 LINE",
"64 256 LINE",
"128 256 LINE",
"128 192 LINE",
"128 128 LINE",
"448 128 LINE",
"768 128 LINE",
"768 192 LINE",
"768 256 LINE",
"448 256 LINE",
"128 256 LINE",
"128 576 LINE",
"128 896 LINE",
"448 896 LINE",
"768 896 LINE",
"768 704 LINE",
"768 512 LINE",
"704 512 LINE",
"640 512 LINE",
"640 640 LINE",
"640 768 LINE",
"448 768 LINE",
"256 768 LINE",
"256 576 LINE",
"256 384 LINE",
"576 384 LINE",
"896 384 LINE",
"896 640 LINE",
"896 896 LINE",
"832 896 LINE",
"768 896 LINE",
"768 960 LINE",
"768 1024 LINE",
"448 1024 LINE",
"128 1024 LINE",
"128 960 LINE",
"128 896 LINE"
);
},
{
closed = 1;
nodes = (
"448 512 LINE",
"384 512 LINE",
"384 576 LINE",
"384 640 LINE",
"448 640 LINE",
"512 640 LINE",
"512 576 LINE",
"512 512 LINE"
);
}
);
width = 1024;
}
);
note = "\012    at\012  ";
unicode = 0040;
},
{
glyphname = A;
lastChange = "2016-07-05 20:04:06 +0000";
layers = (
{
layerId = "9D510E40-B89B-4DEE-9F00-CDF72199B32A";
paths = (
{
closed = 1;
nodes = (
"192 896 LINE",
"128 896 LINE",
"128 832 LINE",
"128 768 LINE",
"64 768 LINE",
"0 768 LINE",
"0 448 LINE",
"0 128 LINE",
"128 128 LINE",
"256 128 LINE",
"256 256 LINE",
"256 384 LINE",
"448 384 LINE",
"640 384 LINE",
"640 256 LINE",
"640 128 LINE",
"768 128 LINE",
"896 128 LINE",
"896 448 LINE",
"896 768 LINE",
"832 768 LINE",
"768 768 LINE",
"768 832 LINE",
"768 896 LINE",
"704 896 LINE",
"640 896 LINE",
"640 960 LINE",
"640 1024 LINE",
"448 1024 LINE",
"256 1024 LINE",
"256 960 LINE",
"256 896 LINE"
);
},
{
closed = 1;
nodes = (
"576 768 LINE",
"640 768 LINE",
"640 640 LINE",
"640 512 LINE",
"448 512 LINE",
"256 512 LINE",
"256 640 LINE",
"256 768 LINE",
"320 768 LINE",
"384 768 LINE",
"384 832 LINE",
"384 896 LINE",
"448 896 LINE",
"512 896 LINE",
"512 832 LINE",
"512 768 LINE"
);
}
);
width = 1024;
}
);
note = "\012    A\012  ";
unicode = 0041;
},
{
glyphname = B;
lastChange = "2016-07-05 20:04:06 +0000";
layers = (
{
layerId = "9D510E40-B89B-4DEE-9F00-CDF72199B32A";
paths = (
{
closed = 1;
nodes = (
"384 128 LINE",
"768 128 LINE",
"768 192 LINE",
"768 256 LINE",
"832 256 LINE",
"896 256 LINE",
"896 384 LINE",
"896 512 LINE",
"832 512 LINE",
"768 512 LINE",
"768 576 LINE",
"768 640 LINE",
"832 640 LINE",
"896 640 LINE",
"896 768 LINE",
"896 896 LINE",
"832 896 LINE",
"768 896 LINE",
"768 960 LINE",
"768 1024 LINE",
"384 1024 LINE",
"0 1024 LINE",
"0 576 LINE",
"0 128 LINE"
);
},
{
closed = 1;
nodes = (
"448 640 LINE",
"256 640 LINE",
"256 768 LINE",
"256 896 LINE",
"448 896 LINE",
"640 896 LINE",
"640 768 LINE",
"640 640 LINE"
);
},
{
closed = 1;
nodes = (
"448 256 LINE",
"256 256 LINE",
"256 384 LINE",
"256 512 LINE",
"448 512 LINE",
"640 512 LINE",
"640 384 LINE",
"640 256 LINE"
);
}
);
width = 1024;
}
);
note = "\012    B\012  ";
unicode = 0042;
},
{
glyphname = C;
lastChange = "2016-07-05 20:04:06 +0000";
layers = (
{
layerId = "9D510E40-B89B-4DEE-9F00-CDF72199B32A";
paths = (
{
closed = 1;
nodes = (
"192 896 LINE",
"128 896 LINE",
"128 832 LINE",
"128 768 LINE",
"64 768 LINE",
"0 768 LINE",
"0 576 LINE",
"0 384 LINE",
"64 384 LINE",
"128 384 LINE",
"128 320 LINE",
"128 256 LINE",
"192 256 LINE",
"256 256 LINE",
"256 192 LINE",
"256 128 LINE",
"512 128 LINE",
"768 128 LINE",
"768 192 LINE",
"768 256 LINE",
"832 256 LINE",
"896 256 LINE",
"896 320 LINE",
"896 384 LINE",
"768 384 LINE",
"640 384 LINE",
"640 320 LINE",
"640 256 LINE",
"512 256 LINE",
"384 256 LINE",
"384 320 LINE",
"384 384 LINE",
"320 384 LINE",
"256 384 LINE",
"256 576 LINE",
"256 768 LINE",
"320 768 LINE",
"384 768 LINE",
"384 832 LINE",
"384 896 LINE",
"512 896 LINE",
"640 896 LINE",
"640 832 LINE",
"640 768 LINE",
"768 768 LINE",
"896 768 LINE",
"896 832 LINE",
"896 896 LINE",
"832 896 LINE",
"768 896 LINE",
"768 960 LINE",
"768 1024 LINE",
"512 1024 LINE",
"256 1024 LINE",
"256 960 LINE",
"256 896 LINE"
);
}
);
width = 1024;
}
);
note = "\012    C\012  ";
unicode = 0043;
},
{
glyphname = D;
lastChange = "2016-07-05 20:04:06 +0000";
layers = (
{
layerId = "9D510E40-B89B-4DEE-9F00-CDF72199B32A";
paths = (
{
closed = 1;
nodes = (
"320 128 LINE",
"640 128 LINE",
"640 192 LINE",
"640 256 LINE",
"704 256 LINE",
"768 256 LINE",
"768 320 LINE",
"768 384 LINE",
"832 384 LINE",
"896 384 LINE",
"896 576 LINE",
"896 768 LINE",
"832 768 LINE",
"768 768 LINE",
"768 832 LINE",
"768 896 LINE",
"704 896 LINE",
"640 896 LINE",
"640 960 LINE",
"640 1024 LINE",
"320 1024 LINE",
"0 1024 LINE",
"0 576 LINE",
"0 128 LINE"
);
},
{
closed = 1;
nodes = (
"576 768 LINE",
"640 768 LINE",
"640 576 LINE",
"640 384 LINE",
"576 384 LINE",
"512 384 LINE",
"512 320 LINE",
"512 256 LINE",
"384 256 LINE",
"256 256 LINE",
"256 576 LINE",
"256 896 LINE",
"384 896 LINE",
"512 896 LINE",
"512 832 LINE",
"512 768 LINE"
);
}
);
width = 1024;
}
);
note = "\012    D\012  ";
unicode = 0044;
},
{
glyphname = E;
lastChange = "2016-07-05 20:04:06 +0000";
layers = (
{
layerId = "9D510E40-B89B-4DEE-9F00-CDF72199B32A";
paths = (
{
closed = 1;
nodes = (
"448 128 LINE",
"896 128 LINE",
"896 192 LINE",
"896 256 LINE",
"576 256 LINE",
"256 256 LINE",
"256 384 LINE",
"256 512 LINE",
"512 512 LINE",
"768 512 LINE",
"768 576 LINE",
"768 640 LINE",
"512 640 LINE",
"256 640 LINE",
"256 768 LINE",
"256 896 LINE",
"576 896 LINE",
"896 896 LINE",
"896 960 LINE",
"896 1024 LINE",
"448 1024 LINE",
"0 1024 LINE",
"0 576 LINE",
"0 128 LINE"
);
}
);
width = 1024;
}
);
note = "\012    E\012  ";
unicode = 0045;
},
{
glyphname = F;
lastChange = "2016-07-05 20:04:06 +0000";
layers = (
{
layerId = "9D510E40-B89B-4DEE-9F00-CDF72199B32A";
paths = (
{
closed = 1;
nodes = (
"128 128 LINE",
"256 128 LINE",
"256 320 LINE",
"256 512 LINE",
"512 512 LINE",
"768 512 LINE",
"768 576 LINE",
"768 640 LINE",
"512 640 LINE",
"256 640 LINE",
"256 768 LINE",
"256 896 LINE",
"576 896 LINE",
"896 896 LINE",
"896 960 LINE",
"896 1024 LINE",
"448 1024 LINE",
"0 1024 LINE",
"0 576 LINE",
"0 128 LINE"
);
}
);
width = 1024;
}
);
note = "\012    F\012  ";
unicode = 0046;
},
{
glyphname = G;
lastChange = "2016-07-05 20:04:06 +0000";
layers = (
{
layerId = "9D510E40-B89B-4DEE-9F00-CDF72199B32A";
paths = (
{
closed = 1;
nodes = (
"192 896 LINE",
"128 896 LINE",
"128 832 LINE",
"128 768 LINE",
"64 768 LINE",
"0 768 LINE",
"0 576 LINE",
"0 384 LINE",
"64 384 LINE",
"128 384 LINE",
"128 320 LINE",
"128 256 LINE",
"192 256 LINE",
"256 256 LINE",
"256 192 LINE",
"256 128 LINE",
"576 128 LINE",
"896 128 LINE",
"896 384 LINE",
"896 640 LINE",
"704 640 LINE",
"512 640 LINE",
"512 576 LINE",
"512 512 LINE",
"576 512 LINE",
"640 512 LINE",
"640 384 LINE",
"640 256 LINE",
"512 256 LINE",
"384 256 LINE",
"384 320 LINE",
"384 384 LINE",
"320 384 LINE",
"256 384 LINE",
"256 576 LINE",
"256 768 LINE",
"320 768 LINE",
"384 768 LINE",
"384 832 LINE",
"384 896 LINE",
"640 896 LINE",
"896 896 LINE",
"896 960 LINE",
"896 1024 LINE",
"576 1024 LINE",
"256 1024 LINE",
"256 960 LINE",
"256 896 LINE"
);
}
);
width = 1024;
}
);
note = "\012    G\012  ";
unicode = 0047;
},
{
glyphname = H;
lastChange = "2016-07-05 20:04:06 +0000";
layers = (
{
layerId = "9D510E40-B89B-4DEE-9F00-CDF72199B32A";
paths = (
{
closed = 1;
nodes = (
"128 128 LINE",
"256 128 LINE",
"256 320 LINE",
"256 512 LINE",
"448 512 LINE",
"640 512 LINE",
"640 320 LINE",
"640 128 LINE",
"768 128 LINE",
"896 128 LINE",
"896 576 LINE",
"896 1024 LINE",
"768 1024 LINE",
"640 1024 LINE",
"640 832 LINE",
"640 640 LINE",
"448 640 LINE",
"256 640 LINE",
"256 832 LINE",
"256 1024 LINE",
"128 1024 LINE",
"0 1024 LINE",
"0 576 LINE",
"0 128 LINE"
);
}
);
width = 1024;
}
);
note = "\012    H\012  ";
unicode = 0048;
},
{
glyphname = I;
lastChange = "2016-07-05 20:04:06 +0000";
layers = (
{
layerId = "9D510E40-B89B-4DEE-9F00-CDF72199B32A";
paths = (
{
closed = 1;
nodes = (
"256 896 LINE",
"384 896 LINE",
"384 576 LINE",
"384 256 LINE",
"256 256 LINE",
"128 256 LINE",
"128 192 LINE",
"128 128 LINE",
"512 128 LINE",
"896 128 LINE",
"896 192 LINE",
"896 256 LINE",
"768 256 LINE",
"640 256 LINE",
"640 576 LINE",
"640 896 LINE",
"768 896 LINE",
"896 896 LINE",
"896 960 LINE",
"896 1024 LINE",
"512 1024 LINE",
"128 1024 LINE",
"128 960 LINE",
"128 896 LINE"
);
}
);
width = 1024;
}
);
note = "\012    I\012  ";
unicode = 0049;
},
{
glyphname = J;
lastChange = "2016-07-05 20:04:06 +0000";
layers = (
{
layerId = "9D510E40-B89B-4DEE-9F00-CDF72199B32A";
paths = (
{
closed = 1;
nodes = (
"448 256 LINE",
"256 256 LINE",
"256 320 LINE",
"256 384 LINE",
"128 384 LINE",
"0 384 LINE",
"0 320 LINE",
"0 256 LINE",
"64 256 LINE",
"128 256 LINE",
"128 192 LINE",
"128 128 LINE",
"448 128 LINE",
"768 128 LINE",
"768 192 LINE",
"768 256 LINE",
"832 256 LINE",
"896 256 LINE",
"896 640 LINE",
"896 1024 LINE",
"768 1024 LINE",
"640 1024 LINE",
"640 640 LINE",
"640 256 LINE"
);
}
);
width = 1024;
}
);
note = "\012    J\012  ";
unicode = 004A;
},
{
glyphname = K;
lastChange = "2016-07-05 20:04:06 +0000";
layers = (
{
layerId = "9D510E40-B89B-4DEE-9F00-CDF72199B32A";
paths = (
{
closed = 1;
nodes = (
"128 128 LINE",
"256 128 LINE",
"256 256 LINE",
"256 384 LINE",
"320 384 LINE",
"384 384 LINE",
"384 320 LINE",
"384 256 LINE",
"448 256 LINE",
"512 256 LINE",
"512 192 LINE",
"512 128 LINE",
"704 128 LINE",
"896 128 LINE",
"896 192 LINE",
"896 256 LINE",
"832 256 LINE",
"768 256 LINE",
"768 320 LINE",
"768 384 LINE",
"704 384 LINE",
"640 384 LINE",
"640 448 LINE",
"640 512 LINE",
"576 512 LINE",
"512 512 LINE",
"512 576 LINE",
"512 640 LINE",
"576 640 LINE",
"640 640 LINE",
"640 704 LINE",
"640 768 LINE",
"704 768 LINE",
"768 768 LINE",
"768 832 LINE",
"768 896 LINE",
"832 896 LINE",
"896 896 LINE",
"896 960 LINE",
"896 1024 LINE",
"768 1024 LINE",
"640 1024 LINE",
"640 960 LINE",
"640 896 LINE",
"576 896 LINE",
"512 896 LINE",
"512 832 LINE",
"512 768 LINE",
"448 768 LINE",
"384 768 LINE",
"384 704 LINE",
"384 640 LINE",
"320 640 LINE",
"256 640 LINE",
"256 832 LINE",
"256 1024 LINE",
"128 1024 LINE",
"0 1024 LINE",
"0 576 LINE",
"0 128 LINE"
);
}
);
width = 1024;
}
);
note = "\012    K\012  ";
unicode = 004B;
},
{
glyphname = L;
lastChange = "2016-07-05 20:04:06 +0000";
layers = (
{
layerId = "9D510E40-B89B-4DEE-9F00-CDF72199B32A";
paths = (
{
closed = 1;
nodes = (
"512 128 LINE",
"896 128 LINE",
"896 192 LINE",
"896 256 LINE",
"640 256 LINE",
"384 256 LINE",
"384 640 LINE",
"384 1024 LINE",
"256 1024 LINE",
"128 1024 LINE",
"128 576 LINE",
"128 128 LINE"
);
}
);
width = 1024;
}
);
note = "\012    L\012  ";
unicode = 004C;
},
{
glyphname = M;
lastChange = "2016-07-05 20:04:06 +0000";
layers = (
{
layerId = "9D510E40-B89B-4DEE-9F00-CDF72199B32A";
paths = (
{
closed = 1;
nodes = (
"128 128 LINE",
"256 128 LINE",
"256 320 LINE",
"256 512 LINE",
"320 512 LINE",
"384 512 LINE",
"384 448 LINE",
"384 384 LINE",
"448 384 LINE",
"512 384 LINE",
"512 448 LINE",
"512 512 LINE",
"576 512 LINE",
"640 512 LINE",
"640 320 LINE",
"640 128 LINE",
"768 128 LINE",
"896 128 LINE",
"896 576 LINE",
"896 1024 LINE",
"768 1024 LINE",
"640 1024 LINE",
"640 960 LINE",
"640 896 LINE",
"576 896 LINE",
"512 896 LINE",
"512 832 LINE",
"512 768 LINE",
"448 768 LINE",
"384 768 LINE",
"384 832 LINE",
"384 896 LINE",
"320 896 LINE",
"256 896 LINE",
"256 960 LINE",
"256 1024 LINE",
"128 1024 LINE",
"0 1024 LINE",
"0 576 LINE",
"0 128 LINE"
);
}
);
width = 1024;
}
);
note = "\012    M\012  ";
unicode = 004D;
},
{
glyphname = N;
lastChange = "2016-07-05 20:04:06 +0000";
layers = (
{
layerId = "9D510E40-B89B-4DEE-9F00-CDF72199B32A";
paths = (
{
closed = 1;
nodes = (
"128 128 LINE",
"256 128 LINE",
"256 320 LINE",
"256 512 LINE",
"320 512 LINE",
"384 512 LINE",
"384 448 LINE",
"384 384 LINE",
"448 384 LINE",
"512 384 LINE",
"512 320 LINE",
"512 256 LINE",
"576 256 LINE",
"640 256 LINE",
"640 192 LINE",
"640 128 LINE",
"768 128 LINE",
"896 128 LINE",
"896 576 LINE",
"896 1024 LINE",
"768 1024 LINE",
"640 1024 LINE",
"640 832 LINE",
"640 640 LINE",
"576 640 LINE",
"512 640 LINE",
"512 704 LINE",
"512 768 LINE",
"448 768 LINE",
"384 768 LINE",
"384 832 LINE",
"384 896 LINE",
"320 896 LINE",
"256 896 LINE",
"256 960 LINE",
"256 1024 LINE",
"128 1024 LINE",
"0 1024 LINE",
"0 576 LINE",
"0 128 LINE"
);
}
);
width = 1024;
}
);
note = "\012    N\012  ";
unicode = 004E;
},
{
glyphname = O;
lastChange = "2016-07-05 20:04:06 +0000";
layers = (
{
layerId = "9D510E40-B89B-4DEE-9F00-CDF72199B32A";
paths = (
{
closed = 1;
nodes = (
"64 896 LINE",
"0 896 LINE",
"0 576 LINE",
"0 256 LINE",
"64 256 LINE",
"128 256 LINE",
"128 192 LINE",
"128 128 LINE",
"448 128 LINE",
"768 128 LINE",
"768 192 LINE",
"768 256 LINE",
"832 256 LINE",
"896 256 LINE",
"896 576 LINE",
"896 896 LINE",
"832 896 LINE",
"768 896 LINE",
"768 960 LINE",
"768 1024 LINE",
"448 1024 LINE",
"128 1024 LINE",
"128 960 LINE",
"128 896 LINE"
);
},
{
closed = 1;
nodes = (
"448 256 LINE",
"256 256 LINE",
"256 576 LINE",
"256 896 LINE",
"448 896 LINE",
"640 896 LINE",
"640 576 LINE",
"640 256 LINE"
);
}
);
width = 1024;
}
);
note = "\012    O\012  ";
unicode = 004F;
},
{
glyphname = P;
lastChange = "2016-07-05 20:04:06 +0000";
layers = (
{
layerId = "9D510E40-B89B-4DEE-9F00-CDF72199B32A";
paths = (
{
closed = 1;
nodes = (
"128 128 LINE",
"256 128 LINE",
"256 256 LINE",
"256 384 LINE",
"512 384 LINE",
"768 384 LINE",
"768 448 LINE",
"768 512 LINE",
"832 512 LINE",
"896 512 LINE",
"896 704 LINE",
"896 896 LINE",
"832 896 LINE",
"768 896 LINE",
"768 960 LINE",
"768 1024 LINE",
"384 1024 LINE",
"0 1024 LINE",
"0 576 LINE",
"0 128 LINE"
);
},
{
closed = 1;
nodes = (
"448 512 LINE",
"256 512 LINE",
"256 704 LINE",
"256 896 LINE",
"448 896 LINE",
"640 896 LINE",
"640 704 LINE",
"640 512 LINE"
);
}
);
width = 1024;
}
);
note = "\012    P\012  ";
unicode = 0050;
},
{
glyphname = Q;
lastChange = "2016-07-05 20:04:06 +0000";
layers = (
{
layerId = "9D510E40-B89B-4DEE-9F00-CDF72199B32A";
paths = (
{
closed = 1;
nodes = (
"64 896 LINE",
"0 896 LINE",
"0 576 LINE",
"0 256 LINE",
"64 256 LINE",
"128 256 LINE",
"128 192 LINE",
"128 128 LINE",
"384 128 LINE",
"640 128 LINE",
"640 192 LINE",
"640 256 LINE",
"704 256 LINE",
"768 256 LINE",
"768 192 LINE",
"768 128 LINE",
"832 128 LINE",
"896 128 LINE",
"896 192 LINE",
"896 256 LINE",
"832 256 LINE",
"768 256 LINE",
"768 320 LINE",
"768 384 LINE",
"832 384 LINE",
"896 384 LINE",
"896 640 LINE",
"896 896 LINE",
"832 896 LINE",
"768 896 LINE",
"768 960 LINE",
"768 1024 LINE",
"448 1024 LINE",
"128 1024 LINE",
"128 960 LINE",
"128 896 LINE"
);
},
{
closed = 1;
nodes = (
"512 512 LINE",
"384 512 LINE",
"384 448 LINE",
"384 384 LINE",
"448 384 LINE",
"512 384 LINE",
"512 320 LINE",
"512 256 LINE",
"384 256 LINE",
"256 256 LINE",
"256 576 LINE",
"256 896 LINE",
"448 896 LINE",
"640 896 LINE",
"640 704 LINE",
"640 512 LINE"
);
}
);
width = 1024;
}
);
note = "\012    Q\012  ";
unicode = 0051;
},
{
glyphname = R;
lastChange = "2016-07-05 20:04:06 +0000";
layers = (
{
layerId = "9D510E40-B89B-4DEE-9F00-CDF72199B32A";
paths = (
{
closed = 1;
nodes = (
"128 128 LINE",
"256 128 LINE",
"256 256 LINE",
"256 384 LINE",
"320 384 LINE",
"384 384 LINE",
"384 320 LINE",
"384 256 LINE",
"448 256 LINE",
"512 256 LINE",
"512 192 LINE",
"512 128 LINE",
"704 128 LINE",
"896 128 LINE",
"896 192 LINE",
"896 256 LINE",
"832 256 LINE",
"768 256 LINE",
"768 320 LINE",
"768 384 LINE",
"704 384 LINE",
"640 384 LINE",
"640 448 LINE",
"640 512 LINE",
"768 512 LINE",
"896 512 LINE",
"896 704 LINE",
"896 896 LINE",
"832 896 LINE",
"768 896 LINE",
"768 960 LINE",
"768 1024 LINE",
"384 1024 LINE",
"0 1024 LINE",
"0 576 LINE",
"0 128 LINE"
);
},
{
closed = 1;
nodes = (
"576 640 LINE",
"512 640 LINE",
"512 576 LINE",
"512 512 LINE",
"384 512 LINE",
"256 512 LINE",
"256 704 LINE",
"256 896 LINE",
"448 896 LINE",
"640 896 LINE",
"640 768 LINE",
"640 640 LINE"
);
}
);
width = 1024;
}
);
note = "\012    R\012  ";
unicode = 0052;
},
{
glyphname = S;
lastChange = "2016-07-05 20:04:06 +0000";
layers = (
{
layerId = "9D510E40-B89B-4DEE-9F00-CDF72199B32A";
paths = (
{
closed = 1;
nodes = (
"64 896 LINE",
"0 896 LINE",
"0 768 LINE",
"0 640 LINE",
"64 640 LINE",
"128 640 LINE",
"128 576 LINE",
"128 512 LINE",
"384 512 LINE",
"640 512 LINE",
"640 384 LINE",
"640 256 LINE",
"448 256 LINE",
"256 256 LINE",
"256 320 LINE",
"256 384 LINE",
"128 384 LINE",
"0 384 LINE",
"0 320 LINE",
"0 256 LINE",
"64 256 LINE",
"128 256 LINE",
"128 192 LINE",
"128 128 LINE",
"448 128 LINE",
"768 128 LINE",
"768 192 LINE",
"768 256 LINE",
"832 256 LINE",
"896 256 LINE",
"896 384 LINE",
"896 512 LINE",
"832 512 LINE",
"768 512 LINE",
"768 576 LINE",
"768 640 LINE",
"512 640 LINE",
"256 640 LINE",
"256 768 LINE",
"256 896 LINE",
"384 896 LINE",
"512 896 LINE",
"512 832 LINE",
"512 768 LINE",
"640 768 LINE",
"768 768 LINE",
"768 832 LINE",
"768 896 LINE",
"704 896 LINE",
"640 896 LINE",
"640 960 LINE",
"640 1024 LINE",
"384 1024 LINE",
"128 1024 LINE",
"128 960 LINE",
"128 896 LINE"
);
}
);
width = 1024;
}
);
note = "\012    S\012  ";
unicode = 0053;
},
{
glyphname = T;
lastChange = "2016-07-05 20:04:06 +0000";
layers = (
{
layerId = "9D510E40-B89B-4DEE-9F00-CDF72199B32A";
paths = (
{
closed = 1;
nodes = (
"256 896 LINE",
"384 896 LINE",
"384 512 LINE",
"384 128 LINE",
"512 128 LINE",
"640 128 LINE",
"640 512 LINE",
"640 896 LINE",
"768 896 LINE",
"896 896 LINE",
"896 960 LINE",
"896 1024 LINE",
"512 1024 LINE",
"128 1024 LINE",
"128 960 LINE",
"128 896 LINE"
);
}
);
width = 1024;
}
);
note = "\012    T\012  ";
unicode = 0054;
},
{
glyphname = U;
lastChange = "2016-07-05 20:04:06 +0000";
layers = (
{
layerId = "9D510E40-B89B-4DEE-9F00-CDF72199B32A";
paths = (
{
closed = 1;
nodes = (
"64 256 LINE",
"128 256 LINE",
"128 192 LINE",
"128 128 LINE",
"448 128 LINE",
"768 128 LINE",
"768 192 LINE",
"768 256 LINE",
"832 256 LINE",
"896 256 LINE",
"896 640 LINE",
"896 1024 LINE",
"768 1024 LINE",
"640 1024 LINE",
"640 640 LINE",
"640 256 LINE",
"448 256 LINE",
"256 256 LINE",
"256 640 LINE",
"256 1024 LINE",
"128 1024 LINE",
"0 1024 LINE",
"0 640 LINE",
"0 256 LINE"
);
}
);
width = 1024;
}
);
note = "\012    U\012  ";
unicode = 0055;
},
{
glyphname = V;
lastChange = "2016-07-05 20:04:06 +0000";
layers = (
{
layerId = "9D510E40-B89B-4DEE-9F00-CDF72199B32A";
paths = (
{
closed = 1;
nodes = (
"64 512 LINE",
"128 512 LINE",
"128 448 LINE",
"128 384 LINE",
"192 384 LINE",
"256 384 LINE",
"256 320 LINE",
"256 256 LINE",
"320 256 LINE",
"384 256 LINE",
"384 192 LINE",
"384 128 LINE",
"448 128 LINE",
"512 128 LINE",
"512 192 LINE",
"512 256 LINE",
"576 256 LINE",
"640 256 LINE",
"640 320 LINE",
"640 384 LINE",
"704 384 LINE",
"768 384 LINE",
"768 448 LINE",
"768 512 LINE",
"832 512 LINE",
"896 512 LINE",
"896 768 LINE",
"896 1024 LINE",
"768 1024 LINE",
"640 1024 LINE",
"640 832 LINE",
"640 640 LINE",
"576 640 LINE",
"512 640 LINE",
"512 576 LINE",
"512 512 LINE",
"448 512 LINE",
"384 512 LINE",
"384 576 LINE",
"384 640 LINE",
"320 640 LINE",
"256 640 LINE",
"256 832 LINE",
"256 1024 LINE",
"128 1024 LINE",
"0 1024 LINE",
"0 768 LINE",
"0 512 LINE"
);
}
);
width = 1024;
}
);
note = "\012    V\012  ";
unicode = 0056;
},
{
glyphname = W;
lastChange = "2016-07-05 20:04:06 +0000";
layers = (
{
layerId = "9D510E40-B89B-4DEE-9F00-CDF72199B32A";
paths = (
{
closed = 1;
nodes = (
"128 128 LINE",
"256 128 LINE",
"256 192 LINE",
"256 256 LINE",
"320 256 LINE",
"384 256 LINE",
"384 320 LINE",
"384 384 LINE",
"448 384 LINE",
"512 384 LINE",
"512 320 LINE",
"512 256 LINE",
"576 256 LINE",
"640 256 LINE",
"640 192 LINE",
"640 128 LINE",
"768 128 LINE",
"896 128 LINE",
"896 576 LINE",
"896 1024 LINE",
"768 1024 LINE",
"640 1024 LINE",
"640 832 LINE",
"640 640 LINE",
"576 640 LINE",
"512 640 LINE",
"512 704 LINE",
"512 768 LINE",
"448 768 LINE",
"384 768 LINE",
"384 704 LINE",
"384 640 LINE",
"320 640 LINE",
"256 640 LINE",
"256 832 LINE",
"256 1024 LINE",
"128 1024 LINE",
"0 1024 LINE",
"0 576 LINE",
"0 128 LINE"
);
}
);
width = 1024;
}
);
note = "\012    W\012  ";
unicode = 0057;
},
{
glyphname = X;
lastChange = "2016-07-05 20:04:06 +0000";
layers = (
{
layerId = "9D510E40-B89B-4DEE-9F00-CDF72199B32A";
paths = (
{
closed = 1;
nodes = (
"64 768 LINE",
"128 768 LINE",
"128 704 LINE",
"128 640 LINE",
"192 640 LINE",
"256 640 LINE",
"256 576 LINE",
"256 512 LINE",
"192 512 LINE",
"128 512 LINE",
"128 448 LINE",
"128 384 LINE",
"64 384 LINE",
"0 384 LINE",
"0 256 LINE",
"0 128 LINE",
"128 128 LINE",
"256 128 LINE",
"256 192 LINE",
"256 256 LINE",
"320 256 LINE",
"384 256 LINE",
"384 320 LINE",
"384 384 LINE",
"448 384 LINE",
"512 384 LINE",
"512 320 LINE",
"512 256 LINE",
"576 256 LINE",
"640 256 LINE",
"640 192 LINE",
"640 128 LINE",
"768 128 LINE",
"896 128 LINE",
"896 256 LINE",
"896 384 LINE",
"832 384 LINE",
"768 384 LINE",
"768 448 LINE",
"768 512 LINE",
"704 512 LINE",
"640 512 LINE",
"640 576 LINE",
"640 640 LINE",
"704 640 LINE",
"768 640 LINE",
"768 704 LINE",
"768 768 LINE",
"832 768 LINE",
"896 768 LINE",
"896 896 LINE",
"896 1024 LINE",
"768 1024 LINE",
"640 1024 LINE",
"640 960 LINE",
"640 896 LINE",
"576 896 LINE",
"512 896 LINE",
"512 832 LINE",
"512 768 LINE",
"448 768 LINE",
"384 768 LINE",
"384 832 LINE",
"384 896 LINE",
"320 896 LINE",
"256 896 LINE",
"256 960 LINE",
"256 1024 LINE",
"128 1024 LINE",
"0 1024 LINE",
"0 896 LINE",
"0 768 LINE"
);
}
);
width = 1024;
}
);
note = "\012    X\012  ";
unicode = 0058;
},
{
glyphname = Y;
lastChange = "2016-07-05 20:04:06 +0000";
layers = (
{
layerId = "9D510E40-B89B-4DEE-9F00-CDF72199B32A";
paths = (
{
closed = 1;
nodes = (
"192 640 LINE",
"256 640 LINE",
"256 576 LINE",
"256 512 LINE",
"320 512 LINE",
"384 512 LINE",
"384 320 LINE",
"384 128 LINE",
"512 128 LINE",
"640 128 LINE",
"640 320 LINE",
"640 512 LINE",
"704 512 LINE",
"768 512 LINE",
"768 576 LINE",
"768 640 LINE",
"832 640 LINE",
"896 640 LINE",
"896 832 LINE",
"896 1024 LINE",
"768 1024 LINE",
"640 1024 LINE",
"640 832 LINE",
"640 640 LINE",
"512 640 LINE",
"384 640 LINE",
"384 832 LINE",
"384 1024 LINE",
"256 1024 LINE",
"128 1024 LINE",
"128 832 LINE",
"128 640 LINE"
);
}
);
width = 1024;
}
);
note = "\012    Y\012  ";
unicode = 0059;
},
{
glyphname = Z;
lastChange = "2016-07-05 20:04:06 +0000";
layers = (
{
layerId = "9D510E40-B89B-4DEE-9F00-CDF72199B32A";
paths = (
{
closed = 1;
nodes = (
"256 896 LINE",
"512 896 LINE",
"512 832 LINE",
"512 768 LINE",
"448 768 LINE",
"384 768 LINE",
"384 704 LINE",
"384 640 LINE",
"320 640 LINE",
"256 640 LINE",
"256 576 LINE",
"256 512 LINE",
"192 512 LINE",
"128 512 LINE",
"128 448 LINE",
"128 384 LINE",
"64 384 LINE",
"0 384 LINE",
"0 256 LINE",
"0 128 LINE",
"448 128 LINE",
"896 128 LINE",
"896 192 LINE",
"896 256 LINE",
"640 256 LINE",
"384 256 LINE",
"384 320 LINE",
"384 384 LINE",
"448 384 LINE",
"512 384 LINE",
"512 448 LINE",
"512 512 LINE",
"576 512 LINE",
"640 512 LINE",
"640 576 LINE",
"640 640 LINE",
"704 640 LINE",
"768 640 LINE",
"768 704 LINE",
"768 768 LINE",
"832 768 LINE",
"896 768 LINE",
"896 896 LINE",
"896 1024 LINE",
"448 1024 LINE",
"0 1024 LINE",
"0 960 LINE",
"0 896 LINE"
);
}
);
width = 1024;
}
);
note = "\012    Z\012  ";
unicode = 005A;
},
{
glyphname = bracketleft;
lastChange = "2016-07-05 20:04:06 +0000";
layers = (
{
layerId = "9D510E40-B89B-4DEE-9F00-CDF72199B32A";
paths = (
{
closed = 1;
nodes = (
"512 128 LINE",
"768 128 LINE",
"768 192 LINE",
"768 256 LINE",
"640 256 LINE",
"512 256 LINE",
"512 576 LINE",
"512 896 LINE",
"640 896 LINE",
"768 896 LINE",
"768 960 LINE",
"768 1024 LINE",
"512 1024 LINE",
"256 1024 LINE",
"256 576 LINE",
"256 128 LINE"
);
}
);
width = 1024;
}
);
note = "\012    bracketleft\012  ";
unicode = 005B;
},
{
glyphname = backslash;
lastChange = "2016-07-05 20:04:06 +0000";
layers = (
{
layerId = "9D510E40-B89B-4DEE-9F00-CDF72199B32A";
paths = (
{
closed = 1;
nodes = (
"64 896 LINE",
"128 896 LINE",
"128 832 LINE",
"128 768 LINE",
"192 768 LINE",
"256 768 LINE",
"256 704 LINE",
"256 640 LINE",
"320 640 LINE",
"384 640 LINE",
"384 576 LINE",
"384 512 LINE",
"448 512 LINE",
"512 512 LINE",
"512 448 LINE",
"512 384 LINE",
"576 384 LINE",
"640 384 LINE",
"640 320 LINE",
"640 256 LINE",
"704 256 LINE",
"768 256 LINE",
"768 192 LINE",
"768 128 LINE",
"832 128 LINE",
"896 128 LINE",
"896 192 LINE",
"896 256 LINE",
"832 256 LINE",
"768 256 LINE",
"768 320 LINE",
"768 384 LINE",
"704 384 LINE",
"640 384 LINE",
"640 448 LINE",
"640 512 LINE",
"576 512 LINE",
"512 512 LINE",
"512 576 LINE",
"512 640 LINE",
"448 640 LINE",
"384 640 LINE",
"384 704 LINE",
"384 768 LINE",
"320 768 LINE",
"256 768 LINE",
"256 832 LINE",
"256 896 LINE",
"192 896 LINE",
"128 896 LINE",
"128 960 LINE",
"128 1024 LINE",
"64 1024 LINE",
"0 1024 LINE",
"0 960 LINE",
"0 896 LINE"
);
}
);
width = 1024;
}
);
note = "\012    backslash\012  ";
unicode = 005C;
},
{
glyphname = bracketright;
lastChange = "2016-07-05 20:04:06 +0000";
layers = (
{
layerId = "9D510E40-B89B-4DEE-9F00-CDF72199B32A";
paths = (
{
closed = 1;
nodes = (
"256 896 LINE",
"384 896 LINE",
"384 576 LINE",
"384 256 LINE",
"256 256 LINE",
"128 256 LINE",
"128 192 LINE",
"128 128 LINE",
"384 128 LINE",
"640 128 LINE",
"640 576 LINE",
"640 1024 LINE",
"384 1024 LINE",
"128 1024 LINE",
"128 960 LINE",
"128 896 LINE"
);
}
);
width = 1024;
}
);
note = "\012    bracketright\012  ";
unicode = 005D;
},
{
glyphname = asciicircum;
lastChange = "2016-07-05 20:04:06 +0000";
layers = (
{
layerId = "9D510E40-B89B-4DEE-9F00-CDF72199B32A";
paths = (
{
closed = 1;
nodes = (
"192 896 LINE",
"128 896 LINE",
"128 832 LINE",
"128 768 LINE",
"256 768 LINE",
"384 768 LINE",
"384 832 LINE",
"384 896 LINE",
"448 896 LINE",
"512 896 LINE",
"512 832 LINE",
"512 768 LINE",
"640 768 LINE",
"768 768 LINE",
"768 832 LINE",
"768 896 LINE",
"704 896 LINE",
"640 896 LINE",
"640 960 LINE",
"640 1024 LINE",
"448 1024 LINE",
"256 1024 LINE",
"256 960 LINE",
"256 896 LINE"
);
}
);
width = 1024;
}
);
note = "\012    asciicircum\012  ";
unicode = 005E;
},
{
glyphname = underscore;
lastChange = "2016-07-05 20:04:06 +0000";
layers = (
{
layerId = "9D510E40-B89B-4DEE-9F00-CDF72199B32A";
paths = (
{
closed = 1;
nodes = (
"448 0 LINE",
"896 0 LINE",
"896 64 LINE",
"896 128 LINE",
"448 128 LINE",
"0 128 LINE",
"0 64 LINE",
"0 0 LINE"
);
}
);
width = 1024;
}
);
note = "\012    underscore\012  ";
unicode = 005F;
},
{
glyphname = grave;
lastChange = "2016-07-05 20:04:06 +0000";
layers = (
{
layerId = "9D510E40-B89B-4DEE-9F00-CDF72199B32A";
paths = (
{
closed = 1;
nodes = (
"448 896 LINE",
"512 896 LINE",
"512 832 LINE",
"512 768 LINE",
"576 768 LINE",
"640 768 LINE",
"640 832 LINE",
"640 896 LINE",
"576 896 LINE",
"512 896 LINE",
"512 960 LINE",
"512 1024 LINE",
"448 1024 LINE",
"384 1024 LINE",
"384 960 LINE",
"384 896 LINE"
);
}
);
width = 1024;
}
);
note = "\012    grave\012  ";
unicode = 0060;
},
{
glyphname = a;
lastChange = "2016-07-05 20:04:06 +0000";
layers = (
{
layerId = "9D510E40-B89B-4DEE-9F00-CDF72199B32A";
paths = (
{
closed = 1;
nodes = (
"384 640 LINE",
"640 640 LINE",
"640 576 LINE",
"640 512 LINE",
"384 512 LINE",
"128 512 LINE",
"128 448 LINE",
"128 384 LINE",
"64 384 LINE",
"0 384 LINE",
"0 320 LINE",
"0 256 LINE",
"64 256 LINE",
"128 256 LINE",
"128 192 LINE",
"128 128 LINE",
"512 128 LINE",
"896 128 LINE",
"896 384 LINE",
"896 640 LINE",
"832 640 LINE",
"768 640 LINE",
"768 704 LINE",
"768 768 LINE",
"448 768 LINE",
"128 768 LINE",
"128 704 LINE",
"128 640 LINE"
);
},
{
closed = 1;
nodes = (
"448 256 LINE",
"256 256 LINE",
"256 320 LINE",
"256 384 LINE",
"448 384 LINE",
"640 384 LINE",
"640 320 LINE",
"640 256 LINE"
);
}
);
width = 1024;
}
);
note = "\012    a\012  ";
unicode = 0061;
},
{
glyphname = b;
lastChange = "2016-07-05 20:04:06 +0000";
layers = (
{
layerId = "9D510E40-B89B-4DEE-9F00-CDF72199B32A";
paths = (
{
closed = 1;
nodes = (
"64 256 LINE",
"128 256 LINE",
"128 192 LINE",
"128 128 LINE",
"448 128 LINE",
"768 128 LINE",
"768 192 LINE",
"768 256 LINE",
"832 256 LINE",
"896 256 LINE",
"896 448 LINE",
"896 640 LINE",
"832 640 LINE",
"768 640 LINE",
"768 704 LINE",
"768 768 LINE",
"512 768 LINE",
"256 768 LINE",
"256 896 LINE",
"256 1024 LINE",
"128 1024 LINE",
"0 1024 LINE",
"0 640 LINE",
"0 256 LINE"
);
},
{
closed = 1;
nodes = (
"448 256 LINE",
"256 256 LINE",
"256 448 LINE",
"256 640 LINE",
"448 640 LINE",
"640 640 LINE",
"640 448 LINE",
"640 256 LINE"
);
}
);
width = 1024;
}
);
note = "\012    b\012  ";
unicode = 0062;
},
{
glyphname = c;
lastChange = "2016-07-05 20:04:06 +0000";
layers = (
{
layerId = "9D510E40-B89B-4DEE-9F00-CDF72199B32A";
paths = (
{
closed = 1;
nodes = (
"64 640 LINE",
"0 640 LINE",
"0 448 LINE",
"0 256 LINE",
"64 256 LINE",
"128 256 LINE",
"128 192 LINE",
"128 128 LINE",
"512 128 LINE",
"896 128 LINE",
"896 192 LINE",
"896 256 LINE",
"576 256 LINE",
"256 256 LINE",
"256 448 LINE",
"256 640 LINE",
"576 640 LINE",
"896 640 LINE",
"896 704 LINE",
"896 768 LINE",
"512 768 LINE",
"128 768 LINE",
"128 704 LINE",
"128 640 LINE"
);
}
);
width = 1024;
}
);
note = "\012    c\012  ";
unicode = 0063;
},
{
glyphname = d;
lastChange = "2016-07-05 20:04:06 +0000";
layers = (
{
layerId = "9D510E40-B89B-4DEE-9F00-CDF72199B32A";
paths = (
{
closed = 1;
nodes = (
"384 768 LINE",
"128 768 LINE",
"128 704 LINE",
"128 640 LINE",
"64 640 LINE",
"0 640 LINE",
"0 448 LINE",
"0 256 LINE",
"64 256 LINE",
"128 256 LINE",
"128 192 LINE",
"128 128 LINE",
"512 128 LINE",
"896 128 LINE",
"896 576 LINE",
"896 1024 LINE",
"768 1024 LINE",
"640 1024 LINE",
"640 896 LINE",
"640 768 LINE"
);
},
{
closed = 1;
nodes = (
"448 256 LINE",
"256 256 LINE",
"256 448 LINE",
"256 640 LINE",
"448 640 LINE",
"640 640 LINE",
"640 448 LINE",
"640 256 LINE"
);
}
);
width = 1024;
}
);
note = "\012    d\012  ";
unicode = 0064;
},
{
glyphname = e;
lastChange = "2016-07-05 20:04:06 +0000";
layers = (
{
layerId = "9D510E40-B89B-4DEE-9F00-CDF72199B32A";
paths = (
{
closed = 1;
nodes = (
"64 640 LINE",
"0 640 LINE",
"0 448 LINE",
"0 256 LINE",
"64 256 LINE",
"128 256 LINE",
"128 192 LINE",
"128 128 LINE",
"448 128 LINE",
"768 128 LINE",
"768 192 LINE",
"768 256 LINE",
"512 256 LINE",
"256 256 LINE",
"256 320 LINE",
"256 384 LINE",
"576 384 LINE",
"896 384 LINE",
"896 512 LINE",
"896 640 LINE",
"832 640 LINE",
"768 640 LINE",
"768 704 LINE",
"768 768 LINE",
"448 768 LINE",
"128 768 LINE",
"128 704 LINE",
"128 640 LINE"
);
},
{
closed = 1;
nodes = (
"448 512 LINE",
"256 512 LINE",
"256 576 LINE",
"256 640 LINE",
"448 640 LINE",
"640 640 LINE",
"640 576 LINE",
"640 512 LINE"
);
}
);
width = 1024;
}
);
note = "\012    e\012  ";
unicode = 0065;
},
{
glyphname = f;
lastChange = "2016-07-05 20:04:06 +0000";
layers = (
{
layerId = "9D510E40-B89B-4DEE-9F00-CDF72199B32A";
paths = (
{
closed = 1;
nodes = (
"448 896 LINE",
"384 896 LINE",
"384 832 LINE",
"384 768 LINE",
"256 768 LINE",
"128 768 LINE",
"128 704 LINE",
"128 640 LINE",
"256 640 LINE",
"384 640 LINE",
"384 384 LINE",
"384 128 LINE",
"512 128 LINE",
"640 128 LINE",
"640 384 LINE",
"640 640 LINE",
"768 640 LINE",
"896 640 LINE",
"896 704 LINE",
"896 768 LINE",
"768 768 LINE",
"640 768 LINE",
"640 832 LINE",
"640 896 LINE",
"768 896 LINE",
"896 896 LINE",
"896 960 LINE",
"896 1024 LINE",
"704 1024 LINE",
"512 1024 LINE",
"512 960 LINE",
"512 896 LINE"
);
}
);
width = 1024;
}
);
note = "\012    f\012  ";
unicode = 0066;
},
{
glyphname = g;
lastChange = "2016-07-05 20:04:06 +0000";
layers = (
{
layerId = "9D510E40-B89B-4DEE-9F00-CDF72199B32A";
paths = (
{
closed = 1;
nodes = (
"64 640 LINE",
"0 640 LINE",
"0 512 LINE",
"0 384 LINE",
"64 384 LINE",
"128 384 LINE",
"128 320 LINE",
"128 256 LINE",
"384 256 LINE",
"640 256 LINE",
"640 192 LINE",
"640 128 LINE",
"384 128 LINE",
"128 128 LINE",
"128 64 LINE",
"128 0 LINE",
"448 0 LINE",
"768 0 LINE",
"768 64 LINE",
"768 128 LINE",
"832 128 LINE",
"896 128 LINE",
"896 448 LINE",
"896 768 LINE",
"512 768 LINE",
"128 768 LINE",
"128 704 LINE",
"128 640 LINE"
);
},
{
closed = 1;
nodes = (
"448 384 LINE",
"256 384 LINE",
"256 512 LINE",
"256 640 LINE",
"448 640 LINE",
"640 640 LINE",
"640 512 LINE",
"640 384 LINE"
);
}
);
width = 1024;
}
);
note = "\012    g\012  ";
unicode = 0067;
},
{
glyphname = h;
lastChange = "2016-07-05 20:04:06 +0000";
layers = (
{
layerId = "9D510E40-B89B-4DEE-9F00-CDF72199B32A";
paths = (
{
closed = 1;
nodes = (
"128 128 LINE",
"256 128 LINE",
"256 384 LINE",
"256 640 LINE",
"448 640 LINE",
"640 640 LINE",
"640 384 LINE",
"640 128 LINE",
"768 128 LINE",
"896 128 LINE",
"896 384 LINE",
"896 640 LINE",
"832 640 LINE",
"768 640 LINE",
"768 704 LINE",
"768 768 LINE",
"512 768 LINE",
"256 768 LINE",
"256 896 LINE",
"256 1024 LINE",
"128 1024 LINE",
"0 1024 LINE",
"0 576 LINE",
"0 128 LINE"
);
}
);
width = 1024;
}
);
note = "\012    h\012  ";
unicode = 0068;
},
{
glyphname = i;
lastChange = "2016-07-05 20:04:06 +0000";
layers = (
{
layerId = "9D510E40-B89B-4DEE-9F00-CDF72199B32A";
paths = (
{
closed = 1;
nodes = (
"320 640 LINE",
"384 640 LINE",
"384 448 LINE",
"384 256 LINE",
"256 256 LINE",
"128 256 LINE",
"128 192 LINE",
"128 128 LINE",
"512 128 LINE",
"896 128 LINE",
"896 192 LINE",
"896 256 LINE",
"768 256 LINE",
"640 256 LINE",
"640 512 LINE",
"640 768 LINE",
"448 768 LINE",
"256 768 LINE",
"256 704 LINE",
"256 640 LINE"
);
},
{
closed = 1;
nodes = (
"512 896 LINE",
"640 896 LINE",
"640 960 LINE",
"640 1024 LINE",
"512 1024 LINE",
"384 1024 LINE",
"384 960 LINE",
"384 896 LINE"
);
}
);
width = 1024;
}
);
note = "\012    i\012  ";
unicode = 0069;
},
{
glyphname = j;
lastChange = "2016-07-05 20:04:06 +0000";
layers = (
{
layerId = "9D510E40-B89B-4DEE-9F00-CDF72199B32A";
paths = (
{
closed = 1;
nodes = (
"448 640 LINE",
"512 640 LINE",
"512 384 LINE",
"512 128 LINE",
"320 128 LINE",
"128 128 LINE",
"128 64 LINE",
"128 0 LINE",
"384 0 LINE",
"640 0 LINE",
"640 64 LINE",
"640 128 LINE",
"704 128 LINE",
"768 128 LINE",
"768 448 LINE",
"768 768 LINE",
"576 768 LINE",
"384 768 LINE",
"384 704 LINE",
"384 640 LINE"
);
},
{
closed = 1;
nodes = (
"640 896 LINE",
"768 896 LINE",
"768 960 LINE",
"768 1024 LINE",
"640 1024 LINE",
"512 1024 LINE",
"512 960 LINE",
"512 896 LINE"
);
}
);
width = 1024;
}
);
note = "\012    j\012  ";
unicode = 006A;
},
{
glyphname = k;
lastChange = "2016-07-05 20:04:06 +0000";
layers = (
{
layerId = "9D510E40-B89B-4DEE-9F00-CDF72199B32A";
paths = (
{
closed = 1;
nodes = (
"128 128 LINE",
"256 128 LINE",
"256 256 LINE",
"256 384 LINE",
"320 384 LINE",
"384 384 LINE",
"384 320 LINE",
"384 256 LINE",
"448 256 LINE",
"512 256 LINE",
"512 192 LINE",
"512 128 LINE",
"704 128 LINE",
"896 128 LINE",
"896 192 LINE",
"896 256 LINE",
"832 256 LINE",
"768 256 LINE",
"768 320 LINE",
"768 384 LINE",
"704 384 LINE",
"640 384 LINE",
"640 448 LINE",
"640 512 LINE",
"704 512 LINE",
"768 512 LINE",
"768 576 LINE",
"768 640 LINE",
"832 640 LINE",
"896 640 LINE",
"896 704 LINE",
"896 768 LINE",
"704 768 LINE",
"512 768 LINE",
"512 704 LINE",
"512 640 LINE",
"384 640 LINE",
"256 640 LINE",
"256 832 LINE",
"256 1024 LINE",
"128 1024 LINE",
"0 1024 LINE",
"0 576 LINE",
"0 128 LINE"
);
}
);
width = 1024;
}
);
note = "\012    k\012  ";
unicode = 006B;
},
{
glyphname = l;
lastChange = "2016-07-05 20:04:06 +0000";
layers = (
{
layerId = "9D510E40-B89B-4DEE-9F00-CDF72199B32A";
paths = (
{
closed = 1;
nodes = (
"320 896 LINE",
"384 896 LINE",
"384 576 LINE",
"384 256 LINE",
"256 256 LINE",
"128 256 LINE",
"128 192 LINE",
"128 128 LINE",
"512 128 LINE",
"896 128 LINE",
"896 192 LINE",
"896 256 LINE",
"768 256 LINE",
"640 256 LINE",
"640 640 LINE",
"640 1024 LINE",
"448 1024 LINE",
"256 1024 LINE",
"256 960 LINE",
"256 896 LINE"
);
}
);
width = 1024;
}
);
note = "\012    l\012  ";
unicode = 006C;
},
{
glyphname = m;
lastChange = "2016-07-05 20:04:06 +0000";
layers = (
{
layerId = "9D510E40-B89B-4DEE-9F00-CDF72199B32A";
paths = (
{
closed = 1;
nodes = (
"64 128 LINE",
"128 128 LINE",
"128 384 LINE",
"128 640 LINE",
"192 640 LINE",
"256 640 LINE",
"256 384 LINE",
"256 128 LINE",
"384 128 LINE",
"512 128 LINE",
"512 384 LINE",
"512 640 LINE",
"576 640 LINE",
"640 640 LINE",
"640 384 LINE",
"640 128 LINE",
"768 128 LINE",
"896 128 LINE",
"896 384 LINE",
"896 640 LINE",
"832 640 LINE",
"768 640 LINE",
"768 704 LINE",
"768 768 LINE",
"384 768 LINE",
"0 768 LINE",
"0 448 LINE",
"0 128 LINE"
);
}
);
width = 1024;
}
);
note = "\012    m\012  ";
unicode = 006D;
},
{
glyphname = n;
lastChange = "2016-07-05 20:04:06 +0000";
layers = (
{
layerId = "9D510E40-B89B-4DEE-9F00-CDF72199B32A";
paths = (
{
closed = 1;
nodes = (
"128 128 LINE",
"256 128 LINE",
"256 384 LINE",
"256 640 LINE",
"448 640 LINE",
"640 640 LINE",
"640 384 LINE",
"640 128 LINE",
"768 128 LINE",
"896 128 LINE",
"896 384 LINE",
"896 640 LINE",
"832 640 LINE",
"768 640 LINE",
"768 704 LINE",
"768 768 LINE",
"384 768 LINE",
"0 768 LINE",
"0 448 LINE",
"0 128 LINE"
);
}
);
width = 1024;
}
);
note = "\012    n\012  ";
unicode = 006E;
},
{
glyphname = o;
lastChange = "2016-07-05 20:04:06 +0000";
layers = (
{
layerId = "9D510E40-B89B-4DEE-9F00-CDF72199B32A";
paths = (
{
closed = 1;
nodes = (
"64 640 LINE",
"0 640 LINE",
"0 448 LINE",
"0 256 LINE",
"64 256 LINE",
"128 256 LINE",
"128 192 LINE",
"128 128 LINE",
"448 128 LINE",
"768 128 LINE",
"768 192 LINE",
"768 256 LINE",
"832 256 LINE",
"896 256 LINE",
"896 448 LINE",
"896 640 LINE",
"832 640 LINE",
"768 640 LINE",
"768 704 LINE",
"768 768 LINE",
"448 768 LINE",
"128 768 LINE",
"128 704 LINE",
"128 640 LINE"
);
},
{
closed = 1;
nodes = (
"448 256 LINE",
"256 256 LINE",
"256 448 LINE",
"256 640 LINE",
"448 640 LINE",
"640 640 LINE",
"640 448 LINE",
"640 256 LINE"
);
}
);
width = 1024;
}
);
note = "\012    o\012  ";
unicode = 006F;
},
{
glyphname = p;
lastChange = "2016-07-05 20:04:06 +0000";
layers = (
{
layerId = "9D510E40-B89B-4DEE-9F00-CDF72199B32A";
paths = (
{
closed = 1;
nodes = (
"128 0 LINE",
"256 0 LINE",
"256 128 LINE",
"256 256 LINE",
"512 256 LINE",
"768 256 LINE",
"768 320 LINE",
"768 384 LINE",
"832 384 LINE",
"896 384 LINE",
"896 512 LINE",
"896 640 LINE",
"832 640 LINE",
"768 640 LINE",
"768 704 LINE",
"768 768 LINE",
"384 768 LINE",
"0 768 LINE",
"0 384 LINE",
"0 0 LINE"
);
},
{
closed = 1;
nodes = (
"448 384 LINE",
"256 384 LINE",
"256 512 LINE",
"256 640 LINE",
"448 640 LINE",
"640 640 LINE",
"640 512 LINE",
"640 384 LINE"
);
}
);
width = 1024;
}
);
note = "\012    p\012  ";
unicode = 0070;
},
{
glyphname = q;
lastChange = "2016-07-05 20:04:06 +0000";
layers = (
{
layerId = "9D510E40-B89B-4DEE-9F00-CDF72199B32A";
paths = (
{
closed = 1;
nodes = (
"64 640 LINE",
"0 640 LINE",
"0 512 LINE",
"0 384 LINE",
"64 384 LINE",
"128 384 LINE",
"128 320 LINE",
"128 256 LINE",
"384 256 LINE",
"640 256 LINE",
"640 128 LINE",
"640 0 LINE",
"768 0 LINE",
"896 0 LINE",
"896 384 LINE",
"896 768 LINE",
"512 768 LINE",
"128 768 LINE",
"128 704 LINE",
"128 640 LINE"
);
},
{
closed = 1;
nodes = (
"448 384 LINE",
"256 384 LINE",
"256 512 LINE",
"256 640 LINE",
"448 640 LINE",
"640 640 LINE",
"640 512 LINE",
"640 384 LINE"
);
}
);
width = 1024;
}
);
note = "\012    q\012  ";
unicode = 0071;
},
{
glyphname = r;
lastChange = "2016-07-05 20:04:06 +0000";
layers = (
{
layerId = "9D510E40-B89B-4DEE-9F00-CDF72199B32A";
paths = (
{
closed = 1;
nodes = (
"256 128 LINE",
"384 128 LINE",
"384 320 LINE",
"384 512 LINE",
"448 512 LINE",
"512 512 LINE",
"512 576 LINE",
"512 640 LINE",
"704 640 LINE",
"896 640 LINE",
"896 704 LINE",
"896 768 LINE",
"704 768 LINE",
"512 768 LINE",
"512 704 LINE",
"512 640 LINE",
"448 640 LINE",
"384 640 LINE",
"384 704 LINE",
"384 768 LINE",
"256 768 LINE",
"128 768 LINE",
"128 448 LINE",
"128 128 LINE"
);
}
);
width = 1024;
}
);
note = "\012    r\012  ";
unicode = 0072;
},
{
glyphname = s;
lastChange = "2016-07-05 20:04:06 +0000";
layers = (
{
layerId = "9D510E40-B89B-4DEE-9F00-CDF72199B32A";
paths = (
{
closed = 1;
nodes = (
"64 640 LINE",
"0 640 LINE",
"0 576 LINE",
"0 512 LINE",
"64 512 LINE",
"128 512 LINE",
"128 448 LINE",
"128 384 LINE",
"384 384 LINE",
"640 384 LINE",
"640 320 LINE",
"640 256 LINE",
"320 256 LINE",
"0 256 LINE",
"0 192 LINE",
"0 128 LINE",
"384 128 LINE",
"768 128 LINE",
"768 192 LINE",
"768 256 LINE",
"832 256 LINE",
"896 256 LINE",
"896 320 LINE",
"896 384 LINE",
"832 384 LINE",
"768 384 LINE",
"768 448 LINE",
"768 512 LINE",
"512 512 LINE",
"256 512 LINE",
"256 576 LINE",
"256 640 LINE",
"512 640 LINE",
"768 640 LINE",
"768 704 LINE",
"768 768 LINE",
"448 768 LINE",
"128 768 LINE",
"128 704 LINE",
"128 640 LINE"
);
}
);
width = 1024;
}
);
note = "\012    s\012  ";
unicode = 0073;
},
{
glyphname = t;
lastChange = "2016-07-05 20:04:06 +0000";
layers = (
{
layerId = "9D510E40-B89B-4DEE-9F00-CDF72199B32A";
paths = (
{
closed = 1;
nodes = (
"256 768 LINE",
"128 768 LINE",
"128 704 LINE",
"128 640 LINE",
"256 640 LINE",
"384 640 LINE",
"384 384 LINE",
"384 128 LINE",
"512 128 LINE",
"640 128 LINE",
"640 384 LINE",
"640 640 LINE",
"768 640 LINE",
"896 640 LINE",
"896 704 LINE",
"896 768 LINE",
"768 768 LINE",
"640 768 LINE",
"640 896 LINE",
"640 1024 LINE",
"512 1024 LINE",
"384 1024 LINE",
"384 896 LINE",
"384 768 LINE"
);
}
);
width = 1024;
}
);
note = "\012    t\012  ";
unicode = 0074;
},
{
glyphname = u;
lastChange = "2016-07-05 20:04:06 +0000";
layers = (
{
layerId = "9D510E40-B89B-4DEE-9F00-CDF72199B32A";
paths = (
{
closed = 1;
nodes = (
"64 256 LINE",
"128 256 LINE",
"128 192 LINE",
"128 128 LINE",
"512 128 LINE",
"896 128 LINE",
"896 448 LINE",
"896 768 LINE",
"768 768 LINE",
"640 768 LINE",
"640 512 LINE",
"640 256 LINE",
"448 256 LINE",
"256 256 LINE",
"256 512 LINE",
"256 768 LINE",
"128 768 LINE",
"0 768 LINE",
"0 512 LINE",
"0 256 LINE"
);
}
);
width = 1024;
}
);
note = "\012    u\012  ";
unicode = 0075;
},
{
glyphname = v;
lastChange = "2016-07-05 20:04:06 +0000";
layers = (
{
layerId = "9D510E40-B89B-4DEE-9F00-CDF72199B32A";
paths = (
{
closed = 1;
nodes = (
"192 384 LINE",
"256 384 LINE",
"256 320 LINE",
"256 256 LINE",
"320 256 LINE",
"384 256 LINE",
"384 192 LINE",
"384 128 LINE",
"512 128 LINE",
"640 128 LINE",
"640 192 LINE",
"640 256 LINE",
"704 256 LINE",
"768 256 LINE",
"768 320 LINE",
"768 384 LINE",
"832 384 LINE",
"896 384 LINE",
"896 576 LINE",
"896 768 LINE",
"768 768 LINE",
"640 768 LINE",
"640 576 LINE",
"640 384 LINE",
"512 384 LINE",
"384 384 LINE",
"384 576 LINE",
"384 768 LINE",
"256 768 LINE",
"128 768 LINE",
"128 576 LINE",
"128 384 LINE"
);
}
);
width = 1024;
}
);
note = "\012    v\012  ";
unicode = 0076;
},
{
glyphname = w;
lastChange = "2016-07-05 20:04:06 +0000";
layers = (
{
layerId = "9D510E40-B89B-4DEE-9F00-CDF72199B32A";
paths = (
{
closed = 1;
nodes = (
"64 256 LINE",
"128 256 LINE",
"128 192 LINE",
"128 128 LINE",
"512 128 LINE",
"896 128 LINE",
"896 448 LINE",
"896 768 LINE",
"768 768 LINE",
"640 768 LINE",
"640 512 LINE",
"640 256 LINE",
"576 256 LINE",
"512 256 LINE",
"512 512 LINE",
"512 768 LINE",
"384 768 LINE",
"256 768 LINE",
"256 512 LINE",
"256 256 LINE",
"192 256 LINE",
"128 256 LINE",
"128 512 LINE",
"128 768 LINE",
"64 768 LINE",
"0 768 LINE",
"0 512 LINE",
"0 256 LINE"
);
}
);
width = 1024;
}
);
note = "\012    w\012  ";
unicode = 0077;
},
{
glyphname = x;
lastChange = "2016-07-05 20:04:06 +0000";
layers = (
{
layerId = "9D510E40-B89B-4DEE-9F00-CDF72199B32A";
paths = (
{
closed = 1;
nodes = (
"128 512 LINE",
"256 512 LINE",
"256 448 LINE",
"256 384 LINE",
"128 384 LINE",
"0 384 LINE",
"0 256 LINE",
"0 128 LINE",
"128 128 LINE",
"256 128 LINE",
"256 192 LINE",
"256 256 LINE",
"448 256 LINE",
"640 256 LINE",
"640 192 LINE",
"640 128 LINE",
"768 128 LINE",
"896 128 LINE",
"896 256 LINE",
"896 384 LINE",
"768 384 LINE",
"640 384 LINE",
"640 448 LINE",
"640 512 LINE",
"768 512 LINE",
"896 512 LINE",
"896 640 LINE",
"896 768 LINE",
"768 768 LINE",
"640 768 LINE",
"640 704 LINE",
"640 640 LINE",
"448 640 LINE",
"256 640 LINE",
"256 704 LINE",
"256 768 LINE",
"128 768 LINE",
"0 768 LINE",
"0 640 LINE",
"0 512 LINE"
);
}
);
width = 1024;
}
);
note = "\012    x\012  ";
unicode = 0078;
},
{
glyphname = y;
lastChange = "2016-07-05 20:04:06 +0000";
layers = (
{
layerId = "9D510E40-B89B-4DEE-9F00-CDF72199B32A";
paths = (
{
closed = 1;
nodes = (
"64 384 LINE",
"128 384 LINE",
"128 320 LINE",
"128 256 LINE",
"384 256 LINE",
"640 256 LINE",
"640 192 LINE",
"640 128 LINE",
"384 128 LINE",
"128 128 LINE",
"128 64 LINE",
"128 0 LINE",
"448 0 LINE",
"768 0 LINE",
"768 64 LINE",
"768 128 LINE",
"832 128 LINE",
"896 128 LINE",
"896 448 LINE",
"896 768 LINE",
"768 768 LINE",
"640 768 LINE",
"640 576 LINE",
"640 384 LINE",
"448 384 LINE",
"256 384 LINE",
"256 576 LINE",
"256 768 LINE",
"128 768 LINE",
"0 768 LINE",
"0 576 LINE",
"0 384 LINE"
);
}
);
width = 1024;
}
);
note = "\012    y\012  ";
unicode = 0079;
},
{
glyphname = z;
lastChange = "2016-07-05 20:04:06 +0000";
layers = (
{
layerId = "9D510E40-B89B-4DEE-9F00-CDF72199B32A";
paths = (
{
closed = 1;
nodes = (
"192 640 LINE",
"384 640 LINE",
"384 576 LINE",
"384 512 LINE",
"320 512 LINE",
"256 512 LINE",
"256 448 LINE",
"256 384 LINE",
"192 384 LINE",
"128 384 LINE",
"128 320 LINE",
"128 256 LINE",
"64 256 LINE",
"0 256 LINE",
"0 192 LINE",
"0 128 LINE",
"448 128 LINE",
"896 128 LINE",
"896 192 LINE",
"896 256 LINE",
"704 256 LINE",
"512 256 LINE",
"512 320 LINE",
"512 384 LINE",
"576 384 LINE",
"640 384 LINE",
"640 448 LINE",
"640 512 LINE",
"704 512 LINE",
"768 512 LINE",
"768 576 LINE",
"768 640 LINE",
"832 640 LINE",
"896 640 LINE",
"896 704 LINE",
"896 768 LINE",
"448 768 LINE",
"0 768 LINE",
"0 704 LINE",
"0 640 LINE"
);
}
);
width = 1024;
}
);
note = "\012    z\012  ";
unicode = 007A;
},
{
glyphname = braceleft;
lastChange = "2016-07-05 20:04:06 +0000";
layers = (
{
layerId = "9D510E40-B89B-4DEE-9F00-CDF72199B32A";
paths = (
{
closed = 1;
nodes = (
"448 896 LINE",
"384 896 LINE",
"384 768 LINE",
"384 640 LINE",
"320 640 LINE",
"256 640 LINE",
"256 576 LINE",
"256 512 LINE",
"320 512 LINE",
"384 512 LINE",
"384 384 LINE",
"384 256 LINE",
"448 256 LINE",
"512 256 LINE",
"512 192 LINE",
"512 128 LINE",
"640 128 LINE",
"768 128 LINE",
"768 192 LINE",
"768 256 LINE",
"704 256 LINE",
"640 256 LINE",
"640 384 LINE",
"640 512 LINE",
"576 512 LINE",
"512 512 LINE",
"512 576 LINE",
"512 640 LINE",
"576 640 LINE",
"640 640 LINE",
"640 768 LINE",
"640 896 LINE",
"704 896 LINE",
"768 896 LINE",
"768 960 LINE",
"768 1024 LINE",
"640 1024 LINE",
"512 1024 LINE",
"512 960 LINE",
"512 896 LINE"
);
}
);
width = 1024;
}
);
note = "\012    braceleft\012  ";
unicode = 007B;
},
{
glyphname = bar;
lastChange = "2016-07-05 20:04:06 +0000";
layers = (
{
layerId = "9D510E40-B89B-4DEE-9F00-CDF72199B32A";
paths = (
{
closed = 1;
nodes = (
"512 128 LINE",
"640 128 LINE",
"640 576 LINE",
"640 1024 LINE",
"512 1024 LINE",
"384 1024 LINE",
"384 576 LINE",
"384 128 LINE"
);
}
);
width = 1024;
}
);
note = "\012    bar\012  ";
unicode = 007C;
},
{
glyphname = braceright;
lastChange = "2016-07-05 20:04:06 +0000";
layers = (
{
layerId = "9D510E40-B89B-4DEE-9F00-CDF72199B32A";
paths = (
{
closed = 1;
nodes = (
"192 896 LINE",
"256 896 LINE",
"256 768 LINE",
"256 640 LINE",
"320 640 LINE",
"384 640 LINE",
"384 576 LINE",
"384 512 LINE",
"320 512 LINE",
"256 512 LINE",
"256 384 LINE",
"256 256 LINE",
"192 256 LINE",
"128 256 LINE",
"128 192 LINE",
"128 128 LINE",
"256 128 LINE",
"384 128 LINE",
"384 192 LINE",
"384 256 LINE",
"448 256 LINE",
"512 256 LINE",
"512 384 LINE",
"512 512 LINE",
"576 512 LINE",
"640 512 LINE",
"640 576 LINE",
"640 640 LINE",
"576 640 LINE",
"512 640 LINE",
"512 768 LINE",
"512 896 LINE",
"448 896 LINE",
"384 896 LINE",
"384 960 LINE",
"384 1024 LINE",
"256 1024 LINE",
"128 1024 LINE",
"128 960 LINE",
"128 896 LINE"
);
}
);
width = 1024;
}
);
note = "\012    braceright\012  ";
unicode = 007D;
},
{
glyphname = asciitilde;
lastChange = "2016-07-05 20:04:06 +0000";
layers = (
{
layerId = "9D510E40-B89B-4DEE-9F00-CDF72199B32A";
paths = (
{
closed = 1;
nodes = (
"64 640 LINE",
"0 640 LINE",
"0 576 LINE",
"0 512 LINE",
"64 512 LINE",
"128 512 LINE",
"128 576 LINE",
"128 640 LINE",
"192 640 LINE",
"256 640 LINE",
"256 576 LINE",
"256 512 LINE",
"320 512 LINE",
"384 512 LINE",
"384 448 LINE",
"384 384 LINE",
"576 384 LINE",
"768 384 LINE",
"768 448 LINE",
"768 512 LINE",
"832 512 LINE",
"896 512 LINE",
"896 576 LINE",
"896 640 LINE",
"832 640 LINE",
"768 640 LINE",
"768 576 LINE",
"768 512 LINE",
"704 512 LINE",
"640 512 LINE",
"640 576 LINE",
"640 640 LINE",
"576 640 LINE",
"512 640 LINE",
"512 704 LINE",
"512 768 LINE",
"320 768 LINE",
"128 768 LINE",
"128 704 LINE",
"128 640 LINE"
);
}
);
width = 1024;
}
);
note = "\012    asciitilde\012  ";
unicode = 007E;
},
{
glyphname = exclamdown;
lastChange = "2016-07-05 20:04:06 +0000";
layers = (
{
layerId = "9D510E40-B89B-4DEE-9F00-CDF72199B32A";
paths = (
{
closed = 1;
nodes = (
"320 512 LINE",
"256 512 LINE",
"256 320 LINE",
"256 128 LINE",
"448 128 LINE",
"640 128 LINE",
"640 448 LINE",
"640 768 LINE",
"512 768 LINE",
"384 768 LINE",
"384 640 LINE",
"384 512 LINE"
);
},
{
closed = 1;
nodes = (
"512 896 LINE",
"640 896 LINE",
"640 960 LINE",
"640 1024 LINE",
"512 1024 LINE",
"384 1024 LINE",
"384 960 LINE",
"384 896 LINE"
);
}
);
width = 1024;
}
);
note = "\012    exclamdown\012  ";
unicode = 00A1;
},
{
glyphname = cent;
lastChange = "2016-07-05 20:04:06 +0000";
layers = (
{
layerId = "9D510E40-B89B-4DEE-9F00-CDF72199B32A";
paths = (
{
closed = 1;
nodes = (
"256 896 LINE",
"128 896 LINE",
"128 832 LINE",
"128 768 LINE",
"64 768 LINE",
"0 768 LINE",
"0 576 LINE",
"0 384 LINE",
"64 384 LINE",
"128 384 LINE",
"128 320 LINE",
"128 256 LINE",
"256 256 LINE",
"384 256 LINE",
"384 192 LINE",
"384 128 LINE",
"448 128 LINE",
"512 128 LINE",
"512 192 LINE",
"512 256 LINE",
"640 256 LINE",
"768 256 LINE",
"768 320 LINE",
"768 384 LINE",
"832 384 LINE",
"896 384 LINE",
"896 448 LINE",
"896 512 LINE",
"768 512 LINE",
"640 512 LINE",
"640 448 LINE",
"640 384 LINE",
"576 384 LINE",
"512 384 LINE",
"512 576 LINE",
"512 768 LINE",
"576 768 LINE",
"640 768 LINE",
"640 704 LINE",
"640 640 LINE",
"768 640 LINE",
"896 640 LINE",
"896 704 LINE",
"896 768 LINE",
"832 768 LINE",
"768 768 LINE",
"768 832 LINE",
"768 896 LINE",
"640 896 LINE",
"512 896 LINE",
"512 960 LINE",
"512 1024 LINE",
"448 1024 LINE",
"384 1024 LINE",
"384 960 LINE",
"384 896 LINE"
);
},
{
closed = 1;
nodes = (
"320 384 LINE",
"256 384 LINE",
"256 576 LINE",
"256 768 LINE",
"320 768 LINE",
"384 768 LINE",
"384 576 LINE",
"384 384 LINE"
);
}
);
width = 1024;
}
);
note = "\012    cent\012  ";
unicode = 00A2;
},
{
glyphname = sterling;
lastChange = "2016-07-05 20:04:06 +0000";
layers = (
{
layerId = "9D510E40-B89B-4DEE-9F00-CDF72199B32A";
paths = (
{
closed = 1;
nodes = (
"192 896 LINE",
"128 896 LINE",
"128 768 LINE",
"128 640 LINE",
"64 640 LINE",
"0 640 LINE",
"0 576 LINE",
"0 512 LINE",
"64 512 LINE",
"128 512 LINE",
"128 384 LINE",
"128 256 LINE",
"64 256 LINE",
"0 256 LINE",
"0 192 LINE",
"0 128 LINE",
"448 128 LINE",
"896 128 LINE",
"896 192 LINE",
"896 256 LINE",
"640 256 LINE",
"384 256 LINE",
"384 384 LINE",
"384 512 LINE",
"576 512 LINE",
"768 512 LINE",
"768 576 LINE",
"768 640 LINE",
"576 640 LINE",
"384 640 LINE",
"384 768 LINE",
"384 896 LINE",
"512 896 LINE",
"640 896 LINE",
"640 832 LINE",
"640 768 LINE",
"768 768 LINE",
"896 768 LINE",
"896 832 LINE",
"896 896 LINE",
"832 896 LINE",
"768 896 LINE",
"768 960 LINE",
"768 1024 LINE",
"512 1024 LINE",
"256 1024 LINE",
"256 960 LINE",
"256 896 LINE"
);
}
);
width = 1024;
}
);
note = "\012    sterling\012  ";
unicode = 00A3;
},
{
glyphname = currency;
lastChange = "2016-07-05 20:04:06 +0000";
layers = (
{
layerId = "9D510E40-B89B-4DEE-9F00-CDF72199B32A";
paths = (
{
closed = 1;
nodes = (
"192 768 LINE",
"256 768 LINE",
"256 576 LINE",
"256 384 LINE",
"192 384 LINE",
"128 384 LINE",
"128 320 LINE",
"128 256 LINE",
"192 256 LINE",
"256 256 LINE",
"256 320 LINE",
"256 384 LINE",
"320 384 LINE",
"384 384 LINE",
"384 320 LINE",
"384 256 LINE",
"512 256 LINE",
"640 256 LINE",
"640 320 LINE",
"640 384 LINE",
"704 384 LINE",
"768 384 LINE",
"768 320 LINE",
"768 256 LINE",
"832 256 LINE",
"896 256 LINE",
"896 320 LINE",
"896 384 LINE",
"832 384 LINE",
"768 384 LINE",
"768 576 LINE",
"768 768 LINE",
"832 768 LINE",
"896 768 LINE",
"896 832 LINE",
"896 896 LINE",
"832 896 LINE",
"768 896 LINE",
"768 832 LINE",
"768 768 LINE",
"704 768 LINE",
"640 768 LINE",
"640 832 LINE",
"640 896 LINE",
"512 896 LINE",
"384 896 LINE",
"384 832 LINE",
"384 768 LINE",
"320 768 LINE",
"256 768 LINE",
"256 832 LINE",
"256 896 LINE",
"192 896 LINE",
"128 896 LINE",
"128 832 LINE",
"128 768 LINE"
);
},
{
closed = 1;
nodes = (
"512 384 LINE",
"384 384 LINE",
"384 576 LINE",
"384 768 LINE",
"512 768 LINE",
"640 768 LINE",
"640 576 LINE",
"640 384 LINE"
);
}
);
width = 1024;
}
);
note = "\012    currency\012  ";
unicode = 00A4;
},
{
glyphname = yen;
lastChange = "2016-07-05 20:04:06 +0000";
layers = (
{
layerId = "9D510E40-B89B-4DEE-9F00-CDF72199B32A";
paths = (
{
closed = 1;
nodes = (
"192 768 LINE",
"256 768 LINE",
"256 704 LINE",
"256 640 LINE",
"192 640 LINE",
"128 640 LINE",
"128 576 LINE",
"128 512 LINE",
"256 512 LINE",
"384 512 LINE",
"384 448 LINE",
"384 384 LINE",
"256 384 LINE",
"128 384 LINE",
"128 320 LINE",
"128 256 LINE",
"256 256 LINE",
"384 256 LINE",
"384 192 LINE",
"384 128 LINE",
"512 128 LINE",
"640 128 LINE",
"640 192 LINE",
"640 256 LINE",
"768 256 LINE",
"896 256 LINE",
"896 320 LINE",
"896 384 LINE",
"768 384 LINE",
"640 384 LINE",
"640 448 LINE",
"640 512 LINE",
"768 512 LINE",
"896 512 LINE",
"896 576 LINE",
"896 640 LINE",
"832 640 LINE",
"768 640 LINE",
"768 704 LINE",
"768 768 LINE",
"832 768 LINE",
"896 768 LINE",
"896 896 LINE",
"896 1024 LINE",
"768 1024 LINE",
"640 1024 LINE",
"640 896 LINE",
"640 768 LINE",
"512 768 LINE",
"384 768 LINE",
"384 896 LINE",
"384 1024 LINE",
"256 1024 LINE",
"128 1024 LINE",
"128 896 LINE",
"128 768 LINE"
);
}
);
width = 1024;
}
);
note = "\012    yen\012  ";
unicode = 00A5;
},
{
glyphname = brokenbar;
lastChange = "2016-07-05 20:04:06 +0000";
layers = (
{
layerId = "9D510E40-B89B-4DEE-9F00-CDF72199B32A";
paths = (
{
closed = 1;
nodes = (
"512 128 LINE",
"640 128 LINE",
"640 320 LINE",
"640 512 LINE",
"512 512 LINE",
"384 512 LINE",
"384 320 LINE",
"384 128 LINE"
);
},
{
closed = 1;
nodes = (
"512 640 LINE",
"640 640 LINE",
"640 832 LINE",
"640 1024 LINE",
"512 1024 LINE",
"384 1024 LINE",
"384 832 LINE",
"384 640 LINE"
);
}
);
width = 1024;
}
);
note = "\012    brokenbar\012  ";
unicode = 00A6;
},
{
glyphname = section;
lastChange = "2016-07-05 20:04:06 +0000";
layers = (
{
layerId = "9D510E40-B89B-4DEE-9F00-CDF72199B32A";
paths = (
{
closed = 1;
nodes = (
"192 896 LINE",
"128 896 LINE",
"128 768 LINE",
"128 640 LINE",
"192 640 LINE",
"256 640 LINE",
"256 576 LINE",
"256 512 LINE",
"320 512 LINE",
"384 512 LINE",
"384 448 LINE",
"384 384 LINE",
"256 384 LINE",
"128 384 LINE",
"128 320 LINE",
"128 256 LINE",
"192 256 LINE",
"256 256 LINE",
"256 192 LINE",
"256 128 LINE",
"512 128 LINE",
"768 128 LINE",
"768 192 LINE",
"768 256 LINE",
"832 256 LINE",
"896 256 LINE",
"896 384 LINE",
"896 512 LINE",
"832 512 LINE",
"768 512 LINE",
"768 576 LINE",
"768 640 LINE",
"704 640 LINE",
"640 640 LINE",
"640 704 LINE",
"640 768 LINE",
"768 768 LINE",
"896 768 LINE",
"896 832 LINE",
"896 896 LINE",
"832 896 LINE",
"768 896 LINE",
"768 960 LINE",
"768 1024 LINE",
"512 1024 LINE",
"256 1024 LINE",
"256 960 LINE",
"256 896 LINE"
);
},
{
closed = 1;
nodes = (
"512 768 LINE",
"384 768 LINE",
"384 832 LINE",
"384 896 LINE",
"512 896 LINE",
"640 896 LINE",
"640 832 LINE",
"640 768 LINE"
);
},
{
closed = 1;
nodes = (
"512 512 LINE",
"384 512 LINE",
"384 576 LINE",
"384 640 LINE",
"512 640 LINE",
"640 640 LINE",
"640 576 LINE",
"640 512 LINE"
);
},
{
closed = 1;
nodes = (
"512 256 LINE",
"384 256 LINE",
"384 320 LINE",
"384 384 LINE",
"512 384 LINE",
"640 384 LINE",
"640 320 LINE",
"640 256 LINE"
);
}
);
width = 1024;
}
);
note = "\012    section\012  ";
unicode = 00A7;
},
{
glyphname = dieresis;
lastChange = "2016-07-05 20:04:06 +0000";
layers = (
{
layerId = "9D510E40-B89B-4DEE-9F00-CDF72199B32A";
paths = (
{
closed = 1;
nodes = (
"640 896 LINE",
"768 896 LINE",
"768 960 LINE",
"768 1024 LINE",
"640 1024 LINE",
"512 1024 LINE",
"512 960 LINE",
"512 896 LINE"
);
},
{
closed = 1;
nodes = (
"256 896 LINE",
"384 896 LINE",
"384 960 LINE",
"384 1024 LINE",
"256 1024 LINE",
"128 1024 LINE",
"128 960 LINE",
"128 896 LINE"
);
}
);
width = 1024;
}
);
note = "\012    dieresis\012  ";
unicode = 00A8;
},
{
glyphname = copyright;
lastChange = "2016-07-05 20:04:06 +0000";
layers = (
{
layerId = "9D510E40-B89B-4DEE-9F00-CDF72199B32A";
paths = (
{
closed = 1;
nodes = (
"320 640 LINE",
"256 640 LINE",
"256 512 LINE",
"256 384 LINE",
"320 384 LINE",
"384 384 LINE",
"384 320 LINE",
"384 256 LINE",
"512 256 LINE",
"640 256 LINE",
"640 320 LINE",
"640 384 LINE",
"512 384 LINE",
"384 384 LINE",
"384 512 LINE",
"384 640 LINE",
"512 640 LINE",
"640 640 LINE",
"640 704 LINE",
"640 768 LINE",
"512 768 LINE",
"384 768 LINE",
"384 704 LINE",
"384 640 LINE"
);
},
{
closed = 1;
nodes = (
"192 896 LINE",
"128 896 LINE",
"128 832 LINE",
"128 768 LINE",
"64 768 LINE",
"0 768 LINE",
"0 512 LINE",
"0 256 LINE",
"64 256 LINE",
"128 256 LINE",
"128 192 LINE",
"128 128 LINE",
"192 128 LINE",
"256 128 LINE",
"256 64 LINE",
"256 0 LINE",
"512 0 LINE",
"768 0 LINE",
"768 64 LINE",
"768 128 LINE",
"832 128 LINE",
"896 128 LINE",
"896 192 LINE",
"896 256 LINE",
"960 256 LINE",
"1024 256 LINE",
"1024 512 LINE",
"1024 768 LINE",
"960 768 LINE",
"896 768 LINE",
"896 832 LINE",
"896 896 LINE",
"832 896 LINE",
"768 896 LINE",
"768 960 LINE",
"768 1024 LINE",
"512 1024 LINE",
"256 1024 LINE",
"256 960 LINE",
"256 896 LINE"
);
},
{
closed = 1;
nodes = (
"832 768 LINE",
"896 768 LINE",
"896 512 LINE",
"896 256 LINE",
"832 256 LINE",
"768 256 LINE",
"768 192 LINE",
"768 128 LINE",
"512 128 LINE",
"256 128 LINE",
"256 192 LINE",
"256 256 LINE",
"192 256 LINE",
"128 256 LINE",
"128 512 LINE",
"128 768 LINE",
"192 768 LINE",
"256 768 LINE",
"256 832 LINE",
"256 896 LINE",
"512 896 LINE",
"768 896 LINE",
"768 832 LINE",
"768 768 LINE"
);
}
);
width = 1024;
}
);
note = "\012    copyright\012  ";
unicode = 00A9;
},
{
glyphname = ordfeminine;
lastChange = "2016-07-05 20:04:06 +0000";
layers = (
{
layerId = "9D510E40-B89B-4DEE-9F00-CDF72199B32A";
paths = (
{
closed = 1;
nodes = (
"192 896 LINE",
"256 896 LINE",
"256 832 LINE",
"256 768 LINE",
"192 768 LINE",
"128 768 LINE",
"128 704 LINE",
"128 640 LINE",
"192 640 LINE",
"256 640 LINE",
"256 576 LINE",
"256 512 LINE",
"512 512 LINE",
"768 512 LINE",
"768 704 LINE",
"768 896 LINE",
"704 896 LINE",
"640 896 LINE",
"640 960 LINE",
"640 1024 LINE",
"384 1024 LINE",
"128 1024 LINE",
"128 960 LINE",
"128 896 LINE"
);
},
{
closed = 1;
nodes = (
"448 640 LINE",
"384 640 LINE",
"384 704 LINE",
"384 768 LINE",
"448 768 LINE",
"512 768 LINE",
"512 704 LINE",
"512 640 LINE"
);
}
);
width = 1024;
}
);
note = "\012    ordfeminine\012  ";
unicode = 00AA;
},
{
glyphname = guillemotleft;
lastChange = "2016-07-05 20:04:11 +0000";
layers = (
{
layerId = "9D510E40-B89B-4DEE-9F00-CDF72199B32A";
paths = (
{
closed = 1;
nodes = (
"192 768 LINE",
"128 768 LINE",
"128 704 LINE",
"128 640 LINE",
"64 640 LINE",
"0 640 LINE",
"0 576 LINE",
"0 512 LINE",
"64 512 LINE",
"128 512 LINE",
"128 448 LINE",
"128 384 LINE",
"192 384 LINE",
"256 384 LINE",
"256 320 LINE",
"256 256 LINE",
"384 256 LINE",
"512 256 LINE",
"512 320 LINE",
"512 384 LINE",
"576 384 LINE",
"640 384 LINE",
"640 320 LINE",
"640 256 LINE",
"768 256 LINE",
"896 256 LINE",
"896 320 LINE",
"896 384 LINE",
"832 384 LINE",
"768 384 LINE",
"768 448 LINE",
"768 512 LINE",
"704 512 LINE",
"640 512 LINE",
"640 576 LINE",
"640 640 LINE",
"704 640 LINE",
"768 640 LINE",
"768 704 LINE",
"768 768 LINE",
"832 768 LINE",
"896 768 LINE",
"896 832 LINE",
"896 896 LINE",
"768 896 LINE",
"640 896 LINE",
"640 832 LINE",
"640 768 LINE",
"576 768 LINE",
"512 768 LINE",
"512 832 LINE",
"512 896 LINE",
"384 896 LINE",
"256 896 LINE",
"256 832 LINE",
"256 768 LINE"
);
},
{
closed = 1;
nodes = (
"448 640 LINE",
"384 640 LINE",
"384 576 LINE",
"384 512 LINE",
"448 512 LINE",
"512 512 LINE",
"512 448 LINE",
"512 384 LINE",
"448 384 LINE",
"384 384 LINE",
"384 448 LINE",
"384 512 LINE",
"320 512 LINE",
"256 512 LINE",
"256 576 LINE",
"256 640 LINE",
"320 640 LINE",
"384 640 LINE",
"384 704 LINE",
"384 768 LINE",
"448 768 LINE",
"512 768 LINE",
"512 704 LINE",
"512 640 LINE"
);
}
);
width = 1024;
}
);
note = "\012    guillemotleft\012  ";
unicode = 00AB;
},
{
glyphname = logicalnot;
lastChange = "2016-07-05 20:04:06 +0000";
layers = (
{
layerId = "9D510E40-B89B-4DEE-9F00-CDF72199B32A";
paths = (
{
closed = 1;
nodes = (
"384 640 LINE",
"640 640 LINE",
"640 512 LINE",
"640 384 LINE",
"768 384 LINE",
"896 384 LINE",
"896 576 LINE",
"896 768 LINE",
"512 768 LINE",
"128 768 LINE",
"128 704 LINE",
"128 640 LINE"
);
}
);
width = 1024;
}
);
note = "\012    logicalnot\012  ";
unicode = 00AC;
},
{
glyphname = uni00AD;
lastChange = "2016-07-05 20:04:11 +0000";
layers = (
{
layerId = "9D510E40-B89B-4DEE-9F00-CDF72199B32A";
paths = (
{
closed = 1;
nodes = (
"512 512 LINE",
"896 512 LINE",
"896 576 LINE",
"896 640 LINE",
"512 640 LINE",
"128 640 LINE",
"128 576 LINE",
"128 512 LINE"
);
}
);
width = 1024;
}
);
note = "\012    uni00AD\012  ";
unicode = 00AD;
},
{
glyphname = registered;
lastChange = "2016-07-05 20:04:06 +0000";
layers = (
{
layerId = "9D510E40-B89B-4DEE-9F00-CDF72199B32A";
paths = (
{
closed = 1;
nodes = (
"320 256 LINE",
"384 256 LINE",
"384 320 LINE",
"384 384 LINE",
"512 384 LINE",
"640 384 LINE",
"640 320 LINE",
"640 256 LINE",
"704 256 LINE",
"768 256 LINE",
"768 320 LINE",
"768 384 LINE",
"704 384 LINE",
"640 384 LINE",
"640 448 LINE",
"640 512 LINE",
"704 512 LINE",
"768 512 LINE",
"768 576 LINE",
"768 640 LINE",
"704 640 LINE",
"640 640 LINE",
"640 704 LINE",
"640 768 LINE",
"448 768 LINE",
"256 768 LINE",
"256 512 LINE",
"256 256 LINE"
);
},
{
closed = 1;
nodes = (
"512 512 LINE",
"384 512 LINE",
"384 576 LINE",
"384 640 LINE",
"512 640 LINE",
"640 640 LINE",
"640 576 LINE",
"640 512 LINE"
);
},
{
closed = 1;
nodes = (
"192 896 LINE",
"128 896 LINE",
"128 832 LINE",
"128 768 LINE",
"64 768 LINE",
"0 768 LINE",
"0 512 LINE",
"0 256 LINE",
"64 256 LINE",
"128 256 LINE",
"128 192 LINE",
"128 128 LINE",
"192 128 LINE",
"256 128 LINE",
"256 64 LINE",
"256 0 LINE",
"512 0 LINE",
"768 0 LINE",
"768 64 LINE",
"768 128 LINE",
"832 128 LINE",
"896 128 LINE",
"896 192 LINE",
"896 256 LINE",
"960 256 LINE",
"1024 256 LINE",
"1024 512 LINE",
"1024 768 LINE",
"960 768 LINE",
"896 768 LINE",
"896 832 LINE",
"896 896 LINE",
"832 896 LINE",
"768 896 LINE",
"768 960 LINE",
"768 1024 LINE",
"512 1024 LINE",
"256 1024 LINE",
"256 960 LINE",
"256 896 LINE"
);
},
{
closed = 1;
nodes = (
"832 768 LINE",
"896 768 LINE",
"896 512 LINE",
"896 256 LINE",
"832 256 LINE",
"768 256 LINE",
"768 192 LINE",
"768 128 LINE",
"512 128 LINE",
"256 128 LINE",
"256 192 LINE",
"256 256 LINE",
"192 256 LINE",
"128 256 LINE",
"128 512 LINE",
"128 768 LINE",
"192 768 LINE",
"256 768 LINE",
"256 832 LINE",
"256 896 LINE",
"512 896 LINE",
"768 896 LINE",
"768 832 LINE",
"768 768 LINE"
);
}
);
width = 1024;
}
);
note = "\012    registered\012  ";
unicode = 00AE;
},
{
glyphname = macron;
lastChange = "2016-07-05 20:04:06 +0000";
layers = (
{
layerId = "9D510E40-B89B-4DEE-9F00-CDF72199B32A";
paths = (
{
closed = 1;
nodes = (
"448 896 LINE",
"768 896 LINE",
"768 960 LINE",
"768 1024 LINE",
"448 1024 LINE",
"128 1024 LINE",
"128 960 LINE",
"128 896 LINE"
);
}
);
width = 1024;
}
);
note = "\012    macron\012  ";
unicode = 00AF;
},
{
glyphname = degree;
lastChange = "2016-07-05 20:04:06 +0000";
layers = (
{
layerId = "9D510E40-B89B-4DEE-9F00-CDF72199B32A";
paths = (
{
closed = 1;
nodes = (
"320 896 LINE",
"256 896 LINE",
"256 832 LINE",
"256 768 LINE",
"320 768 LINE",
"384 768 LINE",
"384 704 LINE",
"384 640 LINE",
"448 640 LINE",
"512 640 LINE",
"512 704 LINE",
"512 768 LINE",
"576 768 LINE",
"640 768 LINE",
"640 832 LINE",
"640 896 LINE",
"576 896 LINE",
"512 896 LINE",
"512 960 LINE",
"512 1024 LINE",
"448 1024 LINE",
"384 1024 LINE",
"384 960 LINE",
"384 896 LINE"
);
},
{
closed = 1;
nodes = (
"448 768 LINE",
"384 768 LINE",
"384 832 LINE",
"384 896 LINE",
"448 896 LINE",
"512 896 LINE",
"512 832 LINE",
"512 768 LINE"
);
}
);
width = 1024;
}
);
note = "\012    degree\012  ";
unicode = 00B0;
},
{
glyphname = plusminus;
lastChange = "2016-07-05 20:04:06 +0000";
layers = (
{
layerId = "9D510E40-B89B-4DEE-9F00-CDF72199B32A";
paths = (
{
closed = 1;
nodes = (
"512 128 LINE",
"896 128 LINE",
"896 192 LINE",
"896 256 LINE",
"512 256 LINE",
"128 256 LINE",
"128 192 LINE",
"128 128 LINE"
);
},
{
closed = 1;
nodes = (
"256 768 LINE",
"128 768 LINE",
"128 704 LINE",
"128 640 LINE",
"256 640 LINE",
"384 640 LINE",
"384 512 LINE",
"384 384 LINE",
"512 384 LINE",
"640 384 LINE",
"640 512 LINE",
"640 640 LINE",
"768 640 LINE",
"896 640 LINE",
"896 704 LINE",
"896 768 LINE",
"768 768 LINE",
"640 768 LINE",
"640 896 LINE",
"640 1024 LINE",
"512 1024 LINE",
"384 1024 LINE",
"384 896 LINE",
"384 768 LINE"
);
}
);
width = 1024;
}
);
note = "\012    plusminus\012  ";
unicode = 00B1;
},
{
glyphname = uni00B2;
lastChange = "2016-07-05 20:04:11 +0000";
layers = (
{
layerId = "9D510E40-B89B-4DEE-9F00-CDF72199B32A";
paths = (
{
closed = 1;
nodes = (
"384 896 LINE",
"512 896 LINE",
"512 832 LINE",
"512 768 LINE",
"448 768 LINE",
"384 768 LINE",
"384 704 LINE",
"384 640 LINE",
"320 640 LINE",
"256 640 LINE",
"256 576 LINE",
"256 512 LINE",
"512 512 LINE",
"768 512 LINE",
"768 576 LINE",
"768 640 LINE",
"704 640 LINE",
"640 640 LINE",
"640 704 LINE",
"640 768 LINE",
"704 768 LINE",
"768 768 LINE",
"768 832 LINE",
"768 896 LINE",
"704 896 LINE",
"640 896 LINE",
"640 960 LINE",
"640 1024 LINE",
"448 1024 LINE",
"256 1024 LINE",
"256 960 LINE",
"256 896 LINE"
);
}
);
width = 1024;
}
);
note = "\012    uni00B2\012  ";
unicode = 00B2;
},
{
glyphname = uni00B3;
lastChange = "2016-07-05 20:04:11 +0000";
layers = (
{
layerId = "9D510E40-B89B-4DEE-9F00-CDF72199B32A";
paths = (
{
closed = 1;
nodes = (
"320 896 LINE",
"384 896 LINE",
"384 832 LINE",
"384 768 LINE",
"448 768 LINE",
"512 768 LINE",
"512 704 LINE",
"512 640 LINE",
"384 640 LINE",
"256 640 LINE",
"256 576 LINE",
"256 512 LINE",
"448 512 LINE",
"640 512 LINE",
"640 576 LINE",
"640 640 LINE",
"704 640 LINE",
"768 640 LINE",
"768 704 LINE",
"768 768 LINE",
"704 768 LINE",
"640 768 LINE",
"640 832 LINE",
"640 896 LINE",
"704 896 LINE",
"768 896 LINE",
"768 960 LINE",
"768 1024 LINE",
"512 1024 LINE",
"256 1024 LINE",
"256 960 LINE",
"256 896 LINE"
);
}
);
width = 1024;
}
);
note = "\012    uni00B3\012  ";
unicode = 00B3;
},
{
glyphname = acute;
lastChange = "2016-07-05 20:04:06 +0000";
layers = (
{
layerId = "9D510E40-B89B-4DEE-9F00-CDF72199B32A";
paths = (
{
closed = 1;
nodes = (
"448 896 LINE",
"384 896 LINE",
"384 832 LINE",
"384 768 LINE",
"448 768 LINE",
"512 768 LINE",
"512 832 LINE",
"512 896 LINE",
"576 896 LINE",
"640 896 LINE",
"640 960 LINE",
"640 1024 LINE",
"576 1024 LINE",
"512 1024 LINE",
"512 960 LINE",
"512 896 LINE"
);
}
);
width = 1024;
}
);
note = "\012    acute\012  ";
unicode = 00B4;
},
{
glyphname = uni00B5;
lastChange = "2016-07-05 20:04:11 +0000";
layers = (
{
layerId = "9D510E40-B89B-4DEE-9F00-CDF72199B32A";
paths = (
{
closed = 1;
nodes = (
"128 0 LINE",
"256 0 LINE",
"256 64 LINE",
"256 128 LINE",
"384 128 LINE",
"512 128 LINE",
"512 192 LINE",
"512 256 LINE",
"576 256 LINE",
"640 256 LINE",
"640 192 LINE",
"640 128 LINE",
"768 128 LINE",
"896 128 LINE",
"896 192 LINE",
"896 256 LINE",
"832 256 LINE",
"768 256 LINE",
"768 512 LINE",
"768 768 LINE",
"640 768 LINE",
"512 768 LINE",
"512 512 LINE",
"512 256 LINE",
"384 256 LINE",
"256 256 LINE",
"256 512 LINE",
"256 768 LINE",
"128 768 LINE",
"0 768 LINE",
"0 384 LINE",
"0 0 LINE"
);
}
);
width = 1024;
}
);
note = "\012    uni00B5\012  ";
unicode = 00B5;
},
{
glyphname = paragraph;
lastChange = "2016-07-05 20:04:06 +0000";
layers = (
{
layerId = "9D510E40-B89B-4DEE-9F00-CDF72199B32A";
paths = (
{
closed = 1;
nodes = (
"192 896 LINE",
"128 896 LINE",
"128 704 LINE",
"128 512 LINE",
"192 512 LINE",
"256 512 LINE",
"256 448 LINE",
"256 384 LINE",
"384 384 LINE",
"512 384 LINE",
"512 256 LINE",
"512 128 LINE",
"576 128 LINE",
"640 128 LINE",
"640 256 LINE",
"640 384 LINE",
"704 384 LINE",
"768 384 LINE",
"768 256 LINE",
"768 128 LINE",
"832 128 LINE",
"896 128 LINE",
"896 576 LINE",
"896 1024 LINE",
"576 1024 LINE",
"256 1024 LINE",
"256 960 LINE",
"256 896 LINE"
);
},
{
closed = 1;
nodes = (
"448 512 LINE",
"384 512 LINE",
"384 576 LINE",
"384 640 LINE",
"320 640 LINE",
"256 640 LINE",
"256 704 LINE",
"256 768 LINE",
"320 768 LINE",
"384 768 LINE",
"384 832 LINE",
"384 896 LINE",
"448 896 LINE",
"512 896 LINE",
"512 704 LINE",
"512 512 LINE"
);
},
{
closed = 1;
nodes = (
"704 512 LINE",
"640 512 LINE",
"640 704 LINE",
"640 896 LINE",
"704 896 LINE",
"768 896 LINE",
"768 704 LINE",
"768 512 LINE"
);
}
);
width = 1024;
}
);
note = "\012    paragraph\012  ";
unicode = 00B6;
},
{
glyphname = periodcentered;
lastChange = "2016-07-05 20:04:06 +0000";
layers = (
{
layerId = "9D510E40-B89B-4DEE-9F00-CDF72199B32A";
paths = (
{
closed = 1;
nodes = (
"384 384 LINE",
"512 384 LINE",
"512 512 LINE",
"512 640 LINE",
"384 640 LINE",
"256 640 LINE",
"256 512 LINE",
"256 384 LINE"
);
}
);
width = 1024;
}
);
note = "\012    periodcentered\012  ";
unicode = 00B7;
},
{
glyphname = cedilla;
lastChange = "2016-07-05 20:04:06 +0000";
layers = (
{
layerId = "9D510E40-B89B-4DEE-9F00-CDF72199B32A";
paths = (
{
closed = 1;
nodes = (
"384 128 LINE",
"256 128 LINE",
"256 64 LINE",
"256 0 LINE",
"384 0 LINE",
"512 0 LINE",
"512 64 LINE",
"512 128 LINE",
"576 128 LINE",
"640 128 LINE",
"640 192 LINE",
"640 256 LINE",
"576 256 LINE",
"512 256 LINE",
"512 192 LINE",
"512 128 LINE"
);
}
);
width = 1024;
}
);
note = "\012    cedilla\012  ";
unicode = 00B8;
},
{
glyphname = uni00B9;
lastChange = "2016-07-05 20:04:11 +0000";
layers = (
{
layerId = "9D510E40-B89B-4DEE-9F00-CDF72199B32A";
paths = (
{
closed = 1;
nodes = (
"320 896 LINE",
"256 896 LINE",
"256 832 LINE",
"256 768 LINE",
"320 768 LINE",
"384 768 LINE",
"384 704 LINE",
"384 640 LINE",
"320 640 LINE",
"256 640 LINE",
"256 576 LINE",
"256 512 LINE",
"512 512 LINE",
"768 512 LINE",
"768 576 LINE",
"768 640 LINE",
"704 640 LINE",
"640 640 LINE",
"640 832 LINE",
"640 1024 LINE",
"512 1024 LINE",
"384 1024 LINE",
"384 960 LINE",
"384 896 LINE"
);
}
);
width = 1024;
}
);
note = "\012    uni00B9\012  ";
unicode = 00B9;
},
{
glyphname = ordmasculine;
lastChange = "2016-07-05 20:04:06 +0000";
layers = (
{
layerId = "9D510E40-B89B-4DEE-9F00-CDF72199B32A";
paths = (
{
closed = 1;
nodes = (
"192 896 LINE",
"128 896 LINE",
"128 768 LINE",
"128 640 LINE",
"192 640 LINE",
"256 640 LINE",
"256 576 LINE",
"256 512 LINE",
"448 512 LINE",
"640 512 LINE",
"640 576 LINE",
"640 640 LINE",
"704 640 LINE",
"768 640 LINE",
"768 768 LINE",
"768 896 LINE",
"704 896 LINE",
"640 896 LINE",
"640 960 LINE",
"640 1024 LINE",
"448 1024 LINE",
"256 1024 LINE",
"256 960 LINE",
"256 896 LINE"
);
},
{
closed = 1;
nodes = (
"448 640 LINE",
"384 640 LINE",
"384 768 LINE",
"384 896 LINE",
"448 896 LINE",
"512 896 LINE",
"512 768 LINE",
"512 640 LINE"
);
}
);
width = 1024;
}
);
note = "\012    ordmasculine\012  ";
unicode = 00BA;
},
{
glyphname = guillemotright;
lastChange = "2016-07-05 20:04:11 +0000";
layers = (
{
layerId = "9D510E40-B89B-4DEE-9F00-CDF72199B32A";
paths = (
{
closed = 1;
nodes = (
"64 768 LINE",
"128 768 LINE",
"128 704 LINE",
"128 640 LINE",
"192 640 LINE",
"256 640 LINE",
"256 576 LINE",
"256 512 LINE",
"192 512 LINE",
"128 512 LINE",
"128 448 LINE",
"128 384 LINE",
"64 384 LINE",
"0 384 LINE",
"0 320 LINE",
"0 256 LINE",
"128 256 LINE",
"256 256 LINE",
"256 320 LINE",
"256 384 LINE",
"320 384 LINE",
"384 384 LINE",
"384 320 LINE",
"384 256 LINE",
"512 256 LINE",
"640 256 LINE",
"640 320 LINE",
"640 384 LINE",
"704 384 LINE",
"768 384 LINE",
"768 448 LINE",
"768 512 LINE",
"832 512 LINE",
"896 512 LINE",
"896 576 LINE",
"896 640 LINE",
"832 640 LINE",
"768 640 LINE",
"768 704 LINE",
"768 768 LINE",
"704 768 LINE",
"640 768 LINE",
"640 832 LINE",
"640 896 LINE",
"512 896 LINE",
"384 896 LINE",
"384 832 LINE",
"384 768 LINE",
"320 768 LINE",
"256 768 LINE",
"256 832 LINE",
"256 896 LINE",
"128 896 LINE",
"0 896 LINE",
"0 832 LINE",
"0 768 LINE"
);
},
{
closed = 1;
nodes = (
"576 640 LINE",
"640 640 LINE",
"640 576 LINE",
"640 512 LINE",
"576 512 LINE",
"512 512 LINE",
"512 448 LINE",
"512 384 LINE",
"448 384 LINE",
"384 384 LINE",
"384 448 LINE",
"384 512 LINE",
"448 512 LINE",
"512 512 LINE",
"512 576 LINE",
"512 640 LINE",
"448 640 LINE",
"384 640 LINE",
"384 704 LINE",
"384 768 LINE",
"448 768 LINE",
"512 768 LINE",
"512 704 LINE",
"512 640 LINE"
);
}
);
width = 1024;
}
);
note = "\012    guillemotright\012  ";
unicode = 00BB;
},
{
glyphname = onequarter;
lastChange = "2016-07-05 20:04:06 +0000";
layers = (
{
layerId = "9D510E40-B89B-4DEE-9F00-CDF72199B32A";
paths = (
{
closed = 1;
nodes = (
"704 512 LINE",
"640 512 LINE",
"640 448 LINE",
"640 384 LINE",
"576 384 LINE",
"512 384 LINE",
"512 320 LINE",
"512 256 LINE",
"640 256 LINE",
"768 256 LINE",
"768 192 LINE",
"768 128 LINE",
"832 128 LINE",
"896 128 LINE",
"896 384 LINE",
"896 640 LINE",
"832 640 LINE",
"768 640 LINE",
"768 576 LINE",
"768 512 LINE"
);
},
{
closed = 1;
nodes = (
"64 896 LINE",
"0 896 LINE",
"0 832 LINE",
"0 768 LINE",
"64 768 LINE",
"128 768 LINE",
"128 640 LINE",
"128 512 LINE",
"192 512 LINE",
"256 512 LINE",
"256 448 LINE",
"256 384 LINE",
"192 384 LINE",
"128 384 LINE",
"128 320 LINE",
"128 256 LINE",
"64 256 LINE",
"0 256 LINE",
"0 192 LINE",
"0 128 LINE",
"64 128 LINE",
"128 128 LINE",
"128 192 LINE",
"128 256 LINE",
"192 256 LINE",
"256 256 LINE",
"256 320 LINE",
"256 384 LINE",
"320 384 LINE",
"384 384 LINE",
"384 448 LINE",
"384 512 LINE",
"448 512 LINE",
"512 512 LINE",
"512 576 LINE",
"512 640 LINE",
"576 640 LINE",
"640 640 LINE",
"640 704 LINE",
"640 768 LINE",
"704 768 LINE",
"768 768 LINE",
"768 832 LINE",
"768 896 LINE",
"832 896 LINE",
"896 896 LINE",
"896 960 LINE",
"896 1024 LINE",
"832 1024 LINE",
"768 1024 LINE",
"768 960 LINE",
"768 896 LINE",
"704 896 LINE",
"640 896 LINE",
"640 832 LINE",
"640 768 LINE",
"576 768 LINE",
"512 768 LINE",
"512 704 LINE",
"512 640 LINE",
"448 640 LINE",
"384 640 LINE",
"384 576 LINE",
"384 512 LINE",
"320 512 LINE",
"256 512 LINE",
"256 768 LINE",
"256 1024 LINE",
"192 1024 LINE",
"128 1024 LINE",
"128 960 LINE",
"128 896 LINE"
);
}
);
width = 1024;
}
);
note = "\012    onequarter\012  ";
unicode = 00BC;
},
{
glyphname = onehalf;
lastChange = "2016-07-05 20:04:06 +0000";
layers = (
{
layerId = "9D510E40-B89B-4DEE-9F00-CDF72199B32A";
paths = (
{
closed = 1;
nodes = (
"64 896 LINE",
"0 896 LINE",
"0 832 LINE",
"0 768 LINE",
"64 768 LINE",
"128 768 LINE",
"128 640 LINE",
"128 512 LINE",
"192 512 LINE",
"256 512 LINE",
"256 448 LINE",
"256 384 LINE",
"192 384 LINE",
"128 384 LINE",
"128 320 LINE",
"128 256 LINE",
"64 256 LINE",
"0 256 LINE",
"0 192 LINE",
"0 128 LINE",
"64 128 LINE",
"128 128 LINE",
"128 192 LINE",
"128 256 LINE",
"192 256 LINE",
"256 256 LINE",
"256 320 LINE",
"256 384 LINE",
"320 384 LINE",
"384 384 LINE",
"384 448 LINE",
"384 512 LINE",
"448 512 LINE",
"512 512 LINE",
"512 576 LINE",
"512 640 LINE",
"576 640 LINE",
"640 640 LINE",
"640 576 LINE",
"640 512 LINE",
"704 512 LINE",
"768 512 LINE",
"768 448 LINE",
"768 384 LINE",
"704 384 LINE",
"640 384 LINE",
"640 320 LINE",
"640 256 LINE",
"576 256 LINE",
"512 256 LINE",
"512 192 LINE",
"512 128 LINE",
"704 128 LINE",
"896 128 LINE",
"896 192 LINE",
"896 256 LINE",
"832 256 LINE",
"768 256 LINE",
"768 320 LINE",
"768 384 LINE",
"832 384 LINE",
"896 384 LINE",
"896 512 LINE",
"896 640 LINE",
"768 640 LINE",
"640 640 LINE",
"640 704 LINE",
"640 768 LINE",
"704 768 LINE",
"768 768 LINE",
"768 832 LINE",
"768 896 LINE",
"832 896 LINE",
"896 896 LINE",
"896 960 LINE",
"896 1024 LINE",
"832 1024 LINE",
"768 1024 LINE",
"768 960 LINE",
"768 896 LINE",
"704 896 LINE",
"640 896 LINE",
"640 832 LINE",
"640 768 LINE",
"576 768 LINE",
"512 768 LINE",
"512 704 LINE",
"512 640 LINE",
"448 640 LINE",
"384 640 LINE",
"384 576 LINE",
"384 512 LINE",
"320 512 LINE",
"256 512 LINE",
"256 768 LINE",
"256 1024 LINE",
"192 1024 LINE",
"128 1024 LINE",
"128 960 LINE",
"128 896 LINE"
);
}
);
width = 1024;
}
);
note = "\012    onehalf\012  ";
unicode = 00BD;
},
{
glyphname = threequarters;
lastChange = "2016-07-05 20:04:06 +0000";
layers = (
{
layerId = "9D510E40-B89B-4DEE-9F00-CDF72199B32A";
paths = (
{
closed = 1;
nodes = (
"704 512 LINE",
"640 512 LINE",
"640 448 LINE",
"640 384 LINE",
"576 384 LINE",
"512 384 LINE",
"512 320 LINE",
"512 256 LINE",
"640 256 LINE",
"768 256 LINE",
"768 192 LINE",
"768 128 LINE",
"832 128 LINE",
"896 128 LINE",
"896 384 LINE",
"896 640 LINE",
"832 640 LINE",
"768 640 LINE",
"768 576 LINE",
"768 512 LINE"
);
},
{
closed = 1;
nodes = (
"64 896 LINE",
"128 896 LINE",
"128 832 LINE",
"128 768 LINE",
"192 768 LINE",
"256 768 LINE",
"256 704 LINE",
"256 640 LINE",
"128 640 LINE",
"0 640 LINE",
"0 576 LINE",
"0 512 LINE",
"128 512 LINE",
"256 512 LINE",
"256 448 LINE",
"256 384 LINE",
"192 384 LINE",
"128 384 LINE",
"128 320 LINE",
"128 256 LINE",
"64 256 LINE",
"0 256 LINE",
"0 192 LINE",
"0 128 LINE",
"64 128 LINE",
"128 128 LINE",
"128 192 LINE",
"128 256 LINE",
"192 256 LINE",
"256 256 LINE",
"256 320 LINE",
"256 384 LINE",
"320 384 LINE",
"384 384 LINE",
"384 448 LINE",
"384 512 LINE",
"448 512 LINE",
"512 512 LINE",
"512 576 LINE",
"512 640 LINE",
"576 640 LINE",
"640 640 LINE",
"640 704 LINE",
"640 768 LINE",
"704 768 LINE",
"768 768 LINE",
"768 832 LINE",
"768 896 LINE",
"832 896 LINE",
"896 896 LINE",
"896 960 LINE",
"896 1024 LINE",
"832 1024 LINE",
"768 1024 LINE",
"768 960 LINE",
"768 896 LINE",
"704 896 LINE",
"640 896 LINE",
"640 832 LINE",
"640 768 LINE",
"576 768 LINE",
"512 768 LINE",
"512 704 LINE",
"512 640 LINE",
"448 640 LINE",
"384 640 LINE",
"384 704 LINE",
"384 768 LINE",
"320 768 LINE",
"256 768 LINE",
"256 832 LINE",
"256 896 LINE",
"320 896 LINE",
"384 896 LINE",
"384 960 LINE",
"384 1024 LINE",
"192 1024 LINE",
"0 1024 LINE",
"0 960 LINE",
"0 896 LINE"
);
},
{
closed = 1;
nodes = (
"320 512 LINE",
"256 512 LINE",
"256 576 LINE",
"256 640 LINE",
"320 640 LINE",
"384 640 LINE",
"384 576 LINE",
"384 512 LINE"
);
}
);
width = 1024;
}
);
note = "\012    threequarters\012  ";
unicode = 00BE;
},
{
glyphname = questiondown;
lastChange = "2016-07-05 20:04:06 +0000";
layers = (
{
layerId = "9D510E40-B89B-4DEE-9F00-CDF72199B32A";
paths = (
{
closed = 1;
nodes = (
"192 640 LINE",
"128 640 LINE",
"128 576 LINE",
"128 512 LINE",
"64 512 LINE",
"0 512 LINE",
"0 384 LINE",
"0 256 LINE",
"64 256 LINE",
"128 256 LINE",
"128 192 LINE",
"128 128 LINE",
"448 128 LINE",
"768 128 LINE",
"768 192 LINE",
"768 256 LINE",
"832 256 LINE",
"896 256 LINE",
"896 384 LINE",
"896 512 LINE",
"768 512 LINE",
"640 512 LINE",
"640 448 LINE",
"640 384 LINE",
"448 384 LINE",
"256 384 LINE",
"256 448 LINE",
"256 512 LINE",
"320 512 LINE",
"384 512 LINE",
"384 576 LINE",
"384 640 LINE",
"512 640 LINE",
"640 640 LINE",
"640 704 LINE",
"640 768 LINE",
"448 768 LINE",
"256 768 LINE",
"256 704 LINE",
"256 640 LINE"
);
},
{
closed = 1;
nodes = (
"448 896 LINE",
"640 896 LINE",
"640 960 LINE",
"640 1024 LINE",
"448 1024 LINE",
"256 1024 LINE",
"256 960 LINE",
"256 896 LINE"
);
}
);
width = 1024;
}
);
note = "\012    questiondown\012  ";
unicode = 00BF;
},
{
glyphname = Agrave;
lastChange = "2016-07-05 20:04:06 +0000";
layers = (
{
layerId = "9D510E40-B89B-4DEE-9F00-CDF72199B32A";
paths = (
{
closed = 1;
nodes = (
"320 896 LINE",
"384 896 LINE",
"384 832 LINE",
"384 768 LINE",
"320 768 LINE",
"256 768 LINE",
"256 704 LINE",
"256 640 LINE",
"192 640 LINE",
"128 640 LINE",
"128 576 LINE",
"128 512 LINE",
"64 512 LINE",
"0 512 LINE",
"0 320 LINE",
"0 128 LINE",
"128 128 LINE",
"256 128 LINE",
"256 192 LINE",
"256 256 LINE",
"448 256 LINE",
"640 256 LINE",
"640 192 LINE",
"640 128 LINE",
"768 128 LINE",
"896 128 LINE",
"896 320 LINE",
"896 512 LINE",
"832 512 LINE",
"768 512 LINE",
"768 576 LINE",
"768 640 LINE",
"704 640 LINE",
"640 640 LINE",
"640 704 LINE",
"640 768 LINE",
"576 768 LINE",
"512 768 LINE",
"512 832 LINE",
"512 896 LINE",
"448 896 LINE",
"384 896 LINE",
"384 960 LINE",
"384 1024 LINE",
"320 1024 LINE",
"256 1024 LINE",
"256 960 LINE",
"256 896 LINE"
);
},
{
closed = 1;
nodes = (
"576 512 LINE",
"640 512 LINE",
"640 448 LINE",
"640 384 LINE",
"448 384 LINE",
"256 384 LINE",
"256 448 LINE",
"256 512 LINE",
"320 512 LINE",
"384 512 LINE",
"384 576 LINE",
"384 640 LINE",
"448 640 LINE",
"512 640 LINE",
"512 576 LINE",
"512 512 LINE"
);
}
);
width = 1024;
}
);
note = "\012    Agrave\012  ";
unicode = 00C0;
},
{
glyphname = Aacute;
lastChange = "2016-07-05 20:04:06 +0000";
layers = (
{
layerId = "9D510E40-B89B-4DEE-9F00-CDF72199B32A";
paths = (
{
closed = 1;
nodes = (
"448 896 LINE",
"384 896 LINE",
"384 832 LINE",
"384 768 LINE",
"320 768 LINE",
"256 768 LINE",
"256 704 LINE",
"256 640 LINE",
"192 640 LINE",
"128 640 LINE",
"128 576 LINE",
"128 512 LINE",
"64 512 LINE",
"0 512 LINE",
"0 320 LINE",
"0 128 LINE",
"128 128 LINE",
"256 128 LINE",
"256 192 LINE",
"256 256 LINE",
"448 256 LINE",
"640 256 LINE",
"640 192 LINE",
"640 128 LINE",
"768 128 LINE",
"896 128 LINE",
"896 320 LINE",
"896 512 LINE",
"832 512 LINE",
"768 512 LINE",
"768 576 LINE",
"768 640 LINE",
"704 640 LINE",
"640 640 LINE",
"640 704 LINE",
"640 768 LINE",
"576 768 LINE",
"512 768 LINE",
"512 832 LINE",
"512 896 LINE",
"576 896 LINE",
"640 896 LINE",
"640 960 LINE",
"640 1024 LINE",
"576 1024 LINE",
"512 1024 LINE",
"512 960 LINE",
"512 896 LINE"
);
},
{
closed = 1;
nodes = (
"576 512 LINE",
"640 512 LINE",
"640 448 LINE",
"640 384 LINE",
"448 384 LINE",
"256 384 LINE",
"256 448 LINE",
"256 512 LINE",
"320 512 LINE",
"384 512 LINE",
"384 576 LINE",
"384 640 LINE",
"448 640 LINE",
"512 640 LINE",
"512 576 LINE",
"512 512 LINE"
);
}
);
width = 1024;
}
);
note = "\012    Aacute\012  ";
unicode = 00C1;
},
{
glyphname = Acircumflex;
lastChange = "2016-07-05 20:04:06 +0000";
layers = (
{
layerId = "9D510E40-B89B-4DEE-9F00-CDF72199B32A";
paths = (
{
closed = 1;
nodes = (
"192 896 LINE",
"128 896 LINE",
"128 832 LINE",
"128 768 LINE",
"192 768 LINE",
"256 768 LINE",
"256 704 LINE",
"256 640 LINE",
"192 640 LINE",
"128 640 LINE",
"128 576 LINE",
"128 512 LINE",
"64 512 LINE",
"0 512 LINE",
"0 320 LINE",
"0 128 LINE",
"128 128 LINE",
"256 128 LINE",
"256 192 LINE",
"256 256 LINE",
"448 256 LINE",
"640 256 LINE",
"640 192 LINE",
"640 128 LINE",
"768 128 LINE",
"896 128 LINE",
"896 320 LINE",
"896 512 LINE",
"832 512 LINE",
"768 512 LINE",
"768 576 LINE",
"768 640 LINE",
"704 640 LINE",
"640 640 LINE",
"640 704 LINE",
"640 768 LINE",
"704 768 LINE",
"768 768 LINE",
"768 832 LINE",
"768 896 LINE",
"704 896 LINE",
"640 896 LINE",
"640 960 LINE",
"640 1024 LINE",
"448 1024 LINE",
"256 1024 LINE",
"256 960 LINE",
"256 896 LINE"
);
},
{
closed = 1;
nodes = (
"448 768 LINE",
"384 768 LINE",
"384 832 LINE",
"384 896 LINE",
"448 896 LINE",
"512 896 LINE",
"512 832 LINE",
"512 768 LINE"
);
},
{
closed = 1;
nodes = (
"576 512 LINE",
"640 512 LINE",
"640 448 LINE",
"640 384 LINE",
"448 384 LINE",
"256 384 LINE",
"256 448 LINE",
"256 512 LINE",
"320 512 LINE",
"384 512 LINE",
"384 576 LINE",
"384 640 LINE",
"448 640 LINE",
"512 640 LINE",
"512 576 LINE",
"512 512 LINE"
);
}
);
width = 1024;
}
);
note = "\012    Acircumflex\012  ";
unicode = 00C2;
},
{
glyphname = Atilde;
lastChange = "2016-07-05 20:04:06 +0000";
layers = (
{
layerId = "9D510E40-B89B-4DEE-9F00-CDF72199B32A";
paths = (
{
closed = 1;
nodes = (
"192 896 LINE",
"128 896 LINE",
"128 832 LINE",
"128 768 LINE",
"192 768 LINE",
"256 768 LINE",
"256 704 LINE",
"256 640 LINE",
"192 640 LINE",
"128 640 LINE",
"128 576 LINE",
"128 512 LINE",
"64 512 LINE",
"0 512 LINE",
"0 320 LINE",
"0 128 LINE",
"128 128 LINE",
"256 128 LINE",
"256 192 LINE",
"256 256 LINE",
"448 256 LINE",
"640 256 LINE",
"640 192 LINE",
"640 128 LINE",
"768 128 LINE",
"896 128 LINE",
"896 320 LINE",
"896 512 LINE",
"832 512 LINE",
"768 512 LINE",
"768 576 LINE",
"768 640 LINE",
"704 640 LINE",
"640 640 LINE",
"640 768 LINE",
"640 896 LINE",
"704 896 LINE",
"768 896 LINE",
"768 960 LINE",
"768 1024 LINE",
"704 1024 LINE",
"640 1024 LINE",
"640 960 LINE",
"640 896 LINE",
"576 896 LINE",
"512 896 LINE",
"512 960 LINE",
"512 1024 LINE",
"384 1024 LINE",
"256 1024 LINE",
"256 960 LINE",
"256 896 LINE"
);
},
{
closed = 1;
nodes = (
"320 768 LINE",
"256 768 LINE",
"256 832 LINE",
"256 896 LINE",
"320 896 LINE",
"384 896 LINE",
"384 832 LINE",
"384 768 LINE"
);
},
{
closed = 1;
nodes = (
"576 512 LINE",
"640 512 LINE",
"640 448 LINE",
"640 384 LINE",
"448 384 LINE",
"256 384 LINE",
"256 448 LINE",
"256 512 LINE",
"320 512 LINE",
"384 512 LINE",
"384 576 LINE",
"384 640 LINE",
"448 640 LINE",
"512 640 LINE",
"512 576 LINE",
"512 512 LINE"
);
}
);
width = 1024;
}
);
note = "\012    Atilde\012  ";
unicode = 00C3;
},
{
glyphname = Adieresis;
lastChange = "2016-07-05 20:04:06 +0000";
layers = (
{
layerId = "9D510E40-B89B-4DEE-9F00-CDF72199B32A";
paths = (
{
closed = 1;
nodes = (
"192 640 LINE",
"128 640 LINE",
"128 576 LINE",
"128 512 LINE",
"64 512 LINE",
"0 512 LINE",
"0 320 LINE",
"0 128 LINE",
"128 128 LINE",
"256 128 LINE",
"256 192 LINE",
"256 256 LINE",
"448 256 LINE",
"640 256 LINE",
"640 192 LINE",
"640 128 LINE",
"768 128 LINE",
"896 128 LINE",
"896 320 LINE",
"896 512 LINE",
"832 512 LINE",
"768 512 LINE",
"768 576 LINE",
"768 640 LINE",
"704 640 LINE",
"640 640 LINE",
"640 704 LINE",
"640 768 LINE",
"448 768 LINE",
"256 768 LINE",
"256 704 LINE",
"256 640 LINE"
);
},
{
closed = 1;
nodes = (
"576 512 LINE",
"640 512 LINE",
"640 448 LINE",
"640 384 LINE",
"448 384 LINE",
"256 384 LINE",
"256 448 LINE",
"256 512 LINE",
"320 512 LINE",
"384 512 LINE",
"384 576 LINE",
"384 640 LINE",
"448 640 LINE",
"512 640 LINE",
"512 576 LINE",
"512 512 LINE"
);
},
{
closed = 1;
nodes = (
"640 896 LINE",
"768 896 LINE",
"768 960 LINE",
"768 1024 LINE",
"640 1024 LINE",
"512 1024 LINE",
"512 960 LINE",
"512 896 LINE"
);
},
{
closed = 1;
nodes = (
"256 896 LINE",
"384 896 LINE",
"384 960 LINE",
"384 1024 LINE",
"256 1024 LINE",
"128 1024 LINE",
"128 960 LINE",
"128 896 LINE"
);
}
);
width = 1024;
}
);
note = "\012    Adieresis\012  ";
unicode = 00C4;
},
{
glyphname = Aring;
lastChange = "2016-07-05 20:04:06 +0000";
layers = (
{
layerId = "9D510E40-B89B-4DEE-9F00-CDF72199B32A";
paths = (
{
closed = 1;
nodes = (
"320 896 LINE",
"256 896 LINE",
"256 768 LINE",
"256 640 LINE",
"192 640 LINE",
"128 640 LINE",
"128 576 LINE",
"128 512 LINE",
"64 512 LINE",
"0 512 LINE",
"0 320 LINE",
"0 128 LINE",
"128 128 LINE",
"256 128 LINE",
"256 192 LINE",
"256 256 LINE",
"448 256 LINE",
"640 256 LINE",
"640 192 LINE",
"640 128 LINE",
"768 128 LINE",
"896 128 LINE",
"896 320 LINE",
"896 512 LINE",
"832 512 LINE",
"768 512 LINE",
"768 576 LINE",
"768 640 LINE",
"704 640 LINE",
"640 640 LINE",
"640 768 LINE",
"640 896 LINE",
"576 896 LINE",
"512 896 LINE",
"512 960 LINE",
"512 1024 LINE",
"448 1024 LINE",
"384 1024 LINE",
"384 960 LINE",
"384 896 LINE"
);
},
{
closed = 1;
nodes = (
"448 768 LINE",
"384 768 LINE",
"384 832 LINE",
"384 896 LINE",
"448 896 LINE",
"512 896 LINE",
"512 832 LINE",
"512 768 LINE"
);
},
{
closed = 1;
nodes = (
"576 512 LINE",
"640 512 LINE",
"640 448 LINE",
"640 384 LINE",
"448 384 LINE",
"256 384 LINE",
"256 448 LINE",
"256 512 LINE",
"320 512 LINE",
"384 512 LINE",
"384 576 LINE",
"384 640 LINE",
"448 640 LINE",
"512 640 LINE",
"512 576 LINE",
"512 512 LINE"
);
}
);
width = 1024;
}
);
note = "\012    Aring\012  ";
unicode = 00C5;
},
{
glyphname = AE;
lastChange = "2016-07-05 20:04:06 +0000";
layers = (
{
layerId = "9D510E40-B89B-4DEE-9F00-CDF72199B32A";
paths = (
{
closed = 1;
nodes = (
"192 896 LINE",
"128 896 LINE",
"128 832 LINE",
"128 768 LINE",
"64 768 LINE",
"0 768 LINE",
"0 448 LINE",
"0 128 LINE",
"128 128 LINE",
"256 128 LINE",
"256 256 LINE",
"256 384 LINE",
"320 384 LINE",
"384 384 LINE",
"384 256 LINE",
"384 128 LINE",
"640 128 LINE",
"896 128 LINE",
"896 192 LINE",
"896 256 LINE",
"768 256 LINE",
"640 256 LINE",
"640 384 LINE",
"640 512 LINE",
"768 512 LINE",
"896 512 LINE",
"896 576 LINE",
"896 640 LINE",
"768 640 LINE",
"640 640 LINE",
"640 768 LINE",
"640 896 LINE",
"768 896 LINE",
"896 896 LINE",
"896 960 LINE",
"896 1024 LINE",
"576 1024 LINE",
"256 1024 LINE",
"256 960 LINE",
"256 896 LINE"
);
},
{
closed = 1;
nodes = (
"320 512 LINE",
"256 512 LINE",
"256 640 LINE",
"256 768 LINE",
"320 768 LINE",
"384 768 LINE",
"384 640 LINE",
"384 512 LINE"
);
}
);
width = 1024;
}
);
note = "\012    AE\012  ";
unicode = 00C6;
},
{
glyphname = Ccedilla;
lastChange = "2016-07-05 20:04:06 +0000";
layers = (
{
layerId = "9D510E40-B89B-4DEE-9F00-CDF72199B32A";
paths = (
{
closed = 1;
nodes = (
"192 896 LINE",
"128 896 LINE",
"128 832 LINE",
"128 768 LINE",
"64 768 LINE",
"0 768 LINE",
"0 640 LINE",
"0 512 LINE",
"64 512 LINE",
"128 512 LINE",
"128 448 LINE",
"128 384 LINE",
"192 384 LINE",
"256 384 LINE",
"256 320 LINE",
"256 256 LINE",
"384 256 LINE",
"512 256 LINE",
"512 192 LINE",
"512 128 LINE",
"384 128 LINE",
"256 128 LINE",
"256 64 LINE",
"256 0 LINE",
"384 0 LINE",
"512 0 LINE",
"512 64 LINE",
"512 128 LINE",
"576 128 LINE",
"640 128 LINE",
"640 192 LINE",
"640 256 LINE",
"704 256 LINE",
"768 256 LINE",
"768 320 LINE",
"768 384 LINE",
"832 384 LINE",
"896 384 LINE",
"896 448 LINE",
"896 512 LINE",
"768 512 LINE",
"640 512 LINE",
"640 448 LINE",
"640 384 LINE",
"512 384 LINE",
"384 384 LINE",
"384 448 LINE",
"384 512 LINE",
"320 512 LINE",
"256 512 LINE",
"256 640 LINE",
"256 768 LINE",
"320 768 LINE",
"384 768 LINE",
"384 832 LINE",
"384 896 LINE",
"512 896 LINE",
"640 896 LINE",
"640 832 LINE",
"640 768 LINE",
"768 768 LINE",
"896 768 LINE",
"896 832 LINE",
"896 896 LINE",
"832 896 LINE",
"768 896 LINE",
"768 960 LINE",
"768 1024 LINE",
"512 1024 LINE",
"256 1024 LINE",
"256 960 LINE",
"256 896 LINE"
);
}
);
width = 1024;
}
);
note = "\012    Ccedilla\012  ";
unicode = 00C7;
},
{
glyphname = Egrave;
lastChange = "2016-07-05 20:04:06 +0000";
layers = (
{
layerId = "9D510E40-B89B-4DEE-9F00-CDF72199B32A";
paths = (
{
closed = 1;
nodes = (
"320 896 LINE",
"384 896 LINE",
"384 832 LINE",
"384 768 LINE",
"192 768 LINE",
"0 768 LINE",
"0 448 LINE",
"0 128 LINE",
"448 128 LINE",
"896 128 LINE",
"896 192 LINE",
"896 256 LINE",
"576 256 LINE",
"256 256 LINE",
"256 320 LINE",
"256 384 LINE",
"512 384 LINE",
"768 384 LINE",
"768 448 LINE",
"768 512 LINE",
"512 512 LINE",
"256 512 LINE",
"256 576 LINE",
"256 640 LINE",
"576 640 LINE",
"896 640 LINE",
"896 704 LINE",
"896 768 LINE",
"704 768 LINE",
"512 768 LINE",
"512 832 LINE",
"512 896 LINE",
"448 896 LINE",
"384 896 LINE",
"384 960 LINE",
"384 1024 LINE",
"320 1024 LINE",
"256 1024 LINE",
"256 960 LINE",
"256 896 LINE"
);
}
);
width = 1024;
}
);
note = "\012    Egrave\012  ";
unicode = 00C8;
},
{
glyphname = Eacute;
lastChange = "2016-07-05 20:04:06 +0000";
layers = (
{
layerId = "9D510E40-B89B-4DEE-9F00-CDF72199B32A";
paths = (
{
closed = 1;
nodes = (
"448 896 LINE",
"384 896 LINE",
"384 832 LINE",
"384 768 LINE",
"192 768 LINE",
"0 768 LINE",
"0 448 LINE",
"0 128 LINE",
"448 128 LINE",
"896 128 LINE",
"896 192 LINE",
"896 256 LINE",
"576 256 LINE",
"256 256 LINE",
"256 320 LINE",
"256 384 LINE",
"512 384 LINE",
"768 384 LINE",
"768 448 LINE",
"768 512 LINE",
"512 512 LINE",
"256 512 LINE",
"256 576 LINE",
"256 640 LINE",
"576 640 LINE",
"896 640 LINE",
"896 704 LINE",
"896 768 LINE",
"704 768 LINE",
"512 768 LINE",
"512 832 LINE",
"512 896 LINE",
"576 896 LINE",
"640 896 LINE",
"640 960 LINE",
"640 1024 LINE",
"576 1024 LINE",
"512 1024 LINE",
"512 960 LINE",
"512 896 LINE"
);
}
);
width = 1024;
}
);
note = "\012    Eacute\012  ";
unicode = 00C9;
},
{
glyphname = Ecircumflex;
lastChange = "2016-07-05 20:04:06 +0000";
layers = (
{
layerId = "9D510E40-B89B-4DEE-9F00-CDF72199B32A";
paths = (
{
closed = 1;
nodes = (
"192 896 LINE",
"128 896 LINE",
"128 832 LINE",
"128 768 LINE",
"64 768 LINE",
"0 768 LINE",
"0 448 LINE",
"0 128 LINE",
"448 128 LINE",
"896 128 LINE",
"896 192 LINE",
"896 256 LINE",
"576 256 LINE",
"256 256 LINE",
"256 320 LINE",
"256 384 LINE",
"512 384 LINE",
"768 384 LINE",
"768 448 LINE",
"768 512 LINE",
"512 512 LINE",
"256 512 LINE",
"256 576 LINE",
"256 640 LINE",
"576 640 LINE",
"896 640 LINE",
"896 704 LINE",
"896 768 LINE",
"832 768 LINE",
"768 768 LINE",
"768 832 LINE",
"768 896 LINE",
"704 896 LINE",
"640 896 LINE",
"640 960 LINE",
"640 1024 LINE",
"448 1024 LINE",
"256 1024 LINE",
"256 960 LINE",
"256 896 LINE"
);
},
{
closed = 1;
nodes = (
"448 768 LINE",
"384 768 LINE",
"384 832 LINE",
"384 896 LINE",
"448 896 LINE",
"512 896 LINE",
"512 832 LINE",
"512 768 LINE"
);
}
);
width = 1024;
}
);
note = "\012    Ecircumflex\012  ";
unicode = 00CA;
},
{
glyphname = Edieresis;
lastChange = "2016-07-05 20:04:06 +0000";
layers = (
{
layerId = "9D510E40-B89B-4DEE-9F00-CDF72199B32A";
paths = (
{
closed = 1;
nodes = (
"448 128 LINE",
"896 128 LINE",
"896 192 LINE",
"896 256 LINE",
"576 256 LINE",
"256 256 LINE",
"256 320 LINE",
"256 384 LINE",
"512 384 LINE",
"768 384 LINE",
"768 448 LINE",
"768 512 LINE",
"512 512 LINE",
"256 512 LINE",
"256 576 LINE",
"256 640 LINE",
"576 640 LINE",
"896 640 LINE",
"896 704 LINE",
"896 768 LINE",
"448 768 LINE",
"0 768 LINE",
"0 448 LINE",
"0 128 LINE"
);
},
{
closed = 1;
nodes = (
"640 896 LINE",
"768 896 LINE",
"768 960 LINE",
"768 1024 LINE",
"640 1024 LINE",
"512 1024 LINE",
"512 960 LINE",
"512 896 LINE"
);
},
{
closed = 1;
nodes = (
"256 896 LINE",
"384 896 LINE",
"384 960 LINE",
"384 1024 LINE",
"256 1024 LINE",
"128 1024 LINE",
"128 960 LINE",
"128 896 LINE"
);
}
);
width = 1024;
}
);
note = "\012    Edieresis\012  ";
unicode = 00CB;
},
{
glyphname = Igrave;
lastChange = "2016-07-05 20:04:06 +0000";
layers = (
{
layerId = "9D510E40-B89B-4DEE-9F00-CDF72199B32A";
paths = (
{
closed = 1;
nodes = (
"448 896 LINE",
"512 896 LINE",
"512 832 LINE",
"512 768 LINE",
"320 768 LINE",
"128 768 LINE",
"128 704 LINE",
"128 640 LINE",
"256 640 LINE",
"384 640 LINE",
"384 448 LINE",
"384 256 LINE",
"256 256 LINE",
"128 256 LINE",
"128 192 LINE",
"128 128 LINE",
"512 128 LINE",
"896 128 LINE",
"896 192 LINE",
"896 256 LINE",
"768 256 LINE",
"640 256 LINE",
"640 448 LINE",
"640 640 LINE",
"768 640 LINE",
"896 640 LINE",
"896 704 LINE",
"896 768 LINE",
"768 768 LINE",
"640 768 LINE",
"640 832 LINE",
"640 896 LINE",
"576 896 LINE",
"512 896 LINE",
"512 960 LINE",
"512 1024 LINE",
"448 1024 LINE",
"384 1024 LINE",
"384 960 LINE",
"384 896 LINE"
);
}
);
width = 1024;
}
);
note = "\012    Igrave\012  ";
unicode = 00CC;
},
{
glyphname = Iacute;
lastChange = "2016-07-05 20:04:06 +0000";
layers = (
{
layerId = "9D510E40-B89B-4DEE-9F00-CDF72199B32A";
paths = (
{
closed = 1;
nodes = (
"448 896 LINE",
"384 896 LINE",
"384 832 LINE",
"384 768 LINE",
"256 768 LINE",
"128 768 LINE",
"128 704 LINE",
"128 640 LINE",
"256 640 LINE",
"384 640 LINE",
"384 448 LINE",
"384 256 LINE",
"256 256 LINE",
"128 256 LINE",
"128 192 LINE",
"128 128 LINE",
"512 128 LINE",
"896 128 LINE",
"896 192 LINE",
"896 256 LINE",
"768 256 LINE",
"640 256 LINE",
"640 448 LINE",
"640 640 LINE",
"768 640 LINE",
"896 640 LINE",
"896 704 LINE",
"896 768 LINE",
"704 768 LINE",
"512 768 LINE",
"512 832 LINE",
"512 896 LINE",
"576 896 LINE",
"640 896 LINE",
"640 960 LINE",
"640 1024 LINE",
"576 1024 LINE",
"512 1024 LINE",
"512 960 LINE",
"512 896 LINE"
);
}
);
width = 1024;
}
);
note = "\012    Iacute\012  ";
unicode = 00CD;
},
{
glyphname = Icircumflex;
lastChange = "2016-07-05 20:04:06 +0000";
layers = (
{
layerId = "9D510E40-B89B-4DEE-9F00-CDF72199B32A";
paths = (
{
closed = 1;
nodes = (
"320 896 LINE",
"256 896 LINE",
"256 832 LINE",
"256 768 LINE",
"192 768 LINE",
"128 768 LINE",
"128 704 LINE",
"128 640 LINE",
"256 640 LINE",
"384 640 LINE",
"384 448 LINE",
"384 256 LINE",
"256 256 LINE",
"128 256 LINE",
"128 192 LINE",
"128 128 LINE",
"512 128 LINE",
"896 128 LINE",
"896 192 LINE",
"896 256 LINE",
"768 256 LINE",
"640 256 LINE",
"640 448 LINE",
"640 640 LINE",
"768 640 LINE",
"896 640 LINE",
"896 704 LINE",
"896 768 LINE",
"832 768 LINE",
"768 768 LINE",
"768 832 LINE",
"768 896 LINE",
"704 896 LINE",
"640 896 LINE",
"640 960 LINE",
"640 1024 LINE",
"512 1024 LINE",
"384 1024 LINE",
"384 960 LINE",
"384 896 LINE"
);
}
);
width = 1024;
}
);
note = "\012    Icircumflex\012  ";
unicode = 00CE;
},
{
glyphname = Idieresis;
lastChange = "2016-07-05 20:04:06 +0000";
layers = (
{
layerId = "9D510E40-B89B-4DEE-9F00-CDF72199B32A";
paths = (
{
closed = 1;
nodes = (
"256 640 LINE",
"384 640 LINE",
"384 448 LINE",
"384 256 LINE",
"256 256 LINE",
"128 256 LINE",
"128 192 LINE",
"128 128 LINE",
"512 128 LINE",
"896 128 LINE",
"896 192 LINE",
"896 256 LINE",
"768 256 LINE",
"640 256 LINE",
"640 448 LINE",
"640 640 LINE",
"768 640 LINE",
"896 640 LINE",
"896 704 LINE",
"896 768 LINE",
"512 768 LINE",
"128 768 LINE",
"128 704 LINE",
"128 640 LINE"
);
},
{
closed = 1;
nodes = (
"768 896 LINE",
"896 896 LINE",
"896 960 LINE",
"896 1024 LINE",
"768 1024 LINE",
"640 1024 LINE",
"640 960 LINE",
"640 896 LINE"
);
},
{
closed = 1;
nodes = (
"256 896 LINE",
"384 896 LINE",
"384 960 LINE",
"384 1024 LINE",
"256 1024 LINE",
"128 1024 LINE",
"128 960 LINE",
"128 896 LINE"
);
}
);
width = 1024;
}
);
note = "\012    Idieresis\012  ";
unicode = 00CF;
},
{
glyphname = Eth;
lastChange = "2016-07-05 20:04:06 +0000";
layers = (
{
layerId = "9D510E40-B89B-4DEE-9F00-CDF72199B32A";
paths = (
{
closed = 1;
nodes = (
"64 640 LINE",
"0 640 LINE",
"0 576 LINE",
"0 512 LINE",
"64 512 LINE",
"128 512 LINE",
"128 320 LINE",
"128 128 LINE",
"384 128 LINE",
"640 128 LINE",
"640 192 LINE",
"640 256 LINE",
"704 256 LINE",
"768 256 LINE",
"768 320 LINE",
"768 384 LINE",
"832 384 LINE",
"896 384 LINE",
"896 576 LINE",
"896 768 LINE",
"832 768 LINE",
"768 768 LINE",
"768 832 LINE",
"768 896 LINE",
"704 896 LINE",
"640 896 LINE",
"640 960 LINE",
"640 1024 LINE",
"384 1024 LINE",
"128 1024 LINE",
"128 832 LINE",
"128 640 LINE"
);
},
{
closed = 1;
nodes = (
"576 768 LINE",
"640 768 LINE",
"640 576 LINE",
"640 384 LINE",
"576 384 LINE",
"512 384 LINE",
"512 320 LINE",
"512 256 LINE",
"448 256 LINE",
"384 256 LINE",
"384 384 LINE",
"384 512 LINE",
"448 512 LINE",
"512 512 LINE",
"512 576 LINE",
"512 640 LINE",
"448 640 LINE",
"384 640 LINE",
"384 768 LINE",
"384 896 LINE",
"448 896 LINE",
"512 896 LINE",
"512 832 LINE",
"512 768 LINE"
);
}
);
width = 1024;
}
);
note = "\012    Eth\012  ";
unicode = 00D0;
},
{
glyphname = Ntilde;
lastChange = "2016-07-05 20:04:06 +0000";
layers = (
{
layerId = "9D510E40-B89B-4DEE-9F00-CDF72199B32A";
paths = (
{
closed = 1;
nodes = (
"192 896 LINE",
"128 896 LINE",
"128 832 LINE",
"128 768 LINE",
"64 768 LINE",
"0 768 LINE",
"0 448 LINE",
"0 128 LINE",
"128 128 LINE",
"256 128 LINE",
"256 256 LINE",
"256 384 LINE",
"320 384 LINE",
"384 384 LINE",
"384 320 LINE",
"384 256 LINE",
"448 256 LINE",
"512 256 LINE",
"512 192 LINE",
"512 128 LINE",
"704 128 LINE",
"896 128 LINE",
"896 448 LINE",
"896 768 LINE",
"768 768 LINE",
"640 768 LINE",
"640 832 LINE",
"640 896 LINE",
"704 896 LINE",
"768 896 LINE",
"768 960 LINE",
"768 1024 LINE",
"704 1024 LINE",
"640 1024 LINE",
"640 960 LINE",
"640 896 LINE",
"576 896 LINE",
"512 896 LINE",
"512 960 LINE",
"512 1024 LINE",
"384 1024 LINE",
"256 1024 LINE",
"256 960 LINE",
"256 896 LINE"
);
},
{
closed = 1;
nodes = (
"512 768 LINE",
"640 768 LINE",
"640 640 LINE",
"640 512 LINE",
"576 512 LINE",
"512 512 LINE",
"512 576 LINE",
"512 640 LINE",
"448 640 LINE",
"384 640 LINE",
"384 704 LINE",
"384 768 LINE",
"320 768 LINE",
"256 768 LINE",
"256 832 LINE",
"256 896 LINE",
"320 896 LINE",
"384 896 LINE",
"384 832 LINE",
"384 768 LINE"
);
}
);
width = 1024;
}
);
note = "\012    Ntilde\012  ";
unicode = 00D1;
},
{
glyphname = Ograve;
lastChange = "2016-07-05 20:04:06 +0000";
layers = (
{
layerId = "9D510E40-B89B-4DEE-9F00-CDF72199B32A";
paths = (
{
closed = 1;
nodes = (
"320 896 LINE",
"384 896 LINE",
"384 832 LINE",
"384 768 LINE",
"256 768 LINE",
"128 768 LINE",
"128 704 LINE",
"128 640 LINE",
"64 640 LINE",
"0 640 LINE",
"0 448 LINE",
"0 256 LINE",
"64 256 LINE",
"128 256 LINE",
"128 192 LINE",
"128 128 LINE",
"448 128 LINE",
"768 128 LINE",
"768 192 LINE",
"768 256 LINE",
"832 256 LINE",
"896 256 LINE",
"896 448 LINE",
"896 640 LINE",
"832 640 LINE",
"768 640 LINE",
"768 704 LINE",
"768 768 LINE",
"640 768 LINE",
"512 768 LINE",
"512 832 LINE",
"512 896 LINE",
"448 896 LINE",
"384 896 LINE",
"384 960 LINE",
"384 1024 LINE",
"320 1024 LINE",
"256 1024 LINE",
"256 960 LINE",
"256 896 LINE"
);
},
{
closed = 1;
nodes = (
"448 256 LINE",
"256 256 LINE",
"256 448 LINE",
"256 640 LINE",
"448 640 LINE",
"640 640 LINE",
"640 448 LINE",
"640 256 LINE"
);
}
);
width = 1024;
}
);
note = "\012    Ograve\012  ";
unicode = 00D2;
},
{
glyphname = Oacute;
lastChange = "2016-07-05 20:04:06 +0000";
layers = (
{
layerId = "9D510E40-B89B-4DEE-9F00-CDF72199B32A";
paths = (
{
closed = 1;
nodes = (
"448 896 LINE",
"384 896 LINE",
"384 832 LINE",
"384 768 LINE",
"256 768 LINE",
"128 768 LINE",
"128 704 LINE",
"128 640 LINE",
"64 640 LINE",
"0 640 LINE",
"0 448 LINE",
"0 256 LINE",
"64 256 LINE",
"128 256 LINE",
"128 192 LINE",
"128 128 LINE",
"448 128 LINE",
"768 128 LINE",
"768 192 LINE",
"768 256 LINE",
"832 256 LINE",
"896 256 LINE",
"896 448 LINE",
"896 640 LINE",
"832 640 LINE",
"768 640 LINE",
"768 704 LINE",
"768 768 LINE",
"640 768 LINE",
"512 768 LINE",
"512 832 LINE",
"512 896 LINE",
"576 896 LINE",
"640 896 LINE",
"640 960 LINE",
"640 1024 LINE",
"576 1024 LINE",
"512 1024 LINE",
"512 960 LINE",
"512 896 LINE"
);
},
{
closed = 1;
nodes = (
"448 256 LINE",
"256 256 LINE",
"256 448 LINE",
"256 640 LINE",
"448 640 LINE",
"640 640 LINE",
"640 448 LINE",
"640 256 LINE"
);
}
);
width = 1024;
}
);
note = "\012    Oacute\012  ";
unicode = 00D3;
},
{
glyphname = Ocircumflex;
lastChange = "2016-07-05 20:04:06 +0000";
layers = (
{
layerId = "9D510E40-B89B-4DEE-9F00-CDF72199B32A";
paths = (
{
closed = 1;
nodes = (
"192 896 LINE",
"128 896 LINE",
"128 768 LINE",
"128 640 LINE",
"64 640 LINE",
"0 640 LINE",
"0 448 LINE",
"0 256 LINE",
"64 256 LINE",
"128 256 LINE",
"128 192 LINE",
"128 128 LINE",
"448 128 LINE",
"768 128 LINE",
"768 192 LINE",
"768 256 LINE",
"832 256 LINE",
"896 256 LINE",
"896 448 LINE",
"896 640 LINE",
"832 640 LINE",
"768 640 LINE",
"768 768 LINE",
"768 896 LINE",
"704 896 LINE",
"640 896 LINE",
"640 960 LINE",
"640 1024 LINE",
"448 1024 LINE",
"256 1024 LINE",
"256 960 LINE",
"256 896 LINE"
);
},
{
closed = 1;
nodes = (
"448 768 LINE",
"384 768 LINE",
"384 832 LINE",
"384 896 LINE",
"448 896 LINE",
"512 896 LINE",
"512 832 LINE",
"512 768 LINE"
);
},
{
closed = 1;
nodes = (
"448 256 LINE",
"256 256 LINE",
"256 448 LINE",
"256 640 LINE",
"448 640 LINE",
"640 640 LINE",
"640 448 LINE",
"640 256 LINE"
);
}
);
width = 1024;
}
);
note = "\012    Ocircumflex\012  ";
unicode = 00D4;
},
{
glyphname = Otilde;
lastChange = "2016-07-05 20:04:06 +0000";
layers = (
{
layerId = "9D510E40-B89B-4DEE-9F00-CDF72199B32A";
paths = (
{
closed = 1;
nodes = (
"192 896 LINE",
"128 896 LINE",
"128 768 LINE",
"128 640 LINE",
"64 640 LINE",
"0 640 LINE",
"0 448 LINE",
"0 256 LINE",
"64 256 LINE",
"128 256 LINE",
"128 192 LINE",
"128 128 LINE",
"448 128 LINE",
"768 128 LINE",
"768 192 LINE",
"768 256 LINE",
"832 256 LINE",
"896 256 LINE",
"896 448 LINE",
"896 640 LINE",
"832 640 LINE",
"768 640 LINE",
"768 704 LINE",
"768 768 LINE",
"704 768 LINE",
"640 768 LINE",
"640 832 LINE",
"640 896 LINE",
"704 896 LINE",
"768 896 LINE",
"768 960 LINE",
"768 1024 LINE",
"704 1024 LINE",
"640 1024 LINE",
"640 960 LINE",
"640 896 LINE",
"576 896 LINE",
"512 896 LINE",
"512 960 LINE",
"512 1024 LINE",
"384 1024 LINE",
"256 1024 LINE",
"256 960 LINE",
"256 896 LINE"
);
},
{
closed = 1;
nodes = (
"320 768 LINE",
"256 768 LINE",
"256 832 LINE",
"256 896 LINE",
"320 896 LINE",
"384 896 LINE",
"384 832 LINE",
"384 768 LINE"
);
},
{
closed = 1;
nodes = (
"448 256 LINE",
"256 256 LINE",
"256 448 LINE",
"256 640 LINE",
"448 640 LINE",
"640 640 LINE",
"640 448 LINE",
"640 256 LINE"
);
}
);
width = 1024;
}
);
note = "\012    Otilde\012  ";
unicode = 00D5;
},
{
glyphname = Odieresis;
lastChange = "2016-07-05 20:04:06 +0000";
layers = (
{
layerId = "9D510E40-B89B-4DEE-9F00-CDF72199B32A";
paths = (
{
closed = 1;
nodes = (
"64 640 LINE",
"0 640 LINE",
"0 448 LINE",
"0 256 LINE",
"64 256 LINE",
"128 256 LINE",
"128 192 LINE",
"128 128 LINE",
"448 128 LINE",
"768 128 LINE",
"768 192 LINE",
"768 256 LINE",
"832 256 LINE",
"896 256 LINE",
"896 448 LINE",
"896 640 LINE",
"832 640 LINE",
"768 640 LINE",
"768 704 LINE",
"768 768 LINE",
"448 768 LINE",
"128 768 LINE",
"128 704 LINE",
"128 640 LINE"
);
},
{
closed = 1;
nodes = (
"448 256 LINE",
"256 256 LINE",
"256 448 LINE",
"256 640 LINE",
"448 640 LINE",
"640 640 LINE",
"640 448 LINE",
"640 256 LINE"
);
},
{
closed = 1;
nodes = (
"640 896 LINE",
"768 896 LINE",
"768 960 LINE",
"768 1024 LINE",
"640 1024 LINE",
"512 1024 LINE",
"512 960 LINE",
"512 896 LINE"
);
},
{
closed = 1;
nodes = (
"256 896 LINE",
"384 896 LINE",
"384 960 LINE",
"384 1024 LINE",
"256 1024 LINE",
"128 1024 LINE",
"128 960 LINE",
"128 896 LINE"
);
}
);
width = 1024;
}
);
note = "\012    Odieresis\012  ";
unicode = 00D6;
},
{
glyphname = multiply;
lastChange = "2016-07-05 20:04:06 +0000";
layers = (
{
layerId = "9D510E40-B89B-4DEE-9F00-CDF72199B32A";
paths = (
{
closed = 1;
nodes = (
"192 768 LINE",
"256 768 LINE",
"256 704 LINE",
"256 640 LINE",
"320 640 LINE",
"384 640 LINE",
"384 576 LINE",
"384 512 LINE",
"320 512 LINE",
"256 512 LINE",
"256 448 LINE",
"256 384 LINE",
"192 384 LINE",
"128 384 LINE",
"128 320 LINE",
"128 256 LINE",
"192 256 LINE",
"256 256 LINE",
"256 320 LINE",
"256 384 LINE",
"320 384 LINE",
"384 384 LINE",
"384 448 LINE",
"384 512 LINE",
"448 512 LINE",
"512 512 LINE",
"512 448 LINE",
"512 384 LINE",
"576 384 LINE",
"640 384 LINE",
"640 320 LINE",
"640 256 LINE",
"704 256 LINE",
"768 256 LINE",
"768 320 LINE",
"768 384 LINE",
"704 384 LINE",
"640 384 LINE",
"640 448 LINE",
"640 512 LINE",
"576 512 LINE",
"512 512 LINE",
"512 576 LINE",
"512 640 LINE",
"576 640 LINE",
"640 640 LINE",
"640 704 LINE",
"640 768 LINE",
"704 768 LINE",
"768 768 LINE",
"768 832 LINE",
"768 896 LINE",
"704 896 LINE",
"640 896 LINE",
"640 832 LINE",
"640 768 LINE",
"576 768 LINE",
"512 768 LINE",
"512 704 LINE",
"512 640 LINE",
"448 640 LINE",
"384 640 LINE",
"384 704 LINE",
"384 768 LINE",
"320 768 LINE",
"256 768 LINE",
"256 832 LINE",
"256 896 LINE",
"192 896 LINE",
"128 896 LINE",
"128 832 LINE",
"128 768 LINE"
);
}
);
width = 1024;
}
);
note = "\012    multiply\012  ";
unicode = 00D7;
},
{
glyphname = Oslash;
lastChange = "2016-07-05 20:04:06 +0000";
layers = (
{
layerId = "9D510E40-B89B-4DEE-9F00-CDF72199B32A";
paths = (
{
closed = 1;
nodes = (
"448 512 LINE",
"512 512 LINE",
"512 576 LINE",
"512 640 LINE",
"448 640 LINE",
"384 640 LINE",
"384 576 LINE",
"384 512 LINE"
);
},
{
closed = 1;
nodes = (
"64 896 LINE",
"0 896 LINE",
"0 576 LINE",
"0 256 LINE",
"64 256 LINE",
"128 256 LINE",
"128 192 LINE",
"128 128 LINE",
"448 128 LINE",
"768 128 LINE",
"768 192 LINE",
"768 256 LINE",
"832 256 LINE",
"896 256 LINE",
"896 576 LINE",
"896 896 LINE",
"832 896 LINE",
"768 896 LINE",
"768 960 LINE",
"768 1024 LINE",
"448 1024 LINE",
"128 1024 LINE",
"128 960 LINE",
"128 896 LINE"
);
},
{
closed = 1;
nodes = (
"576 768 LINE",
"512 768 LINE",
"512 704 LINE",
"512 640 LINE",
"576 640 LINE",
"640 640 LINE",
"640 448 LINE",
"640 256 LINE",
"448 256 LINE",
"256 256 LINE",
"256 320 LINE",
"256 384 LINE",
"320 384 LINE",
"384 384 LINE",
"384 448 LINE",
"384 512 LINE",
"320 512 LINE",
"256 512 LINE",
"256 704 LINE",
"256 896 LINE",
"448 896 LINE",
"640 896 LINE",
"640 832 LINE",
"640 768 LINE"
);
}
);
width = 1024;
}
);
note = "\012    Oslash\012  ";
unicode = 00D8;
},
{
glyphname = Ugrave;
lastChange = "2016-07-05 20:04:06 +0000";
layers = (
{
layerId = "9D510E40-B89B-4DEE-9F00-CDF72199B32A";
paths = (
{
closed = 1;
nodes = (
"64 256 LINE",
"128 256 LINE",
"128 192 LINE",
"128 128 LINE",
"448 128 LINE",
"768 128 LINE",
"768 192 LINE",
"768 256 LINE",
"832 256 LINE",
"896 256 LINE",
"896 512 LINE",
"896 768 LINE",
"768 768 LINE",
"640 768 LINE",
"640 512 LINE",
"640 256 LINE",
"448 256 LINE",
"256 256 LINE",
"256 512 LINE",
"256 768 LINE",
"128 768 LINE",
"0 768 LINE",
"0 512 LINE",
"0 256 LINE"
);
},
{
closed = 1;
nodes = (
"320 896 LINE",
"384 896 LINE",
"384 832 LINE",
"384 768 LINE",
"448 768 LINE",
"512 768 LINE",
"512 832 LINE",
"512 896 LINE",
"448 896 LINE",
"384 896 LINE",
"384 960 LINE",
"384 1024 LINE",
"320 1024 LINE",
"256 1024 LINE",
"256 960 LINE",
"256 896 LINE"
);
}
);
width = 1024;
}
);
note = "\012    Ugrave\012  ";
unicode = 00D9;
},
{
glyphname = Uacute;
lastChange = "2016-07-05 20:04:06 +0000";
layers = (
{
layerId = "9D510E40-B89B-4DEE-9F00-CDF72199B32A";
paths = (
{
closed = 1;
nodes = (
"64 256 LINE",
"128 256 LINE",
"128 192 LINE",
"128 128 LINE",
"448 128 LINE",
"768 128 LINE",
"768 192 LINE",
"768 256 LINE",
"832 256 LINE",
"896 256 LINE",
"896 512 LINE",
"896 768 LINE",
"768 768 LINE",
"640 768 LINE",
"640 512 LINE",
"640 256 LINE",
"448 256 LINE",
"256 256 LINE",
"256 512 LINE",
"256 768 LINE",
"128 768 LINE",
"0 768 LINE",
"0 512 LINE",
"0 256 LINE"
);
},
{
closed = 1;
nodes = (
"448 896 LINE",
"384 896 LINE",
"384 832 LINE",
"384 768 LINE",
"448 768 LINE",
"512 768 LINE",
"512 832 LINE",
"512 896 LINE",
"576 896 LINE",
"640 896 LINE",
"640 960 LINE",
"640 1024 LINE",
"576 1024 LINE",
"512 1024 LINE",
"512 960 LINE",
"512 896 LINE"
);
}
);
width = 1024;
}
);
note = "\012    Uacute\012  ";
unicode = 00DA;
},
{
glyphname = Ucircumflex;
lastChange = "2016-07-05 20:04:06 +0000";
layers = (
{
layerId = "9D510E40-B89B-4DEE-9F00-CDF72199B32A";
paths = (
{
closed = 1;
nodes = (
"64 256 LINE",
"128 256 LINE",
"128 192 LINE",
"128 128 LINE",
"448 128 LINE",
"768 128 LINE",
"768 192 LINE",
"768 256 LINE",
"832 256 LINE",
"896 256 LINE",
"896 448 LINE",
"896 640 LINE",
"768 640 LINE",
"640 640 LINE",
"640 448 LINE",
"640 256 LINE",
"448 256 LINE",
"256 256 LINE",
"256 448 LINE",
"256 640 LINE",
"128 640 LINE",
"0 640 LINE",
"0 448 LINE",
"0 256 LINE"
);
},
{
closed = 1;
nodes = (
"192 896 LINE",
"128 896 LINE",
"128 832 LINE",
"128 768 LINE",
"256 768 LINE",
"384 768 LINE",
"384 832 LINE",
"384 896 LINE",
"448 896 LINE",
"512 896 LINE",
"512 832 LINE",
"512 768 LINE",
"640 768 LINE",
"768 768 LINE",
"768 832 LINE",
"768 896 LINE",
"704 896 LINE",
"640 896 LINE",
"640 960 LINE",
"640 1024 LINE",
"448 1024 LINE",
"256 1024 LINE",
"256 960 LINE",
"256 896 LINE"
);
}
);
width = 1024;
}
);
note = "\012    Ucircumflex\012  ";
unicode = 00DB;
},
{
glyphname = Udieresis;
lastChange = "2016-07-05 20:04:06 +0000";
layers = (
{
layerId = "9D510E40-B89B-4DEE-9F00-CDF72199B32A";
paths = (
{
closed = 1;
nodes = (
"64 256 LINE",
"128 256 LINE",
"128 192 LINE",
"128 128 LINE",
"448 128 LINE",
"768 128 LINE",
"768 192 LINE",
"768 256 LINE",
"832 256 LINE",
"896 256 LINE",
"896 512 LINE",
"896 768 LINE",
"768 768 LINE",
"640 768 LINE",
"640 512 LINE",
"640 256 LINE",
"448 256 LINE",
"256 256 LINE",
"256 512 LINE",
"256 768 LINE",
"128 768 LINE",
"0 768 LINE",
"0 512 LINE",
"0 256 LINE"
);
},
{
closed = 1;
nodes = (
"640 896 LINE",
"768 896 LINE",
"768 960 LINE",
"768 1024 LINE",
"640 1024 LINE",
"512 1024 LINE",
"512 960 LINE",
"512 896 LINE"
);
},
{
closed = 1;
nodes = (
"256 896 LINE",
"384 896 LINE",
"384 960 LINE",
"384 1024 LINE",
"256 1024 LINE",
"128 1024 LINE",
"128 960 LINE",
"128 896 LINE"
);
}
);
width = 1024;
}
);
note = "\012    Udieresis\012  ";
unicode = 00DC;
},
{
glyphname = Yacute;
lastChange = "2016-07-05 20:04:06 +0000";
layers = (
{
layerId = "9D510E40-B89B-4DEE-9F00-CDF72199B32A";
paths = (
{
closed = 1;
nodes = (
"448 896 LINE",
"384 896 LINE",
"384 832 LINE",
"384 768 LINE",
"256 768 LINE",
"128 768 LINE",
"128 640 LINE",
"128 512 LINE",
"192 512 LINE",
"256 512 LINE",
"256 448 LINE",
"256 384 LINE",
"320 384 LINE",
"384 384 LINE",
"384 256 LINE",
"384 128 LINE",
"512 128 LINE",
"640 128 LINE",
"640 256 LINE",
"640 384 LINE",
"704 384 LINE",
"768 384 LINE",
"768 448 LINE",
"768 512 LINE",
"832 512 LINE",
"896 512 LINE",
"896 640 LINE",
"896 768 LINE",
"768 768 LINE",
"640 768 LINE",
"640 640 LINE",
"640 512 LINE",
"512 512 LINE",
"384 512 LINE",
"384 640 LINE",
"384 768 LINE",
"448 768 LINE",
"512 768 LINE",
"512 832 LINE",
"512 896 LINE",
"576 896 LINE",
"640 896 LINE",
"640 960 LINE",
"640 1024 LINE",
"576 1024 LINE",
"512 1024 LINE",
"512 960 LINE",
"512 896 LINE"
);
}
);
width = 1024;
}
);
note = "\012    Yacute\012  ";
unicode = 00DD;
},
{
glyphname = Thorn;
lastChange = "2016-07-05 20:04:06 +0000";
layers = (
{
layerId = "9D510E40-B89B-4DEE-9F00-CDF72199B32A";
paths = (
{
closed = 1;
nodes = (
"128 128 LINE",
"256 128 LINE",
"256 192 LINE",
"256 256 LINE",
"512 256 LINE",
"768 256 LINE",
"768 320 LINE",
"768 384 LINE",
"832 384 LINE",
"896 384 LINE",
"896 576 LINE",
"896 768 LINE",
"832 768 LINE",
"768 768 LINE",
"768 832 LINE",
"768 896 LINE",
"512 896 LINE",
"256 896 LINE",
"256 960 LINE",
"256 1024 LINE",
"128 1024 LINE",
"0 1024 LINE",
"0 576 LINE",
"0 128 LINE"
);
},
{
closed = 1;
nodes = (
"448 384 LINE",
"256 384 LINE",
"256 576 LINE",
"256 768 LINE",
"448 768 LINE",
"640 768 LINE",
"640 576 LINE",
"640 384 LINE"
);
}
);
width = 1024;
}
);
note = "\012    Thorn\012  ";
unicode = 00DE;
},
{
glyphname = germandbls;
lastChange = "2016-07-05 20:04:06 +0000";
layers = (
{
layerId = "9D510E40-B89B-4DEE-9F00-CDF72199B32A";
paths = (
{
closed = 1;
nodes = (
"192 896 LINE",
"128 896 LINE",
"128 512 LINE",
"128 128 LINE",
"256 128 LINE",
"384 128 LINE",
"384 192 LINE",
"384 256 LINE",
"448 256 LINE",
"512 256 LINE",
"512 192 LINE",
"512 128 LINE",
"640 128 LINE",
"768 128 LINE",
"768 192 LINE",
"768 256 LINE",
"832 256 LINE",
"896 256 LINE",
"896 384 LINE",
"896 512 LINE",
"832 512 LINE",
"768 512 LINE",
"768 576 LINE",
"768 640 LINE",
"832 640 LINE",
"896 640 LINE",
"896 768 LINE",
"896 896 LINE",
"832 896 LINE",
"768 896 LINE",
"768 960 LINE",
"768 1024 LINE",
"512 1024 LINE",
"256 1024 LINE",
"256 960 LINE",
"256 896 LINE"
);
},
{
closed = 1;
nodes = (
"576 640 LINE",
"512 640 LINE",
"512 576 LINE",
"512 512 LINE",
"576 512 LINE",
"640 512 LINE",
"640 384 LINE",
"640 256 LINE",
"576 256 LINE",
"512 256 LINE",
"512 320 LINE",
"512 384 LINE",
"448 384 LINE",
"384 384 LINE",
"384 640 LINE",
"384 896 LINE",
"512 896 LINE",
"640 896 LINE",
"640 768 LINE",
"640 640 LINE"
);
}
);
width = 1024;
}
);
note = "\012    germandbls\012  ";
unicode = 00DF;
},
{
glyphname = agrave;
lastChange = "2016-07-05 20:04:06 +0000";
layers = (
{
layerId = "9D510E40-B89B-4DEE-9F00-CDF72199B32A";
paths = (
{
closed = 1;
nodes = (
"320 896 LINE",
"384 896 LINE",
"384 832 LINE",
"384 768 LINE",
"256 768 LINE",
"128 768 LINE",
"128 704 LINE",
"128 640 LINE",
"384 640 LINE",
"640 640 LINE",
"640 576 LINE",
"640 512 LINE",
"384 512 LINE",
"128 512 LINE",
"128 448 LINE",
"128 384 LINE",
"64 384 LINE",
"0 384 LINE",
"0 320 LINE",
"0 256 LINE",
"64 256 LINE",
"128 256 LINE",
"128 192 LINE",
"128 128 LINE",
"512 128 LINE",
"896 128 LINE",
"896 384 LINE",
"896 640 LINE",
"832 640 LINE",
"768 640 LINE",
"768 704 LINE",
"768 768 LINE",
"640 768 LINE",
"512 768 LINE",
"512 832 LINE",
"512 896 LINE",
"448 896 LINE",
"384 896 LINE",
"384 960 LINE",
"384 1024 LINE",
"320 1024 LINE",
"256 1024 LINE",
"256 960 LINE",
"256 896 LINE"
);
},
{
closed = 1;
nodes = (
"448 256 LINE",
"256 256 LINE",
"256 320 LINE",
"256 384 LINE",
"448 384 LINE",
"640 384 LINE",
"640 320 LINE",
"640 256 LINE"
);
}
);
width = 1024;
}
);
note = "\012    agrave\012  ";
unicode = 00E0;
},
{
glyphname = aacute;
lastChange = "2016-07-05 20:04:06 +0000";
layers = (
{
layerId = "9D510E40-B89B-4DEE-9F00-CDF72199B32A";
paths = (
{
closed = 1;
nodes = (
"448 896 LINE",
"384 896 LINE",
"384 832 LINE",
"384 768 LINE",
"256 768 LINE",
"128 768 LINE",
"128 704 LINE",
"128 640 LINE",
"384 640 LINE",
"640 640 LINE",
"640 576 LINE",
"640 512 LINE",
"384 512 LINE",
"128 512 LINE",
"128 448 LINE",
"128 384 LINE",
"64 384 LINE",
"0 384 LINE",
"0 320 LINE",
"0 256 LINE",
"64 256 LINE",
"128 256 LINE",
"128 192 LINE",
"128 128 LINE",
"512 128 LINE",
"896 128 LINE",
"896 384 LINE",
"896 640 LINE",
"832 640 LINE",
"768 640 LINE",
"768 704 LINE",
"768 768 LINE",
"640 768 LINE",
"512 768 LINE",
"512 832 LINE",
"512 896 LINE",
"576 896 LINE",
"640 896 LINE",
"640 960 LINE",
"640 1024 LINE",
"576 1024 LINE",
"512 1024 LINE",
"512 960 LINE",
"512 896 LINE"
);
},
{
closed = 1;
nodes = (
"448 256 LINE",
"256 256 LINE",
"256 320 LINE",
"256 384 LINE",
"448 384 LINE",
"640 384 LINE",
"640 320 LINE",
"640 256 LINE"
);
}
);
width = 1024;
}
);
note = "\012    aacute\012  ";
unicode = 00E1;
},
{
glyphname = acircumflex;
lastChange = "2016-07-05 20:04:06 +0000";
layers = (
{
layerId = "9D510E40-B89B-4DEE-9F00-CDF72199B32A";
paths = (
{
closed = 1;
nodes = (
"192 896 LINE",
"128 896 LINE",
"128 768 LINE",
"128 640 LINE",
"384 640 LINE",
"640 640 LINE",
"640 576 LINE",
"640 512 LINE",
"384 512 LINE",
"128 512 LINE",
"128 448 LINE",
"128 384 LINE",
"64 384 LINE",
"0 384 LINE",
"0 320 LINE",
"0 256 LINE",
"64 256 LINE",
"128 256 LINE",
"128 192 LINE",
"128 128 LINE",
"512 128 LINE",
"896 128 LINE",
"896 384 LINE",
"896 640 LINE",
"832 640 LINE",
"768 640 LINE",
"768 768 LINE",
"768 896 LINE",
"704 896 LINE",
"640 896 LINE",
"640 960 LINE",
"640 1024 LINE",
"448 1024 LINE",
"256 1024 LINE",
"256 960 LINE",
"256 896 LINE"
);
},
{
closed = 1;
nodes = (
"448 768 LINE",
"384 768 LINE",
"384 832 LINE",
"384 896 LINE",
"448 896 LINE",
"512 896 LINE",
"512 832 LINE",
"512 768 LINE"
);
},
{
closed = 1;
nodes = (
"448 256 LINE",
"256 256 LINE",
"256 320 LINE",
"256 384 LINE",
"448 384 LINE",
"640 384 LINE",
"640 320 LINE",
"640 256 LINE"
);
}
);
width = 1024;
}
);
note = "\012    acircumflex\012  ";
unicode = 00E2;
},
{
glyphname = atilde;
lastChange = "2016-07-05 20:04:06 +0000";
layers = (
{
layerId = "9D510E40-B89B-4DEE-9F00-CDF72199B32A";
paths = (
{
closed = 1;
nodes = (
"192 896 LINE",
"128 896 LINE",
"128 768 LINE",
"128 640 LINE",
"384 640 LINE",
"640 640 LINE",
"640 576 LINE",
"640 512 LINE",
"384 512 LINE",
"128 512 LINE",
"128 448 LINE",
"128 384 LINE",
"64 384 LINE",
"0 384 LINE",
"0 320 LINE",
"0 256 LINE",
"64 256 LINE",
"128 256 LINE",
"128 192 LINE",
"128 128 LINE",
"512 128 LINE",
"896 128 LINE",
"896 384 LINE",
"896 640 LINE",
"832 640 LINE",
"768 640 LINE",
"768 704 LINE",
"768 768 LINE",
"704 768 LINE",
"640 768 LINE",
"640 832 LINE",
"640 896 LINE",
"704 896 LINE",
"768 896 LINE",
"768 960 LINE",
"768 1024 LINE",
"704 1024 LINE",
"640 1024 LINE",
"640 960 LINE",
"640 896 LINE",
"576 896 LINE",
"512 896 LINE",
"512 960 LINE",
"512 1024 LINE",
"384 1024 LINE",
"256 1024 LINE",
"256 960 LINE",
"256 896 LINE"
);
},
{
closed = 1;
nodes = (
"320 768 LINE",
"256 768 LINE",
"256 832 LINE",
"256 896 LINE",
"320 896 LINE",
"384 896 LINE",
"384 832 LINE",
"384 768 LINE"
);
},
{
closed = 1;
nodes = (
"448 256 LINE",
"256 256 LINE",
"256 320 LINE",
"256 384 LINE",
"448 384 LINE",
"640 384 LINE",
"640 320 LINE",
"640 256 LINE"
);
}
);
width = 1024;
}
);
note = "\012    atilde\012  ";
unicode = 00E3;
},
{
glyphname = adieresis;
lastChange = "2016-07-05 20:04:06 +0000";
layers = (
{
layerId = "9D510E40-B89B-4DEE-9F00-CDF72199B32A";
paths = (
{
closed = 1;
nodes = (
"384 640 LINE",
"640 640 LINE",
"640 576 LINE",
"640 512 LINE",
"384 512 LINE",
"128 512 LINE",
"128 448 LINE",
"128 384 LINE",
"64 384 LINE",
"0 384 LINE",
"0 320 LINE",
"0 256 LINE",
"64 256 LINE",
"128 256 LINE",
"128 192 LINE",
"128 128 LINE",
"512 128 LINE",
"896 128 LINE",
"896 384 LINE",
"896 640 LINE",
"832 640 LINE",
"768 640 LINE",
"768 704 LINE",
"768 768 LINE",
"448 768 LINE",
"128 768 LINE",
"128 704 LINE",
"128 640 LINE"
);
},
{
closed = 1;
nodes = (
"448 256 LINE",
"256 256 LINE",
"256 320 LINE",
"256 384 LINE",
"448 384 LINE",
"640 384 LINE",
"640 320 LINE",
"640 256 LINE"
);
},
{
closed = 1;
nodes = (
"640 896 LINE",
"768 896 LINE",
"768 960 LINE",
"768 1024 LINE",
"640 1024 LINE",
"512 1024 LINE",
"512 960 LINE",
"512 896 LINE"
);
},
{
closed = 1;
nodes = (
"256 896 LINE",
"384 896 LINE",
"384 960 LINE",
"384 1024 LINE",
"256 1024 LINE",
"128 1024 LINE",
"128 960 LINE",
"128 896 LINE"
);
}
);
width = 1024;
}
);
note = "\012    adieresis\012  ";
unicode = 00E4;
},
{
glyphname = aring;
lastChange = "2016-07-05 20:04:06 +0000";
layers = (
{
layerId = "9D510E40-B89B-4DEE-9F00-CDF72199B32A";
paths = (
{
closed = 1;
nodes = (
"320 896 LINE",
"256 896 LINE",
"256 832 LINE",
"256 768 LINE",
"192 768 LINE",
"128 768 LINE",
"128 704 LINE",
"128 640 LINE",
"384 640 LINE",
"640 640 LINE",
"640 576 LINE",
"640 512 LINE",
"384 512 LINE",
"128 512 LINE",
"128 448 LINE",
"128 384 LINE",
"64 384 LINE",
"0 384 LINE",
"0 320 LINE",
"0 256 LINE",
"64 256 LINE",
"128 256 LINE",
"128 192 LINE",
"128 128 LINE",
"512 128 LINE",
"896 128 LINE",
"896 384 LINE",
"896 640 LINE",
"832 640 LINE",
"768 640 LINE",
"768 704 LINE",
"768 768 LINE",
"704 768 LINE",
"640 768 LINE",
"640 832 LINE",
"640 896 LINE",
"576 896 LINE",
"512 896 LINE",
"512 960 LINE",
"512 1024 LINE",
"448 1024 LINE",
"384 1024 LINE",
"384 960 LINE",
"384 896 LINE"
);
},
{
closed = 1;
nodes = (
"448 768 LINE",
"384 768 LINE",
"384 832 LINE",
"384 896 LINE",
"448 896 LINE",
"512 896 LINE",
"512 832 LINE",
"512 768 LINE"
);
},
{
closed = 1;
nodes = (
"448 256 LINE",
"256 256 LINE",
"256 320 LINE",
"256 384 LINE",
"448 384 LINE",
"640 384 LINE",
"640 320 LINE",
"640 256 LINE"
);
}
);
width = 1024;
}
);
note = "\012    aring\012  ";
unicode = 00E5;
},
{
glyphname = ae;
lastChange = "2016-07-05 20:04:06 +0000";
layers = (
{
layerId = "9D510E40-B89B-4DEE-9F00-CDF72199B32A";
paths = (
{
closed = 1;
nodes = (
"256 640 LINE",
"384 640 LINE",
"384 576 LINE",
"384 512 LINE",
"256 512 LINE",
"128 512 LINE",
"128 448 LINE",
"128 384 LINE",
"64 384 LINE",
"0 384 LINE",
"0 320 LINE",
"0 256 LINE",
"64 256 LINE",
"128 256 LINE",
"128 192 LINE",
"128 128 LINE",
"448 128 LINE",
"768 128 LINE",
"768 192 LINE",
"768 256 LINE",
"640 256 LINE",
"512 256 LINE",
"512 320 LINE",
"512 384 LINE",
"704 384 LINE",
"896 384 LINE",
"896 512 LINE",
"896 640 LINE",
"832 640 LINE",
"768 640 LINE",
"768 704 LINE",
"768 768 LINE",
"448 768 LINE",
"128 768 LINE",
"128 704 LINE",
"128 640 LINE"
);
},
{
closed = 1;
nodes = (
"576 512 LINE",
"512 512 LINE",
"512 576 LINE",
"512 640 LINE",
"576 640 LINE",
"640 640 LINE",
"640 576 LINE",
"640 512 LINE"
);
},
{
closed = 1;
nodes = (
"320 256 LINE",
"256 256 LINE",
"256 320 LINE",
"256 384 LINE",
"320 384 LINE",
"384 384 LINE",
"384 320 LINE",
"384 256 LINE"
);
}
);
width = 1024;
}
);
note = "\012    ae\012  ";
unicode = 00E6;
},
{
glyphname = ccedilla;
lastChange = "2016-07-05 20:04:06 +0000";
layers = (
{
layerId = "9D510E40-B89B-4DEE-9F00-CDF72199B32A";
paths = (
{
closed = 1;
nodes = (
"64 640 LINE",
"0 640 LINE",
"0 512 LINE",
"0 384 LINE",
"64 384 LINE",
"128 384 LINE",
"128 320 LINE",
"128 256 LINE",
"320 256 LINE",
"512 256 LINE",
"512 192 LINE",
"512 128 LINE",
"384 128 LINE",
"256 128 LINE",
"256 64 LINE",
"256 0 LINE",
"384 0 LINE",
"512 0 LINE",
"512 64 LINE",
"512 128 LINE",
"576 128 LINE",
"640 128 LINE",
"640 192 LINE",
"640 256 LINE",
"768 256 LINE",
"896 256 LINE",
"896 320 LINE",
"896 384 LINE",
"576 384 LINE",
"256 384 LINE",
"256 512 LINE",
"256 640 LINE",
"576 640 LINE",
"896 640 LINE",
"896 704 LINE",
"896 768 LINE",
"512 768 LINE",
"128 768 LINE",
"128 704 LINE",
"128 640 LINE"
);
}
);
width = 1024;
}
);
note = "\012    ccedilla\012  ";
unicode = 00E7;
},
{
glyphname = egrave;
lastChange = "2016-07-05 20:04:06 +0000";
layers = (
{
layerId = "9D510E40-B89B-4DEE-9F00-CDF72199B32A";
paths = (
{
closed = 1;
nodes = (
"320 896 LINE",
"384 896 LINE",
"384 832 LINE",
"384 768 LINE",
"256 768 LINE",
"128 768 LINE",
"128 704 LINE",
"128 640 LINE",
"64 640 LINE",
"0 640 LINE",
"0 448 LINE",
"0 256 LINE",
"64 256 LINE",
"128 256 LINE",
"128 192 LINE",
"128 128 LINE",
"448 128 LINE",
"768 128 LINE",
"768 192 LINE",
"768 256 LINE",
"512 256 LINE",
"256 256 LINE",
"256 320 LINE",
"256 384 LINE",
"576 384 LINE",
"896 384 LINE",
"896 512 LINE",
"896 640 LINE",
"832 640 LINE",
"768 640 LINE",
"768 704 LINE",
"768 768 LINE",
"640 768 LINE",
"512 768 LINE",
"512 832 LINE",
"512 896 LINE",
"448 896 LINE",
"384 896 LINE",
"384 960 LINE",
"384 1024 LINE",
"320 1024 LINE",
"256 1024 LINE",
"256 960 LINE",
"256 896 LINE"
);
},
{
closed = 1;
nodes = (
"448 512 LINE",
"256 512 LINE",
"256 576 LINE",
"256 640 LINE",
"448 640 LINE",
"640 640 LINE",
"640 576 LINE",
"640 512 LINE"
);
}
);
width = 1024;
}
);
note = "\012    egrave\012  ";
unicode = 00E8;
},
{
glyphname = eacute;
lastChange = "2016-07-05 20:04:06 +0000";
layers = (
{
layerId = "9D510E40-B89B-4DEE-9F00-CDF72199B32A";
paths = (
{
closed = 1;
nodes = (
"448 896 LINE",
"384 896 LINE",
"384 832 LINE",
"384 768 LINE",
"256 768 LINE",
"128 768 LINE",
"128 704 LINE",
"128 640 LINE",
"64 640 LINE",
"0 640 LINE",
"0 448 LINE",
"0 256 LINE",
"64 256 LINE",
"128 256 LINE",
"128 192 LINE",
"128 128 LINE",
"448 128 LINE",
"768 128 LINE",
"768 192 LINE",
"768 256 LINE",
"512 256 LINE",
"256 256 LINE",
"256 320 LINE",
"256 384 LINE",
"576 384 LINE",
"896 384 LINE",
"896 512 LINE",
"896 640 LINE",
"832 640 LINE",
"768 640 LINE",
"768 704 LINE",
"768 768 LINE",
"640 768 LINE",
"512 768 LINE",
"512 832 LINE",
"512 896 LINE",
"576 896 LINE",
"640 896 LINE",
"640 960 LINE",
"640 1024 LINE",
"576 1024 LINE",
"512 1024 LINE",
"512 960 LINE",
"512 896 LINE"
);
},
{
closed = 1;
nodes = (
"448 512 LINE",
"256 512 LINE",
"256 576 LINE",
"256 640 LINE",
"448 640 LINE",
"640 640 LINE",
"640 576 LINE",
"640 512 LINE"
);
}
);
width = 1024;
}
);
note = "\012    eacute\012  ";
unicode = 00E9;
},
{
glyphname = ecircumflex;
lastChange = "2016-07-05 20:04:06 +0000";
layers = (
{
layerId = "9D510E40-B89B-4DEE-9F00-CDF72199B32A";
paths = (
{
closed = 1;
nodes = (
"192 896 LINE",
"128 896 LINE",
"128 768 LINE",
"128 640 LINE",
"64 640 LINE",
"0 640 LINE",
"0 448 LINE",
"0 256 LINE",
"64 256 LINE",
"128 256 LINE",
"128 192 LINE",
"128 128 LINE",
"448 128 LINE",
"768 128 LINE",
"768 192 LINE",
"768 256 LINE",
"512 256 LINE",
"256 256 LINE",
"256 320 LINE",
"256 384 LINE",
"576 384 LINE",
"896 384 LINE",
"896 512 LINE",
"896 640 LINE",
"832 640 LINE",
"768 640 LINE",
"768 768 LINE",
"768 896 LINE",
"704 896 LINE",
"640 896 LINE",
"640 960 LINE",
"640 1024 LINE",
"448 1024 LINE",
"256 1024 LINE",
"256 960 LINE",
"256 896 LINE"
);
},
{
closed = 1;
nodes = (
"448 768 LINE",
"384 768 LINE",
"384 832 LINE",
"384 896 LINE",
"448 896 LINE",
"512 896 LINE",
"512 832 LINE",
"512 768 LINE"
);
},
{
closed = 1;
nodes = (
"448 512 LINE",
"256 512 LINE",
"256 576 LINE",
"256 640 LINE",
"448 640 LINE",
"640 640 LINE",
"640 576 LINE",
"640 512 LINE"
);
}
);
width = 1024;
}
);
note = "\012    ecircumflex\012  ";
unicode = 00EA;
},
{
glyphname = edieresis;
lastChange = "2016-07-05 20:04:06 +0000";
layers = (
{
layerId = "9D510E40-B89B-4DEE-9F00-CDF72199B32A";
paths = (
{
closed = 1;
nodes = (
"64 640 LINE",
"0 640 LINE",
"0 448 LINE",
"0 256 LINE",
"64 256 LINE",
"128 256 LINE",
"128 192 LINE",
"128 128 LINE",
"448 128 LINE",
"768 128 LINE",
"768 192 LINE",
"768 256 LINE",
"512 256 LINE",
"256 256 LINE",
"256 320 LINE",
"256 384 LINE",
"576 384 LINE",
"896 384 LINE",
"896 512 LINE",
"896 640 LINE",
"832 640 LINE",
"768 640 LINE",
"768 704 LINE",
"768 768 LINE",
"448 768 LINE",
"128 768 LINE",
"128 704 LINE",
"128 640 LINE"
);
},
{
closed = 1;
nodes = (
"448 512 LINE",
"256 512 LINE",
"256 576 LINE",
"256 640 LINE",
"448 640 LINE",
"640 640 LINE",
"640 576 LINE",
"640 512 LINE"
);
},
{
closed = 1;
nodes = (
"640 896 LINE",
"768 896 LINE",
"768 960 LINE",
"768 1024 LINE",
"640 1024 LINE",
"512 1024 LINE",
"512 960 LINE",
"512 896 LINE"
);
},
{
closed = 1;
nodes = (
"256 896 LINE",
"384 896 LINE",
"384 960 LINE",
"384 1024 LINE",
"256 1024 LINE",
"128 1024 LINE",
"128 960 LINE",
"128 896 LINE"
);
}
);
width = 1024;
}
);
note = "\012    edieresis\012  ";
unicode = 00EB;
},
{
glyphname = igrave;
lastChange = "2016-07-05 20:04:06 +0000";
layers = (
{
layerId = "9D510E40-B89B-4DEE-9F00-CDF72199B32A";
paths = (
{
closed = 1;
nodes = (
"320 512 LINE",
"384 512 LINE",
"384 384 LINE",
"384 256 LINE",
"256 256 LINE",
"128 256 LINE",
"128 192 LINE",
"128 128 LINE",
"512 128 LINE",
"896 128 LINE",
"896 192 LINE",
"896 256 LINE",
"768 256 LINE",
"640 256 LINE",
"640 448 LINE",
"640 640 LINE",
"448 640 LINE",
"256 640 LINE",
"256 576 LINE",
"256 512 LINE"
);
},
{
closed = 1;
nodes = (
"320 896 LINE",
"384 896 LINE",
"384 832 LINE",
"384 768 LINE",
"448 768 LINE",
"512 768 LINE",
"512 832 LINE",
"512 896 LINE",
"448 896 LINE",
"384 896 LINE",
"384 960 LINE",
"384 1024 LINE",
"320 1024 LINE",
"256 1024 LINE",
"256 960 LINE",
"256 896 LINE"
);
}
);
width = 1024;
}
);
note = "\012    igrave\012  ";
unicode = 00EC;
},
{
glyphname = iacute;
lastChange = "2016-07-05 20:04:06 +0000";
layers = (
{
layerId = "9D510E40-B89B-4DEE-9F00-CDF72199B32A";
paths = (
{
closed = 1;
nodes = (
"320 512 LINE",
"384 512 LINE",
"384 384 LINE",
"384 256 LINE",
"256 256 LINE",
"128 256 LINE",
"128 192 LINE",
"128 128 LINE",
"512 128 LINE",
"896 128 LINE",
"896 192 LINE",
"896 256 LINE",
"768 256 LINE",
"640 256 LINE",
"640 448 LINE",
"640 640 LINE",
"448 640 LINE",
"256 640 LINE",
"256 576 LINE",
"256 512 LINE"
);
},
{
closed = 1;
nodes = (
"448 896 LINE",
"384 896 LINE",
"384 832 LINE",
"384 768 LINE",
"448 768 LINE",
"512 768 LINE",
"512 832 LINE",
"512 896 LINE",
"576 896 LINE",
"640 896 LINE",
"640 960 LINE",
"640 1024 LINE",
"576 1024 LINE",
"512 1024 LINE",
"512 960 LINE",
"512 896 LINE"
);
}
);
width = 1024;
}
);
note = "\012    iacute\012  ";
unicode = 00ED;
},
{
glyphname = icircumflex;
lastChange = "2016-07-05 20:04:06 +0000";
layers = (
{
layerId = "9D510E40-B89B-4DEE-9F00-CDF72199B32A";
paths = (
{
closed = 1;
nodes = (
"320 512 LINE",
"384 512 LINE",
"384 384 LINE",
"384 256 LINE",
"256 256 LINE",
"128 256 LINE",
"128 192 LINE",
"128 128 LINE",
"512 128 LINE",
"896 128 LINE",
"896 192 LINE",
"896 256 LINE",
"768 256 LINE",
"640 256 LINE",
"640 448 LINE",
"640 640 LINE",
"448 640 LINE",
"256 640 LINE",
"256 576 LINE",
"256 512 LINE"
);
},
{
closed = 1;
nodes = (
"192 896 LINE",
"128 896 LINE",
"128 832 LINE",
"128 768 LINE",
"256 768 LINE",
"384 768 LINE",
"384 832 LINE",
"384 896 LINE",
"448 896 LINE",
"512 896 LINE",
"512 832 LINE",
"512 768 LINE",
"640 768 LINE",
"768 768 LINE",
"768 832 LINE",
"768 896 LINE",
"704 896 LINE",
"640 896 LINE",
"640 960 LINE",
"640 1024 LINE",
"448 1024 LINE",
"256 1024 LINE",
"256 960 LINE",
"256 896 LINE"
);
}
);
width = 1024;
}
);
note = "\012    icircumflex\012  ";
unicode = 00EE;
},
{
glyphname = idieresis;
lastChange = "2016-07-05 20:04:06 +0000";
layers = (
{
layerId = "9D510E40-B89B-4DEE-9F00-CDF72199B32A";
paths = (
{
closed = 1;
nodes = (
"320 640 LINE",
"384 640 LINE",
"384 448 LINE",
"384 256 LINE",
"256 256 LINE",
"128 256 LINE",
"128 192 LINE",
"128 128 LINE",
"512 128 LINE",
"896 128 LINE",
"896 192 LINE",
"896 256 LINE",
"768 256 LINE",
"640 256 LINE",
"640 512 LINE",
"640 768 LINE",
"448 768 LINE",
"256 768 LINE",
"256 704 LINE",
"256 640 LINE"
);
},
{
closed = 1;
nodes = (
"640 896 LINE",
"768 896 LINE",
"768 960 LINE",
"768 1024 LINE",
"640 1024 LINE",
"512 1024 LINE",
"512 960 LINE",
"512 896 LINE"
);
},
{
closed = 1;
nodes = (
"256 896 LINE",
"384 896 LINE",
"384 960 LINE",
"384 1024 LINE",
"256 1024 LINE",
"128 1024 LINE",
"128 960 LINE",
"128 896 LINE"
);
}
);
width = 1024;
}
);
note = "\012    idieresis\012  ";
unicode = 00EF;
},
{
glyphname = eth;
lastChange = "2016-07-05 20:04:06 +0000";
layers = (
{
layerId = "9D510E40-B89B-4DEE-9F00-CDF72199B32A";
paths = (
{
closed = 1;
nodes = (
"64 768 LINE",
"0 768 LINE",
"0 704 LINE",
"0 640 LINE",
"64 640 LINE",
"128 640 LINE",
"128 576 LINE",
"128 512 LINE",
"64 512 LINE",
"0 512 LINE",
"0 384 LINE",
"0 256 LINE",
"64 256 LINE",
"128 256 LINE",
"128 192 LINE",
"128 128 LINE",
"448 128 LINE",
"768 128 LINE",
"768 192 LINE",
"768 256 LINE",
"832 256 LINE",
"896 256 LINE",
"896 384 LINE",
"896 512 LINE",
"832 512 LINE",
"768 512 LINE",
"768 576 LINE",
"768 640 LINE",
"704 640 LINE",
"640 640 LINE",
"640 768 LINE",
"640 896 LINE",
"704 896 LINE",
"768 896 LINE",
"768 960 LINE",
"768 1024 LINE",
"704 1024 LINE",
"640 1024 LINE",
"640 960 LINE",
"640 896 LINE",
"512 896 LINE",
"384 896 LINE",
"384 960 LINE",
"384 1024 LINE",
"256 1024 LINE",
"128 1024 LINE",
"128 896 LINE",
"128 768 LINE"
);
},
{
closed = 1;
nodes = (
"256 640 LINE",
"128 640 LINE",
"128 704 LINE",
"128 768 LINE",
"256 768 LINE",
"384 768 LINE",
"384 704 LINE",
"384 640 LINE"
);
},
{
closed = 1;
nodes = (
"448 256 LINE",
"256 256 LINE",
"256 384 LINE",
"256 512 LINE",
"448 512 LINE",
"640 512 LINE",
"640 384 LINE",
"640 256 LINE"
);
}
);
width = 1024;
}
);
note = "\012    eth\012  ";
unicode = 00F0;
},
{
glyphname = ntilde;
lastChange = "2016-07-05 20:04:06 +0000";
layers = (
{
layerId = "9D510E40-B89B-4DEE-9F00-CDF72199B32A";
paths = (
{
closed = 1;
nodes = (
"192 896 LINE",
"128 896 LINE",
"128 832 LINE",
"128 768 LINE",
"64 768 LINE",
"0 768 LINE",
"0 448 LINE",
"0 128 LINE",
"128 128 LINE",
"256 128 LINE",
"256 384 LINE",
"256 640 LINE",
"448 640 LINE",
"640 640 LINE",
"640 384 LINE",
"640 128 LINE",
"768 128 LINE",
"896 128 LINE",
"896 384 LINE",
"896 640 LINE",
"832 640 LINE",
"768 640 LINE",
"768 704 LINE",
"768 768 LINE",
"704 768 LINE",
"640 768 LINE",
"640 832 LINE",
"640 896 LINE",
"704 896 LINE",
"768 896 LINE",
"768 960 LINE",
"768 1024 LINE",
"704 1024 LINE",
"640 1024 LINE",
"640 960 LINE",
"640 896 LINE",
"576 896 LINE",
"512 896 LINE",
"512 960 LINE",
"512 1024 LINE",
"384 1024 LINE",
"256 1024 LINE",
"256 960 LINE",
"256 896 LINE"
);
},
{
closed = 1;
nodes = (
"320 768 LINE",
"256 768 LINE",
"256 832 LINE",
"256 896 LINE",
"320 896 LINE",
"384 896 LINE",
"384 832 LINE",
"384 768 LINE"
);
}
);
width = 1024;
}
);
note = "\012    ntilde\012  ";
unicode = 00F1;
},
{
glyphname = ograve;
lastChange = "2016-07-05 20:04:06 +0000";
layers = (
{
layerId = "9D510E40-B89B-4DEE-9F00-CDF72199B32A";
paths = (
{
closed = 1;
nodes = (
"320 896 LINE",
"384 896 LINE",
"384 832 LINE",
"384 768 LINE",
"256 768 LINE",
"128 768 LINE",
"128 704 LINE",
"128 640 LINE",
"64 640 LINE",
"0 640 LINE",
"0 448 LINE",
"0 256 LINE",
"64 256 LINE",
"128 256 LINE",
"128 192 LINE",
"128 128 LINE",
"448 128 LINE",
"768 128 LINE",
"768 192 LINE",
"768 256 LINE",
"832 256 LINE",
"896 256 LINE",
"896 448 LINE",
"896 640 LINE",
"832 640 LINE",
"768 640 LINE",
"768 704 LINE",
"768 768 LINE",
"640 768 LINE",
"512 768 LINE",
"512 832 LINE",
"512 896 LINE",
"448 896 LINE",
"384 896 LINE",
"384 960 LINE",
"384 1024 LINE",
"320 1024 LINE",
"256 1024 LINE",
"256 960 LINE",
"256 896 LINE"
);
},
{
closed = 1;
nodes = (
"448 256 LINE",
"256 256 LINE",
"256 448 LINE",
"256 640 LINE",
"448 640 LINE",
"640 640 LINE",
"640 448 LINE",
"640 256 LINE"
);
}
);
width = 1024;
}
);
note = "\012    ograve\012  ";
unicode = 00F2;
},
{
glyphname = oacute;
lastChange = "2016-07-05 20:04:06 +0000";
layers = (
{
layerId = "9D510E40-B89B-4DEE-9F00-CDF72199B32A";
paths = (
{
closed = 1;
nodes = (
"448 896 LINE",
"384 896 LINE",
"384 832 LINE",
"384 768 LINE",
"256 768 LINE",
"128 768 LINE",
"128 704 LINE",
"128 640 LINE",
"64 640 LINE",
"0 640 LINE",
"0 448 LINE",
"0 256 LINE",
"64 256 LINE",
"128 256 LINE",
"128 192 LINE",
"128 128 LINE",
"448 128 LINE",
"768 128 LINE",
"768 192 LINE",
"768 256 LINE",
"832 256 LINE",
"896 256 LINE",
"896 448 LINE",
"896 640 LINE",
"832 640 LINE",
"768 640 LINE",
"768 704 LINE",
"768 768 LINE",
"640 768 LINE",
"512 768 LINE",
"512 832 LINE",
"512 896 LINE",
"576 896 LINE",
"640 896 LINE",
"640 960 LINE",
"640 1024 LINE",
"576 1024 LINE",
"512 1024 LINE",
"512 960 LINE",
"512 896 LINE"
);
},
{
closed = 1;
nodes = (
"448 256 LINE",
"256 256 LINE",
"256 448 LINE",
"256 640 LINE",
"448 640 LINE",
"640 640 LINE",
"640 448 LINE",
"640 256 LINE"
);
}
);
width = 1024;
}
);
note = "\012    oacute\012  ";
unicode = 00F3;
},
{
glyphname = ocircumflex;
lastChange = "2016-07-05 20:04:06 +0000";
layers = (
{
layerId = "9D510E40-B89B-4DEE-9F00-CDF72199B32A";
paths = (
{
closed = 1;
nodes = (
"192 896 LINE",
"128 896 LINE",
"128 768 LINE",
"128 640 LINE",
"64 640 LINE",
"0 640 LINE",
"0 448 LINE",
"0 256 LINE",
"64 256 LINE",
"128 256 LINE",
"128 192 LINE",
"128 128 LINE",
"448 128 LINE",
"768 128 LINE",
"768 192 LINE",
"768 256 LINE",
"832 256 LINE",
"896 256 LINE",
"896 448 LINE",
"896 640 LINE",
"832 640 LINE",
"768 640 LINE",
"768 768 LINE",
"768 896 LINE",
"704 896 LINE",
"640 896 LINE",
"640 960 LINE",
"640 1024 LINE",
"448 1024 LINE",
"256 1024 LINE",
"256 960 LINE",
"256 896 LINE"
);
},
{
closed = 1;
nodes = (
"448 768 LINE",
"384 768 LINE",
"384 832 LINE",
"384 896 LINE",
"448 896 LINE",
"512 896 LINE",
"512 832 LINE",
"512 768 LINE"
);
},
{
closed = 1;
nodes = (
"448 256 LINE",
"256 256 LINE",
"256 448 LINE",
"256 640 LINE",
"448 640 LINE",
"640 640 LINE",
"640 448 LINE",
"640 256 LINE"
);
}
);
width = 1024;
}
);
note = "\012    ocircumflex\012  ";
unicode = 00F4;
},
{
glyphname = otilde;
lastChange = "2016-07-05 20:04:06 +0000";
layers = (
{
layerId = "9D510E40-B89B-4DEE-9F00-CDF72199B32A";
paths = (
{
closed = 1;
nodes = (
"192 896 LINE",
"128 896 LINE",
"128 768 LINE",
"128 640 LINE",
"64 640 LINE",
"0 640 LINE",
"0 448 LINE",
"0 256 LINE",
"64 256 LINE",
"128 256 LINE",
"128 192 LINE",
"128 128 LINE",
"448 128 LINE",
"768 128 LINE",
"768 192 LINE",
"768 256 LINE",
"832 256 LINE",
"896 256 LINE",
"896 448 LINE",
"896 640 LINE",
"832 640 LINE",
"768 640 LINE",
"768 704 LINE",
"768 768 LINE",
"704 768 LINE",
"640 768 LINE",
"640 832 LINE",
"640 896 LINE",
"704 896 LINE",
"768 896 LINE",
"768 960 LINE",
"768 1024 LINE",
"704 1024 LINE",
"640 1024 LINE",
"640 960 LINE",
"640 896 LINE",
"576 896 LINE",
"512 896 LINE",
"512 960 LINE",
"512 1024 LINE",
"384 1024 LINE",
"256 1024 LINE",
"256 960 LINE",
"256 896 LINE"
);
},
{
closed = 1;
nodes = (
"320 768 LINE",
"256 768 LINE",
"256 832 LINE",
"256 896 LINE",
"320 896 LINE",
"384 896 LINE",
"384 832 LINE",
"384 768 LINE"
);
},
{
closed = 1;
nodes = (
"448 256 LINE",
"256 256 LINE",
"256 448 LINE",
"256 640 LINE",
"448 640 LINE",
"640 640 LINE",
"640 448 LINE",
"640 256 LINE"
);
}
);
width = 1024;
}
);
note = "\012    otilde\012  ";
unicode = 00F5;
},
{
glyphname = odieresis;
lastChange = "2016-07-05 20:04:06 +0000";
layers = (
{
layerId = "9D510E40-B89B-4DEE-9F00-CDF72199B32A";
paths = (
{
closed = 1;
nodes = (
"64 640 LINE",
"0 640 LINE",
"0 448 LINE",
"0 256 LINE",
"64 256 LINE",
"128 256 LINE",
"128 192 LINE",
"128 128 LINE",
"448 128 LINE",
"768 128 LINE",
"768 192 LINE",
"768 256 LINE",
"832 256 LINE",
"896 256 LINE",
"896 448 LINE",
"896 640 LINE",
"832 640 LINE",
"768 640 LINE",
"768 704 LINE",
"768 768 LINE",
"448 768 LINE",
"128 768 LINE",
"128 704 LINE",
"128 640 LINE"
);
},
{
closed = 1;
nodes = (
"448 256 LINE",
"256 256 LINE",
"256 448 LINE",
"256 640 LINE",
"448 640 LINE",
"640 640 LINE",
"640 448 LINE",
"640 256 LINE"
);
},
{
closed = 1;
nodes = (
"640 896 LINE",
"768 896 LINE",
"768 960 LINE",
"768 1024 LINE",
"640 1024 LINE",
"512 1024 LINE",
"512 960 LINE",
"512 896 LINE"
);
},
{
closed = 1;
nodes = (
"256 896 LINE",
"384 896 LINE",
"384 960 LINE",
"384 1024 LINE",
"256 1024 LINE",
"128 1024 LINE",
"128 960 LINE",
"128 896 LINE"
);
}
);
width = 1024;
}
);
note = "\012    odieresis\012  ";
unicode = 00F6;
},
{
glyphname = divide;
lastChange = "2016-07-05 20:04:06 +0000";
layers = (
{
layerId = "9D510E40-B89B-4DEE-9F00-CDF72199B32A";
paths = (
{
closed = 1;
nodes = (
"512 256 LINE",
"640 256 LINE",
"640 320 LINE",
"640 384 LINE",
"512 384 LINE",
"384 384 LINE",
"384 320 LINE",
"384 256 LINE"
);
},
{
closed = 1;
nodes = (
"512 512 LINE",
"896 512 LINE",
"896 576 LINE",
"896 640 LINE",
"512 640 LINE",
"128 640 LINE",
"128 576 LINE",
"128 512 LINE"
);
},
{
closed = 1;
nodes = (
"512 768 LINE",
"640 768 LINE",
"640 832 LINE",
"640 896 LINE",
"512 896 LINE",
"384 896 LINE",
"384 832 LINE",
"384 768 LINE"
);
}
);
width = 1024;
}
);
note = "\012    divide\012  ";
unicode = 00F7;
},
{
glyphname = oslash;
lastChange = "2016-07-05 20:04:06 +0000";
layers = (
{
layerId = "9D510E40-B89B-4DEE-9F00-CDF72199B32A";
paths = (
{
closed = 1;
nodes = (
"448 384 LINE",
"512 384 LINE",
"512 448 LINE",
"512 512 LINE",
"448 512 LINE",
"384 512 LINE",
"384 448 LINE",
"384 384 LINE"
);
},
{
closed = 1;
nodes = (
"64 640 LINE",
"0 640 LINE",
"0 448 LINE",
"0 256 LINE",
"64 256 LINE",
"128 256 LINE",
"128 192 LINE",
"128 128 LINE",
"448 128 LINE",
"768 128 LINE",
"768 192 LINE",
"768 256 LINE",
"832 256 LINE",
"896 256 LINE",
"896 448 LINE",
"896 640 LINE",
"832 640 LINE",
"768 640 LINE",
"768 704 LINE",
"768 768 LINE",
"448 768 LINE",
"128 768 LINE",
"128 704 LINE",
"128 640 LINE"
);
},
{
closed = 1;
nodes = (
"576 512 LINE",
"640 512 LINE",
"640 384 LINE",
"640 256 LINE",
"512 256 LINE",
"384 256 LINE",
"384 320 LINE",
"384 384 LINE",
"320 384 LINE",
"256 384 LINE",
"256 512 LINE",
"256 640 LINE",
"384 640 LINE",
"512 640 LINE",
"512 576 LINE",
"512 512 LINE"
);
}
);
width = 1024;
}
);
note = "\012    oslash\012  ";
unicode = 00F8;
},
{
glyphname = ugrave;
lastChange = "2016-07-05 20:04:06 +0000";
layers = (
{
layerId = "9D510E40-B89B-4DEE-9F00-CDF72199B32A";
paths = (
{
closed = 1;
nodes = (
"64 256 LINE",
"128 256 LINE",
"128 192 LINE",
"128 128 LINE",
"512 128 LINE",
"896 128 LINE",
"896 448 LINE",
"896 768 LINE",
"768 768 LINE",
"640 768 LINE",
"640 512 LINE",
"640 256 LINE",
"448 256 LINE",
"256 256 LINE",
"256 512 LINE",
"256 768 LINE",
"128 768 LINE",
"0 768 LINE",
"0 512 LINE",
"0 256 LINE"
);
},
{
closed = 1;
nodes = (
"320 896 LINE",
"384 896 LINE",
"384 832 LINE",
"384 768 LINE",
"448 768 LINE",
"512 768 LINE",
"512 832 LINE",
"512 896 LINE",
"448 896 LINE",
"384 896 LINE",
"384 960 LINE",
"384 1024 LINE",
"320 1024 LINE",
"256 1024 LINE",
"256 960 LINE",
"256 896 LINE"
);
}
);
width = 1024;
}
);
note = "\012    ugrave\012  ";
unicode = 00F9;
},
{
glyphname = uacute;
lastChange = "2016-07-05 20:04:06 +0000";
layers = (
{
layerId = "9D510E40-B89B-4DEE-9F00-CDF72199B32A";
paths = (
{
closed = 1;
nodes = (
"64 256 LINE",
"128 256 LINE",
"128 192 LINE",
"128 128 LINE",
"512 128 LINE",
"896 128 LINE",
"896 448 LINE",
"896 768 LINE",
"768 768 LINE",
"640 768 LINE",
"640 512 LINE",
"640 256 LINE",
"448 256 LINE",
"256 256 LINE",
"256 512 LINE",
"256 768 LINE",
"128 768 LINE",
"0 768 LINE",
"0 512 LINE",
"0 256 LINE"
);
},
{
closed = 1;
nodes = (
"448 896 LINE",
"384 896 LINE",
"384 832 LINE",
"384 768 LINE",
"448 768 LINE",
"512 768 LINE",
"512 832 LINE",
"512 896 LINE",
"576 896 LINE",
"640 896 LINE",
"640 960 LINE",
"640 1024 LINE",
"576 1024 LINE",
"512 1024 LINE",
"512 960 LINE",
"512 896 LINE"
);
}
);
width = 1024;
}
);
note = "\012    uacute\012  ";
unicode = 00FA;
},
{
glyphname = ucircumflex;
lastChange = "2016-07-05 20:04:06 +0000";
layers = (
{
layerId = "9D510E40-B89B-4DEE-9F00-CDF72199B32A";
paths = (
{
closed = 1;
nodes = (
"64 256 LINE",
"128 256 LINE",
"128 192 LINE",
"128 128 LINE",
"512 128 LINE",
"896 128 LINE",
"896 384 LINE",
"896 640 LINE",
"768 640 LINE",
"640 640 LINE",
"640 448 LINE",
"640 256 LINE",
"448 256 LINE",
"256 256 LINE",
"256 448 LINE",
"256 640 LINE",
"128 640 LINE",
"0 640 LINE",
"0 448 LINE",
"0 256 LINE"
);
},
{
closed = 1;
nodes = (
"192 896 LINE",
"128 896 LINE",
"128 832 LINE",
"128 768 LINE",
"256 768 LINE",
"384 768 LINE",
"384 832 LINE",
"384 896 LINE",
"448 896 LINE",
"512 896 LINE",
"512 832 LINE",
"512 768 LINE",
"640 768 LINE",
"768 768 LINE",
"768 832 LINE",
"768 896 LINE",
"704 896 LINE",
"640 896 LINE",
"640 960 LINE",
"640 1024 LINE",
"448 1024 LINE",
"256 1024 LINE",
"256 960 LINE",
"256 896 LINE"
);
}
);
width = 1024;
}
);
note = "\012    ucircumflex\012  ";
unicode = 00FB;
},
{
glyphname = udieresis;
lastChange = "2016-07-05 20:04:06 +0000";
layers = (
{
layerId = "9D510E40-B89B-4DEE-9F00-CDF72199B32A";
paths = (
{
closed = 1;
nodes = (
"64 256 LINE",
"128 256 LINE",
"128 192 LINE",
"128 128 LINE",
"512 128 LINE",
"896 128 LINE",
"896 448 LINE",
"896 768 LINE",
"768 768 LINE",
"640 768 LINE",
"640 512 LINE",
"640 256 LINE",
"448 256 LINE",
"256 256 LINE",
"256 512 LINE",
"256 768 LINE",
"128 768 LINE",
"0 768 LINE",
"0 512 LINE",
"0 256 LINE"
);
},
{
closed = 1;
nodes = (
"640 896 LINE",
"768 896 LINE",
"768 960 LINE",
"768 1024 LINE",
"640 1024 LINE",
"512 1024 LINE",
"512 960 LINE",
"512 896 LINE"
);
},
{
closed = 1;
nodes = (
"256 896 LINE",
"384 896 LINE",
"384 960 LINE",
"384 1024 LINE",
"256 1024 LINE",
"128 1024 LINE",
"128 960 LINE",
"128 896 LINE"
);
}
);
width = 1024;
}
);
note = "\012    udieresis\012  ";
unicode = 00FC;
},
{
glyphname = yacute;
lastChange = "2016-07-05 20:04:06 +0000";
layers = (
{
layerId = "9D510E40-B89B-4DEE-9F00-CDF72199B32A";
paths = (
{
closed = 1;
nodes = (
"64 384 LINE",
"128 384 LINE",
"128 320 LINE",
"128 256 LINE",
"384 256 LINE",
"640 256 LINE",
"640 192 LINE",
"640 128 LINE",
"384 128 LINE",
"128 128 LINE",
"128 64 LINE",
"128 0 LINE",
"448 0 LINE",
"768 0 LINE",
"768 64 LINE",
"768 128 LINE",
"832 128 LINE",
"896 128 LINE",
"896 448 LINE",
"896 768 LINE",
"768 768 LINE",
"640 768 LINE",
"640 576 LINE",
"640 384 LINE",
"448 384 LINE",
"256 384 LINE",
"256 576 LINE",
"256 768 LINE",
"128 768 LINE",
"0 768 LINE",
"0 576 LINE",
"0 384 LINE"
);
},
{
closed = 1;
nodes = (
"448 896 LINE",
"384 896 LINE",
"384 832 LINE",
"384 768 LINE",
"448 768 LINE",
"512 768 LINE",
"512 832 LINE",
"512 896 LINE",
"576 896 LINE",
"640 896 LINE",
"640 960 LINE",
"640 1024 LINE",
"576 1024 LINE",
"512 1024 LINE",
"512 960 LINE",
"512 896 LINE"
);
}
);
width = 1024;
}
);
note = "\012    yacute\012  ";
unicode = 00FD;
},
{
glyphname = thorn;
lastChange = "2016-07-05 20:04:06 +0000";
layers = (
{
layerId = "9D510E40-B89B-4DEE-9F00-CDF72199B32A";
paths = (
{
closed = 1;
nodes = (
"128 0 LINE",
"256 0 LINE",
"256 128 LINE",
"256 256 LINE",
"512 256 LINE",
"768 256 LINE",
"768 320 LINE",
"768 384 LINE",
"832 384 LINE",
"896 384 LINE",
"896 512 LINE",
"896 640 LINE",
"832 640 LINE",
"768 640 LINE",
"768 704 LINE",
"768 768 LINE",
"512 768 LINE",
"256 768 LINE",
"256 896 LINE",
"256 1024 LINE",
"128 1024 LINE",
"0 1024 LINE",
"0 512 LINE",
"0 0 LINE"
);
},
{
closed = 1;
nodes = (
"448 384 LINE",
"256 384 LINE",
"256 512 LINE",
"256 640 LINE",
"448 640 LINE",
"640 640 LINE",
"640 512 LINE",
"640 384 LINE"
);
}
);
width = 1024;
}
);
note = "\012    thorn\012  ";
unicode = 00FE;
},
{
glyphname = ydieresis;
lastChange = "2016-07-05 20:04:06 +0000";
layers = (
{
layerId = "9D510E40-B89B-4DEE-9F00-CDF72199B32A";
paths = (
{
closed = 1;
nodes = (
"64 384 LINE",
"128 384 LINE",
"128 320 LINE",
"128 256 LINE",
"384 256 LINE",
"640 256 LINE",
"640 192 LINE",
"640 128 LINE",
"384 128 LINE",
"128 128 LINE",
"128 64 LINE",
"128 0 LINE",
"448 0 LINE",
"768 0 LINE",
"768 64 LINE",
"768 128 LINE",
"832 128 LINE",
"896 128 LINE",
"896 448 LINE",
"896 768 LINE",
"768 768 LINE",
"640 768 LINE",
"640 576 LINE",
"640 384 LINE",
"448 384 LINE",
"256 384 LINE",
"256 576 LINE",
"256 768 LINE",
"128 768 LINE",
"0 768 LINE",
"0 576 LINE",
"0 384 LINE"
);
},
{
closed = 1;
nodes = (
"640 896 LINE",
"768 896 LINE",
"768 960 LINE",
"768 1024 LINE",
"640 1024 LINE",
"512 1024 LINE",
"512 960 LINE",
"512 896 LINE"
);
},
{
closed = 1;
nodes = (
"256 896 LINE",
"384 896 LINE",
"384 960 LINE",
"384 1024 LINE",
"256 1024 LINE",
"128 1024 LINE",
"128 960 LINE",
"128 896 LINE"
);
}
);
width = 1024;
}
);
note = "\012    ydieresis\012  ";
unicode = 00FF;
},
{
glyphname = Amacron;
lastChange = "2016-07-05 20:04:06 +0000";
layers = (
{
layerId = "9D510E40-B89B-4DEE-9F00-CDF72199B32A";
paths = (
{
closed = 1;
nodes = (
"192 640 LINE",
"128 640 LINE",
"128 576 LINE",
"128 512 LINE",
"64 512 LINE",
"0 512 LINE",
"0 320 LINE",
"0 128 LINE",
"128 128 LINE",
"256 128 LINE",
"256 192 LINE",
"256 256 LINE",
"448 256 LINE",
"640 256 LINE",
"640 192 LINE",
"640 128 LINE",
"768 128 LINE",
"896 128 LINE",
"896 320 LINE",
"896 512 LINE",
"832 512 LINE",
"768 512 LINE",
"768 576 LINE",
"768 640 LINE",
"704 640 LINE",
"640 640 LINE",
"640 704 LINE",
"640 768 LINE",
"448 768 LINE",
"256 768 LINE",
"256 704 LINE",
"256 640 LINE"
);
},
{
closed = 1;
nodes = (
"576 512 LINE",
"640 512 LINE",
"640 448 LINE",
"640 384 LINE",
"448 384 LINE",
"256 384 LINE",
"256 448 LINE",
"256 512 LINE",
"320 512 LINE",
"384 512 LINE",
"384 576 LINE",
"384 640 LINE",
"448 640 LINE",
"512 640 LINE",
"512 576 LINE",
"512 512 LINE"
);
},
{
closed = 1;
nodes = (
"448 896 LINE",
"768 896 LINE",
"768 960 LINE",
"768 1024 LINE",
"448 1024 LINE",
"128 1024 LINE",
"128 960 LINE",
"128 896 LINE"
);
}
);
width = 1024;
}
);
note = "\012    Amacron\012  ";
unicode = 0100;
},
{
glyphname = amacron;
lastChange = "2016-07-05 20:04:06 +0000";
layers = (
{
layerId = "9D510E40-B89B-4DEE-9F00-CDF72199B32A";
paths = (
{
closed = 1;
nodes = (
"384 640 LINE",
"640 640 LINE",
"640 576 LINE",
"640 512 LINE",
"384 512 LINE",
"128 512 LINE",
"128 448 LINE",
"128 384 LINE",
"64 384 LINE",
"0 384 LINE",
"0 320 LINE",
"0 256 LINE",
"64 256 LINE",
"128 256 LINE",
"128 192 LINE",
"128 128 LINE",
"512 128 LINE",
"896 128 LINE",
"896 384 LINE",
"896 640 LINE",
"832 640 LINE",
"768 640 LINE",
"768 704 LINE",
"768 768 LINE",
"448 768 LINE",
"128 768 LINE",
"128 704 LINE",
"128 640 LINE"
);
},
{
closed = 1;
nodes = (
"448 256 LINE",
"256 256 LINE",
"256 320 LINE",
"256 384 LINE",
"448 384 LINE",
"640 384 LINE",
"640 320 LINE",
"640 256 LINE"
);
},
{
closed = 1;
nodes = (
"448 896 LINE",
"768 896 LINE",
"768 960 LINE",
"768 1024 LINE",
"448 1024 LINE",
"128 1024 LINE",
"128 960 LINE",
"128 896 LINE"
);
}
);
width = 1024;
}
);
note = "\012    amacron\012  ";
unicode = 0101;
},
{
glyphname = Abreve;
lastChange = "2016-07-05 20:04:06 +0000";
layers = (
{
layerId = "9D510E40-B89B-4DEE-9F00-CDF72199B32A";
paths = (
{
closed = 1;
nodes = (
"192 896 LINE",
"256 896 LINE",
"256 768 LINE",
"256 640 LINE",
"192 640 LINE",
"128 640 LINE",
"128 576 LINE",
"128 512 LINE",
"64 512 LINE",
"0 512 LINE",
"0 320 LINE",
"0 128 LINE",
"128 128 LINE",
"256 128 LINE",
"256 192 LINE",
"256 256 LINE",
"448 256 LINE",
"640 256 LINE",
"640 192 LINE",
"640 128 LINE",
"768 128 LINE",
"896 128 LINE",
"896 320 LINE",
"896 512 LINE",
"832 512 LINE",
"768 512 LINE",
"768 576 LINE",
"768 640 LINE",
"704 640 LINE",
"640 640 LINE",
"640 768 LINE",
"640 896 LINE",
"704 896 LINE",
"768 896 LINE",
"768 960 LINE",
"768 1024 LINE",
"704 1024 LINE",
"640 1024 LINE",
"640 960 LINE",
"640 896 LINE",
"448 896 LINE",
"256 896 LINE",
"256 960 LINE",
"256 1024 LINE",
"192 1024 LINE",
"128 1024 LINE",
"128 960 LINE",
"128 896 LINE"
);
},
{
closed = 1;
nodes = (
"576 512 LINE",
"640 512 LINE",
"640 448 LINE",
"640 384 LINE",
"448 384 LINE",
"256 384 LINE",
"256 448 LINE",
"256 512 LINE",
"320 512 LINE",
"384 512 LINE",
"384 576 LINE",
"384 640 LINE",
"448 640 LINE",
"512 640 LINE",
"512 576 LINE",
"512 512 LINE"
);
}
);
width = 1024;
}
);
note = "\012    Abreve\012  ";
unicode = 0102;
},
{
glyphname = abreve;
lastChange = "2016-07-05 20:04:06 +0000";
layers = (
{
layerId = "9D510E40-B89B-4DEE-9F00-CDF72199B32A";
paths = (
{
closed = 1;
nodes = (
"192 896 LINE",
"256 896 LINE",
"256 832 LINE",
"256 768 LINE",
"192 768 LINE",
"128 768 LINE",
"128 704 LINE",
"128 640 LINE",
"384 640 LINE",
"640 640 LINE",
"640 576 LINE",
"640 512 LINE",
"384 512 LINE",
"128 512 LINE",
"128 448 LINE",
"128 384 LINE",
"64 384 LINE",
"0 384 LINE",
"0 320 LINE",
"0 256 LINE",
"64 256 LINE",
"128 256 LINE",
"128 192 LINE",
"128 128 LINE",
"512 128 LINE",
"896 128 LINE",
"896 384 LINE",
"896 640 LINE",
"832 640 LINE",
"768 640 LINE",
"768 704 LINE",
"768 768 LINE",
"704 768 LINE",
"640 768 LINE",
"640 832 LINE",
"640 896 LINE",
"704 896 LINE",
"768 896 LINE",
"768 960 LINE",
"768 1024 LINE",
"704 1024 LINE",
"640 1024 LINE",
"640 960 LINE",
"640 896 LINE",
"448 896 LINE",
"256 896 LINE",
"256 960 LINE",
"256 1024 LINE",
"192 1024 LINE",
"128 1024 LINE",
"128 960 LINE",
"128 896 LINE"
);
},
{
closed = 1;
nodes = (
"448 256 LINE",
"256 256 LINE",
"256 320 LINE",
"256 384 LINE",
"448 384 LINE",
"640 384 LINE",
"640 320 LINE",
"640 256 LINE"
);
}
);
width = 1024;
}
);
note = "\012    abreve\012  ";
unicode = 0103;
},
{
glyphname = Aogonek;
lastChange = "2016-07-05 20:04:06 +0000";
layers = (
{
layerId = "9D510E40-B89B-4DEE-9F00-CDF72199B32A";
paths = (
{
closed = 1;
nodes = (
"192 896 LINE",
"128 896 LINE",
"128 832 LINE",
"128 768 LINE",
"64 768 LINE",
"0 768 LINE",
"0 576 LINE",
"0 384 LINE",
"128 384 LINE",
"256 384 LINE",
"256 448 LINE",
"256 512 LINE",
"448 512 LINE",
"640 512 LINE",
"640 384 LINE",
"640 256 LINE",
"576 256 LINE",
"512 256 LINE",
"512 192 LINE",
"512 128 LINE",
"576 128 LINE",
"640 128 LINE",
"640 64 LINE",
"640 0 LINE",
"768 0 LINE",
"896 0 LINE",
"896 64 LINE",
"896 128 LINE",
"768 128 LINE",
"640 128 LINE",
"640 192 LINE",
"640 256 LINE",
"704 256 LINE",
"768 256 LINE",
"768 320 LINE",
"768 384 LINE",
"832 384 LINE",
"896 384 LINE",
"896 576 LINE",
"896 768 LINE",
"832 768 LINE",
"768 768 LINE",
"768 832 LINE",
"768 896 LINE",
"704 896 LINE",
"640 896 LINE",
"640 960 LINE",
"640 1024 LINE",
"448 1024 LINE",
"256 1024 LINE",
"256 960 LINE",
"256 896 LINE"
);
},
{
closed = 1;
nodes = (
"576 768 LINE",
"640 768 LINE",
"640 704 LINE",
"640 640 LINE",
"448 640 LINE",
"256 640 LINE",
"256 704 LINE",
"256 768 LINE",
"320 768 LINE",
"384 768 LINE",
"384 832 LINE",
"384 896 LINE",
"448 896 LINE",
"512 896 LINE",
"512 832 LINE",
"512 768 LINE"
);
}
);
width = 1024;
}
);
note = "\012    Aogonek\012  ";
unicode = 0104;
},
{
glyphname = aogonek;
lastChange = "2016-07-05 20:04:06 +0000";
layers = (
{
layerId = "9D510E40-B89B-4DEE-9F00-CDF72199B32A";
paths = (
{
closed = 1;
nodes = (
"384 896 LINE",
"640 896 LINE",
"640 832 LINE",
"640 768 LINE",
"384 768 LINE",
"128 768 LINE",
"128 704 LINE",
"128 640 LINE",
"64 640 LINE",
"0 640 LINE",
"0 576 LINE",
"0 512 LINE",
"64 512 LINE",
"128 512 LINE",
"128 448 LINE",
"128 384 LINE",
"256 384 LINE",
"384 384 LINE",
"384 320 LINE",
"384 256 LINE",
"320 256 LINE",
"256 256 LINE",
"256 192 LINE",
"256 128 LINE",
"320 128 LINE",
"384 128 LINE",
"384 64 LINE",
"384 0 LINE",
"512 0 LINE",
"640 0 LINE",
"640 64 LINE",
"640 128 LINE",
"512 128 LINE",
"384 128 LINE",
"384 192 LINE",
"384 256 LINE",
"448 256 LINE",
"512 256 LINE",
"512 320 LINE",
"512 384 LINE",
"704 384 LINE",
"896 384 LINE",
"896 640 LINE",
"896 896 LINE",
"832 896 LINE",
"768 896 LINE",
"768 960 LINE",
"768 1024 LINE",
"448 1024 LINE",
"128 1024 LINE",
"128 960 LINE",
"128 896 LINE"
);
},
{
closed = 1;
nodes = (
"448 512 LINE",
"256 512 LINE",
"256 576 LINE",
"256 640 LINE",
"448 640 LINE",
"640 640 LINE",
"640 576 LINE",
"640 512 LINE"
);
}
);
width = 1024;
}
);
note = "\012    aogonek\012  ";
unicode = 0105;
},
{
glyphname = Cacute;
lastChange = "2016-07-05 20:04:06 +0000";
layers = (
{
layerId = "9D510E40-B89B-4DEE-9F00-CDF72199B32A";
paths = (
{
closed = 1;
nodes = (
"448 896 LINE",
"384 896 LINE",
"384 832 LINE",
"384 768 LINE",
"320 768 LINE",
"256 768 LINE",
"256 704 LINE",
"256 640 LINE",
"192 640 LINE",
"128 640 LINE",
"128 576 LINE",
"128 512 LINE",
"64 512 LINE",
"0 512 LINE",
"0 448 LINE",
"0 384 LINE",
"64 384 LINE",
"128 384 LINE",
"128 320 LINE",
"128 256 LINE",
"192 256 LINE",
"256 256 LINE",
"256 192 LINE",
"256 128 LINE",
"512 128 LINE",
"768 128 LINE",
"768 192 LINE",
"768 256 LINE",
"832 256 LINE",
"896 256 LINE",
"896 320 LINE",
"896 384 LINE",
"768 384 LINE",
"640 384 LINE",
"640 320 LINE",
"640 256 LINE",
"512 256 LINE",
"384 256 LINE",
"384 320 LINE",
"384 384 LINE",
"320 384 LINE",
"256 384 LINE",
"256 448 LINE",
"256 512 LINE",
"320 512 LINE",
"384 512 LINE",
"384 576 LINE",
"384 640 LINE",
"512 640 LINE",
"640 640 LINE",
"640 576 LINE",
"640 512 LINE",
"768 512 LINE",
"896 512 LINE",
"896 576 LINE",
"896 640 LINE",
"832 640 LINE",
"768 640 LINE",
"768 704 LINE",
"768 768 LINE",
"640 768 LINE",
"512 768 LINE",
"512 832 LINE",
"512 896 LINE",
"576 896 LINE",
"640 896 LINE",
"640 960 LINE",
"640 1024 LINE",
"576 1024 LINE",
"512 1024 LINE",
"512 960 LINE",
"512 896 LINE"
);
}
);
width = 1024;
}
);
note = "\012    Cacute\012  ";
unicode = 0106;
},
{
glyphname = cacute;
lastChange = "2016-07-05 20:04:06 +0000";
layers = (
{
layerId = "9D510E40-B89B-4DEE-9F00-CDF72199B32A";
paths = (
{
closed = 1;
nodes = (
"448 896 LINE",
"384 896 LINE",
"384 832 LINE",
"384 768 LINE",
"256 768 LINE",
"128 768 LINE",
"128 704 LINE",
"128 640 LINE",
"64 640 LINE",
"0 640 LINE",
"0 448 LINE",
"0 256 LINE",
"64 256 LINE",
"128 256 LINE",
"128 192 LINE",
"128 128 LINE",
"512 128 LINE",
"896 128 LINE",
"896 192 LINE",
"896 256 LINE",
"576 256 LINE",
"256 256 LINE",
"256 448 LINE",
"256 640 LINE",
"576 640 LINE",
"896 640 LINE",
"896 704 LINE",
"896 768 LINE",
"704 768 LINE",
"512 768 LINE",
"512 832 LINE",
"512 896 LINE",
"576 896 LINE",
"640 896 LINE",
"640 960 LINE",
"640 1024 LINE",
"576 1024 LINE",
"512 1024 LINE",
"512 960 LINE",
"512 896 LINE"
);
}
);
width = 1024;
}
);
note = "\012    cacute\012  ";
unicode = 0107;
},
{
glyphname = Ccircumflex;
lastChange = "2016-07-05 20:04:06 +0000";
layers = (
{
layerId = "9D510E40-B89B-4DEE-9F00-CDF72199B32A";
paths = (
{
closed = 1;
nodes = (
"192 896 LINE",
"128 896 LINE",
"128 832 LINE",
"128 768 LINE",
"192 768 LINE",
"256 768 LINE",
"256 704 LINE",
"256 640 LINE",
"192 640 LINE",
"128 640 LINE",
"128 576 LINE",
"128 512 LINE",
"64 512 LINE",
"0 512 LINE",
"0 448 LINE",
"0 384 LINE",
"64 384 LINE",
"128 384 LINE",
"128 320 LINE",
"128 256 LINE",
"192 256 LINE",
"256 256 LINE",
"256 192 LINE",
"256 128 LINE",
"512 128 LINE",
"768 128 LINE",
"768 192 LINE",
"768 256 LINE",
"832 256 LINE",
"896 256 LINE",
"896 320 LINE",
"896 384 LINE",
"768 384 LINE",
"640 384 LINE",
"640 320 LINE",
"640 256 LINE",
"512 256 LINE",
"384 256 LINE",
"384 320 LINE",
"384 384 LINE",
"320 384 LINE",
"256 384 LINE",
"256 448 LINE",
"256 512 LINE",
"320 512 LINE",
"384 512 LINE",
"384 576 LINE",
"384 640 LINE",
"512 640 LINE",
"640 640 LINE",
"640 576 LINE",
"640 512 LINE",
"768 512 LINE",
"896 512 LINE",
"896 576 LINE",
"896 640 LINE",
"832 640 LINE",
"768 640 LINE",
"768 768 LINE",
"768 896 LINE",
"704 896 LINE",
"640 896 LINE",
"640 960 LINE",
"640 1024 LINE",
"448 1024 LINE",
"256 1024 LINE",
"256 960 LINE",
"256 896 LINE"
);
},
{
closed = 1;
nodes = (
"448 768 LINE",
"384 768 LINE",
"384 832 LINE",
"384 896 LINE",
"448 896 LINE",
"512 896 LINE",
"512 832 LINE",
"512 768 LINE"
);
}
);
width = 1024;
}
);
note = "\012    Ccircumflex\012  ";
unicode = 0108;
},
{
glyphname = ccircumflex;
lastChange = "2016-07-05 20:04:06 +0000";
layers = (
{
layerId = "9D510E40-B89B-4DEE-9F00-CDF72199B32A";
paths = (
{
closed = 1;
nodes = (
"192 896 LINE",
"128 896 LINE",
"128 768 LINE",
"128 640 LINE",
"64 640 LINE",
"0 640 LINE",
"0 448 LINE",
"0 256 LINE",
"64 256 LINE",
"128 256 LINE",
"128 192 LINE",
"128 128 LINE",
"512 128 LINE",
"896 128 LINE",
"896 192 LINE",
"896 256 LINE",
"576 256 LINE",
"256 256 LINE",
"256 448 LINE",
"256 640 LINE",
"576 640 LINE",
"896 640 LINE",
"896 704 LINE",
"896 768 LINE",
"832 768 LINE",
"768 768 LINE",
"768 832 LINE",
"768 896 LINE",
"704 896 LINE",
"640 896 LINE",
"640 960 LINE",
"640 1024 LINE",
"448 1024 LINE",
"256 1024 LINE",
"256 960 LINE",
"256 896 LINE"
);
},
{
closed = 1;
nodes = (
"448 768 LINE",
"384 768 LINE",
"384 832 LINE",
"384 896 LINE",
"448 896 LINE",
"512 896 LINE",
"512 832 LINE",
"512 768 LINE"
);
}
);
width = 1024;
}
);
note = "\012    ccircumflex\012  ";
unicode = 0109;
},
{
glyphname = Cdotaccent;
lastChange = "2016-07-05 20:04:06 +0000";
layers = (
{
layerId = "9D510E40-B89B-4DEE-9F00-CDF72199B32A";
paths = (
{
closed = 1;
nodes = (
"192 640 LINE",
"128 640 LINE",
"128 576 LINE",
"128 512 LINE",
"64 512 LINE",
"0 512 LINE",
"0 448 LINE",
"0 384 LINE",
"64 384 LINE",
"128 384 LINE",
"128 320 LINE",
"128 256 LINE",
"192 256 LINE",
"256 256 LINE",
"256 192 LINE",
"256 128 LINE",
"512 128 LINE",
"768 128 LINE",
"768 192 LINE",
"768 256 LINE",
"832 256 LINE",
"896 256 LINE",
"896 320 LINE",
"896 384 LINE",
"768 384 LINE",
"640 384 LINE",
"640 320 LINE",
"640 256 LINE",
"512 256 LINE",
"384 256 LINE",
"384 320 LINE",
"384 384 LINE",
"320 384 LINE",
"256 384 LINE",
"256 448 LINE",
"256 512 LINE",
"320 512 LINE",
"384 512 LINE",
"384 576 LINE",
"384 640 LINE",
"512 640 LINE",
"640 640 LINE",
"640 576 LINE",
"640 512 LINE",
"768 512 LINE",
"896 512 LINE",
"896 576 LINE",
"896 640 LINE",
"832 640 LINE",
"768 640 LINE",
"768 704 LINE",
"768 768 LINE",
"512 768 LINE",
"256 768 LINE",
"256 704 LINE",
"256 640 LINE"
);
},
{
closed = 1;
nodes = (
"512 896 LINE",
"640 896 LINE",
"640 960 LINE",
"640 1024 LINE",
"512 1024 LINE",
"384 1024 LINE",
"384 960 LINE",
"384 896 LINE"
);
}
);
width = 1024;
}
);
note = "\012    Cdotaccent\012  ";
unicode = 010A;
},
{
glyphname = cdotaccent;
lastChange = "2016-07-05 20:04:06 +0000";
layers = (
{
layerId = "9D510E40-B89B-4DEE-9F00-CDF72199B32A";
paths = (
{
closed = 1;
nodes = (
"64 640 LINE",
"0 640 LINE",
"0 448 LINE",
"0 256 LINE",
"64 256 LINE",
"128 256 LINE",
"128 192 LINE",
"128 128 LINE",
"512 128 LINE",
"896 128 LINE",
"896 192 LINE",
"896 256 LINE",
"576 256 LINE",
"256 256 LINE",
"256 448 LINE",
"256 640 LINE",
"576 640 LINE",
"896 640 LINE",
"896 704 LINE",
"896 768 LINE",
"512 768 LINE",
"128 768 LINE",
"128 704 LINE",
"128 640 LINE"
);
},
{
closed = 1;
nodes = (
"512 896 LINE",
"640 896 LINE",
"640 960 LINE",
"640 1024 LINE",
"512 1024 LINE",
"384 1024 LINE",
"384 960 LINE",
"384 896 LINE"
);
}
);
width = 1024;
}
);
note = "\012    cdotaccent\012  ";
unicode = 010B;
},
{
glyphname = Ccaron;
lastChange = "2016-07-05 20:04:06 +0000";
layers = (
{
layerId = "9D510E40-B89B-4DEE-9F00-CDF72199B32A";
paths = (
{
closed = 1;
nodes = (
"192 896 LINE",
"256 896 LINE",
"256 768 LINE",
"256 640 LINE",
"192 640 LINE",
"128 640 LINE",
"128 576 LINE",
"128 512 LINE",
"64 512 LINE",
"0 512 LINE",
"0 448 LINE",
"0 384 LINE",
"64 384 LINE",
"128 384 LINE",
"128 320 LINE",
"128 256 LINE",
"192 256 LINE",
"256 256 LINE",
"256 192 LINE",
"256 128 LINE",
"512 128 LINE",
"768 128 LINE",
"768 192 LINE",
"768 256 LINE",
"832 256 LINE",
"896 256 LINE",
"896 320 LINE",
"896 384 LINE",
"768 384 LINE",
"640 384 LINE",
"640 320 LINE",
"640 256 LINE",
"512 256 LINE",
"384 256 LINE",
"384 320 LINE",
"384 384 LINE",
"320 384 LINE",
"256 384 LINE",
"256 448 LINE",
"256 512 LINE",
"320 512 LINE",
"384 512 LINE",
"384 576 LINE",
"384 640 LINE",
"512 640 LINE",
"640 640 LINE",
"640 576 LINE",
"640 512 LINE",
"768 512 LINE",
"896 512 LINE",
"896 576 LINE",
"896 640 LINE",
"832 640 LINE",
"768 640 LINE",
"768 768 LINE",
"768 896 LINE",
"832 896 LINE",
"896 896 LINE",
"896 960 LINE",
"896 1024 LINE",
"768 1024 LINE",
"640 1024 LINE",
"640 960 LINE",
"640 896 LINE",
"512 896 LINE",
"384 896 LINE",
"384 960 LINE",
"384 1024 LINE",
"256 1024 LINE",
"128 1024 LINE",
"128 960 LINE",
"128 896 LINE"
);
}
);
width = 1024;
}
);
note = "\012    Ccaron\012  ";
unicode = 010C;
},
{
glyphname = ccaron;
lastChange = "2016-07-05 20:04:06 +0000";
layers = (
{
layerId = "9D510E40-B89B-4DEE-9F00-CDF72199B32A";
paths = (
{
closed = 1;
nodes = (
"192 896 LINE",
"256 896 LINE",
"256 832 LINE",
"256 768 LINE",
"192 768 LINE",
"128 768 LINE",
"128 704 LINE",
"128 640 LINE",
"64 640 LINE",
"0 640 LINE",
"0 448 LINE",
"0 256 LINE",
"64 256 LINE",
"128 256 LINE",
"128 192 LINE",
"128 128 LINE",
"512 128 LINE",
"896 128 LINE",
"896 192 LINE",
"896 256 LINE",
"576 256 LINE",
"256 256 LINE",
"256 448 LINE",
"256 640 LINE",
"576 640 LINE",
"896 640 LINE",
"896 704 LINE",
"896 768 LINE",
"768 768 LINE",
"640 768 LINE",
"640 832 LINE",
"640 896 LINE",
"704 896 LINE",
"768 896 LINE",
"768 960 LINE",
"768 1024 LINE",
"640 1024 LINE",
"512 1024 LINE",
"512 960 LINE",
"512 896 LINE",
"448 896 LINE",
"384 896 LINE",
"384 960 LINE",
"384 1024 LINE",
"256 1024 LINE",
"128 1024 LINE",
"128 960 LINE",
"128 896 LINE"
);
}
);
width = 1024;
}
);
note = "\012    ccaron\012  ";
unicode = 010D;
},
{
glyphname = Dcaron;
lastChange = "2016-07-05 20:04:06 +0000";
layers = (
{
layerId = "9D510E40-B89B-4DEE-9F00-CDF72199B32A";
paths = (
{
closed = 1;
nodes = (
"192 896 LINE",
"256 896 LINE",
"256 832 LINE",
"256 768 LINE",
"128 768 LINE",
"0 768 LINE",
"0 448 LINE",
"0 128 LINE",
"320 128 LINE",
"640 128 LINE",
"640 192 LINE",
"640 256 LINE",
"704 256 LINE",
"768 256 LINE",
"768 320 LINE",
"768 384 LINE",
"832 384 LINE",
"896 384 LINE",
"896 448 LINE",
"896 512 LINE",
"832 512 LINE",
"768 512 LINE",
"768 576 LINE",
"768 640 LINE",
"704 640 LINE",
"640 640 LINE",
"640 768 LINE",
"640 896 LINE",
"704 896 LINE",
"768 896 LINE",
"768 960 LINE",
"768 1024 LINE",
"640 1024 LINE",
"512 1024 LINE",
"512 960 LINE",
"512 896 LINE",
"448 896 LINE",
"384 896 LINE",
"384 960 LINE",
"384 1024 LINE",
"256 1024 LINE",
"128 1024 LINE",
"128 960 LINE",
"128 896 LINE"
);
},
{
closed = 1;
nodes = (
"576 512 LINE",
"640 512 LINE",
"640 448 LINE",
"640 384 LINE",
"576 384 LINE",
"512 384 LINE",
"512 320 LINE",
"512 256 LINE",
"384 256 LINE",
"256 256 LINE",
"256 448 LINE",
"256 640 LINE",
"384 640 LINE",
"512 640 LINE",
"512 576 LINE",
"512 512 LINE"
);
}
);
width = 1024;
}
);
note = "\012    Dcaron\012  ";
unicode = 010E;
},
{
glyphname = dcaron;
lastChange = "2016-07-05 20:04:06 +0000";
layers = (
{
layerId = "9D510E40-B89B-4DEE-9F00-CDF72199B32A";
paths = (
{
closed = 1;
nodes = (
"832 640 LINE",
"896 640 LINE",
"896 704 LINE",
"896 768 LINE",
"960 768 LINE",
"1024 768 LINE",
"1024 896 LINE",
"1024 1024 LINE",
"896 1024 LINE",
"768 1024 LINE",
"768 832 LINE",
"768 640 LINE"
);
},
{
closed = 1;
nodes = (
"256 768 LINE",
"128 768 LINE",
"128 704 LINE",
"128 640 LINE",
"64 640 LINE",
"0 640 LINE",
"0 448 LINE",
"0 256 LINE",
"64 256 LINE",
"128 256 LINE",
"128 192 LINE",
"128 128 LINE",
"384 128 LINE",
"640 128 LINE",
"640 576 LINE",
"640 1024 LINE",
"512 1024 LINE",
"384 1024 LINE",
"384 896 LINE",
"384 768 LINE"
);
},
{
closed = 1;
nodes = (
"320 256 LINE",
"256 256 LINE",
"256 448 LINE",
"256 640 LINE",
"320 640 LINE",
"384 640 LINE",
"384 448 LINE",
"384 256 LINE"
);
}
);
width = 1024;
}
);
note = "\012    dcaron\012  ";
unicode = 010F;
},
{
glyphname = Dcroat;
lastChange = "2016-07-05 20:04:06 +0000";
layers = (
{
layerId = "9D510E40-B89B-4DEE-9F00-CDF72199B32A";
paths = (
{
closed = 1;
nodes = (
"64 640 LINE",
"0 640 LINE",
"0 576 LINE",
"0 512 LINE",
"64 512 LINE",
"128 512 LINE",
"128 320 LINE",
"128 128 LINE",
"384 128 LINE",
"640 128 LINE",
"640 192 LINE",
"640 256 LINE",
"704 256 LINE",
"768 256 LINE",
"768 320 LINE",
"768 384 LINE",
"832 384 LINE",
"896 384 LINE",
"896 576 LINE",
"896 768 LINE",
"832 768 LINE",
"768 768 LINE",
"768 832 LINE",
"768 896 LINE",
"704 896 LINE",
"640 896 LINE",
"640 960 LINE",
"640 1024 LINE",
"384 1024 LINE",
"128 1024 LINE",
"128 832 LINE",
"128 640 LINE"
);
},
{
closed = 1;
nodes = (
"576 768 LINE",
"640 768 LINE",
"640 576 LINE",
"640 384 LINE",
"576 384 LINE",
"512 384 LINE",
"512 320 LINE",
"512 256 LINE",
"448 256 LINE",
"384 256 LINE",
"384 384 LINE",
"384 512 LINE",
"448 512 LINE",
"512 512 LINE",
"512 576 LINE",
"512 640 LINE",
"448 640 LINE",
"384 640 LINE",
"384 768 LINE",
"384 896 LINE",
"448 896 LINE",
"512 896 LINE",
"512 832 LINE",
"512 768 LINE"
);
}
);
width = 1024;
}
);
note = "\012    Dcroat\012  ";
unicode = 0110;
},
{
glyphname = dcroat;
lastChange = "2016-07-05 20:04:06 +0000";
layers = (
{
layerId = "9D510E40-B89B-4DEE-9F00-CDF72199B32A";
paths = (
{
closed = 1;
nodes = (
"448 896 LINE",
"384 896 LINE",
"384 832 LINE",
"384 768 LINE",
"256 768 LINE",
"128 768 LINE",
"128 704 LINE",
"128 640 LINE",
"64 640 LINE",
"0 640 LINE",
"0 448 LINE",
"0 256 LINE",
"64 256 LINE",
"128 256 LINE",
"128 192 LINE",
"128 128 LINE",
"448 128 LINE",
"768 128 LINE",
"768 448 LINE",
"768 768 LINE",
"832 768 LINE",
"896 768 LINE",
"896 832 LINE",
"896 896 LINE",
"832 896 LINE",
"768 896 LINE",
"768 960 LINE",
"768 1024 LINE",
"640 1024 LINE",
"512 1024 LINE",
"512 960 LINE",
"512 896 LINE"
);
},
{
closed = 1;
nodes = (
"384 256 LINE",
"256 256 LINE",
"256 448 LINE",
"256 640 LINE",
"384 640 LINE",
"512 640 LINE",
"512 448 LINE",
"512 256 LINE"
);
}
);
width = 1024;
}
);
note = "\012    dcroat\012  ";
unicode = 0111;
},
